<mxfile host="app.diagrams.net" modified="2023-06-09T02:46:12.231Z" agent="Mozilla/5.0 (Macintosh; Intel Mac OS X 10_15_7) AppleWebKit/537.36 (KHTML, like Gecko) Chrome/114.0.0.0 Safari/537.36" etag="v_Vlu-GacxSRiXb9VM1r" version="21.3.5" type="github">
  <diagram name="第 1 页" id="CA-hL248FaCOAwopqQ5m">
    <mxGraphModel dx="1588" dy="943" grid="1" gridSize="10" guides="1" tooltips="1" connect="1" arrows="1" fold="1" page="1" pageScale="1" pageWidth="827" pageHeight="1169" math="0" shadow="0">
      <root>
        <mxCell id="0" />
        <mxCell id="1" parent="0" />
        <mxCell id="CjQMcYgxPabckrPKH6no-1" value="" style="shape=image;verticalLabelPosition=bottom;labelBackgroundColor=default;verticalAlign=top;aspect=fixed;imageAspect=0;image=data:image/png,iVBORw0KGgoAAAANSUhEUgAAAP4AAAEECAYAAAAI6ImaAAAK2WlDQ1BJQ0MgUHJvZmlsZQAASImVlwdQU+kWx7970xstdCmhd6QTQEroAQSkg6iEJJBQYkgIIGJDFpeyFlREsKzoooCCqysga0FEsS0KitgXZBFQ1sWCDZW9wCPs7pv33rwzc/L95uR85zvnm3tn/hcAij9LKEyD5QBIF2SKwvw8aTGxcTTcMMACHJAHhsCQxRYLGaGhQQCxufXv9u4ugKbX2xbTtf79//9qChyumA0AFI9wIkfMTke4DfHnbKEoEwDUUSSul50pnOZbCCuKkAYR/m2ak2f5wzQnzjCaPJMTEeaFMA0APJnFEiUDQDZH4rQsdjJShzw9g5WAwxcgnIewG5vH4iB8BmHz9PSV0zyCsDGSLwSAgtwOoCf+pWby3+onSuuzWMlSnp1rxvDefLEwjbXq/7ya/23paZK5MwwRJ/NE/mHTd4rc373UlYFSFiQGh8wxnzN779PMk/hHzjFb7BU3xxyWd6B0b1pw0Bwn8X2Z0jqZzIg55op9wudYtDJMelaSyIsxxyzR/LmS1EhpnMdlSuvn8iKi5ziLHxU8x+LU8MD5HC9pXCQJk/bPFfh5zp/rK509XfyXeflM6d5MXoS/dHbWfP9cAWO+pjhG2huH6+0znxMpzRdmekrPEqaFSvO5aX7SuDgrXLo3E3k45/eGSu8whRUQOscgCEQBG+AIbIE/iAShANmRyc3JnB7Ea6VwlYifzMukMZC3jUtjCtiW5jQbKxtbAKbf3dnH4c29mXcSUsbPx4TDADgtQoKb5mPL6wBoQmaR0ZiPGSG9ymUAcLGILRFlzcbQ0z8YQASyQBGoAS2gB4yBBdKjA3ABHsAHBIAQEAFiwXLABjyQDkQgG+SBDaAQlICtYCeoBPvBQXAEHAMnQDM4Ay6Ay+A6uAV6wUPQD4bACzAO3oFJCIJwEAWiQmqQNmQAmUE2EB1yg3ygICgMioUSoGRIAEmgPGgjVAKVQZXQAagW+hE6DV2ArkLd0H1oABqFXkOfYBRMhhVhTdgQXgjTYQYcCEfAy+BkOAPOhQvgzXAFXA0fhZvgC/B1uBfuh1/AEyiAIqGUUTooCxQd5YUKQcWhklAi1FpUMaocVY1qQLWiOlG3Uf2oMdRHNBZNRdPQFmgXtD86Es1GZ6DXokvRlegj6CZ0B/o2egA9jv6KoWA0MGYYZwwTE4NJxmRjCjHlmBrMKcwlTC9mCPMOi8UqY42wjlh/bCw2BbsaW4rdi23EtmG7sYPYCRwOp4Yzw7niQnAsXCauELcbdxR3HteDG8J9wJPw2ngbvC8+Di/A5+PL8XX4c/ge/DB+kiBHMCA4E0IIHMIqwhbCIUIr4SZhiDBJlCcaEV2JEcQU4gZiBbGBeIn4iPiGRCLpkpxIS0h80npSBek46QppgPSRrEA2JXuR48kS8mbyYXIb+T75DYVCMaR4UOIomZTNlFrKRcoTygcZqoylDFOGI7NOpkqmSaZH5qUsQdZAliG7XDZXtlz2pOxN2TE5gpyhnJccS26tXJXcabk+uQl5qry1fIh8unypfJ38VfkRBZyCoYKPAkehQOGgwkWFQSqKqkf1orKpG6mHqJeoQ4pYRSNFpmKKYoniMcUuxXElBSU7pSilHKUqpbNK/cooZUNlpnKa8hblE8p3lT+paKowVLgqRSoNKj0q71UXqHqoclWLVRtVe1U/qdHUfNRS1bapNas9Vkerm6ovUc9W36d+SX1sgeIClwXsBcULTix4oAFrmGqEaazWOKhxQ2NCU0vTT1OouVvzouaYlrKWh1aK1g6tc1qj2lRtN22+9g7t89rPaUo0Bi2NVkHroI3raOj460h0Duh06UzqGulG6ubrNuo+1iPq0fWS9HboteuN62vrL9bP06/Xf2BAMKAb8Ax2GXQavDc0Mow23GTYbDhipGrENMo1qjd6ZEwxdjfOMK42vmOCNaGbpJrsNbllCpvam/JMq0xvmsFmDmZ8s71m3eYYcydzgXm1eZ8F2YJhkWVRbzFgqWwZZJlv2Wz5cqH+wriF2xZ2LvxqZW+VZnXI6qG1gnWAdb51q/VrG1Mbtk2VzR1biq2v7TrbFttXdmZ2XLt9dvfsqfaL7TfZt9t/cXB0EDk0OIw66jsmOO5x7KMr0kPppfQrThgnT6d1TmecPjo7OGc6n3D+w8XCJdWlzmVkkdEi7qJDiwZddV1Zrgdc+91obglu37v1u+u4s9yr3Z966HlwPGo8hhkmjBTGUcZLTytPkecpz/dezl5rvNq8Ud5+3sXeXT4KPpE+lT5PfHV9k33rfcf97P1W+7X5Y/wD/bf59zE1mWxmLXM8wDFgTUBHIDkwPLAy8GmQaZAoqHUxvDhg8fbFj4INggXBzSEghBmyPeRxqFFoRujPS7BLQpdULXkWZh2WF9YZTg1fEV4X/i7CM2JLxMNI40hJZHuUbFR8VG3U+2jv6LLo/piFMWtirseqx/JjW+JwcVFxNXETS32W7lw6FG8fXxh/d5nRspxlV5erL09bfnaF7ArWipMJmITohLqEz6wQVjVrIpGZuCdxnO3F3sV+wfHg7OCMcl25ZdzhJNeksqSRZNfk7cmjPHdeOW+M78Wv5L9K8U/Zn/I+NST1cOpUWnRaYzo+PSH9tEBBkCroWKm1Mmdlt9BMWCjsz3DO2JkxLgoU1Ygh8TJxS6YiIpJuSIwl30gGstyyqrI+ZEdln8yRzxHk3Fhluqpo1XCub+4Pq9Gr2avb83TyNuQNrGGsObAWWpu4tn2d3rqCdUPr/dYf2UDckLrhl3yr/LL8txujN7YWaBasLxj8xu+b+kKZQlFh3yaXTfu/RX/L/7aryLZod9HXYk7xtRKrkvKSz6Xs0mvfWX9X8d3U5qTNXVsctuzbit0q2Hp3m/u2I2XyZbllg9sXb2/aQdtRvOPtzhU7r5bble/fRdwl2dVfEVTRslt/99bdnyt5lb1VnlWNezT2FO15v5ezt2efx76G/Zr7S/Z/+p7//b0Dfgeaqg2ryw9iD2YdfHYo6lDnD/QfamvUa0pqvhwWHO4/Enako9axtrZOo25LPVwvqR89Gn/01jHvYy0NFg0HGpUbS46D45Ljz39M+PHuicAT7SfpJxt+MvhpzynqqeImqGlV03gzr7m/Jbal+3TA6fZWl9ZTP1v+fPiMzpmqs0pnt5wjnis4N3U+9/xEm7Bt7ELyhcH2Fe0PL8ZcvNOxpKPrUuClK5d9L1/sZHSev+J65cxV56unr9GvNV93uN50w/7GqV/sfznV5dDVdNPxZsstp1ut3Yu6z/W491y47X378h3mneu9wb3ddyPv3uuL7+u/x7k3cj/t/qsHWQ8mH65/hHlU/FjucfkTjSfVv5r82tjv0H92wHvgxtPwpw8H2YMvfhP/9nmo4BnlWfmw9nDtiM3ImVHf0VvPlz4feiF8MTlW+Lv873teGr/86Q+PP26Mx4wPvRK9mnpd+kbtzeG3dm/bJ0InnrxLfzf5vviD2ocjH+kfOz9FfxqezP6M+1zxxeRL69fAr4+m0qemhCwRa0YKoBCHk5IAeH0Y0caxAFARXU5cOqutZwya/R6YIfCfeFZ/z5gDAEgpELkegGDED07LWWSV9QAgFPEIDwDb2kr9XyZOsrWZrUVqRqRJ+dTUG0Q74kwA+NI3NTXZPDX1pQZp9gEAbe9mNf2MhBlE9E02onfCH7ragH/arN7/y4z/XMF0B3bgn+ufsrMW0vq2WDwAAABsZVhJZk1NACoAAAAIAAQBGgAFAAAAAQAAAD4BGwAFAAAAAQAAAEYBKAADAAAAAQACAACHaQAEAAAAAQAAAE4AAAAAAAAAkAAAAAEAAACQAAAAAQACoAIABAAAAAEAAAD+oAMABAAAAAEAAAEEAAAAAIgOHmMAAAAJcEhZcwAAFiUAABYlAUlSJPAAAEAASURBVHgB7d3pmxy3cQbw4U3qoO77ohxZPvIkfmLna/58f0t85ElsKbZs3bclkhJJ8VT6h9l3F9uc2ZndneXucAskFmigUCgU6i2g0T0zJ34cwqRCaaA0cKw0cPJYjbYGWxooDTQNFPDLEEoDx1ADBfxjOOk15NJAAb9soDRwDDVQwD+Gk15DLg0U8MsGSgPHUAMF/GM46TXk0kABv2ygNHAMNVDAP4aTXkMuDRTwl7CBerlxCSUVyVpp4PRaSXuIwo7Bf+LEibnSoL179+4kbU6ePDkZ0yvrw7179yazyrQbt+3byacf+TGtur4+NGM65X1IG3IlaDOWMXWzUjzG/dCLeObM2aFuKrtr/aBNxG+cVxa5xnz7OvmEWXSpO87piUGR9a7+ii2ASu/cudOMGeuAZZYhq2f0jD+hb9+3uXXrVkhaii4xFbdv376P15hGf+QLKJJOmQ7gGv4JZ86caak/oUmaMZ07d25y+vR0/VCnr4TQnjp1qtEMsJ6cODl1mKFDk5h+cp00/CpdnQZqxV+dLjc5ZVWT3rx5cxsQGTMAB3w9rTxAJg04whioleEhjOuV4a19wiya9B2aWak+AvxZ/aXs7Nmz24CPl7o+hj8HgCdHoZ7zkE/EK3ylysdlrvGpsD8N1Iq/pP6ACWASGGZACmxA6bqP2nz//fcNjGmHx/Xr1xsveTFAlwdUMf0FCNonPytVFpAnnUfX84pcs9Lw6VP5/rpv18vQ920s9KMM2MXsFHItvXDhwuYY8eUklPXB9fnz51tdnAAHgVbEJ/307R5EPnrp+7LL8f+ohYce+CYjRrhI+Zm4gNF1wHjt2rXNlVqZePXq1cmNGzcauNVb3QG/tb8zrN53p9tp/Yv4RR7XVi4xxpprhtyXj+XWNm3CWypkDPKpG9OqS0i7XCcNn8hs9+8WwHV0Ehptko9uct34DW3v/TjfwXEMcX7pv+fZl+FPP4888sjk8ccfb07gwvkLk0cefWTy6KOPbjoE9cbd6zF6kIp9IO9YFxnDuLxv1+dD35fJL9t+3O4grx8a4EfpYyWPVxrKjOGijQFkpWaAVuRvvvlm8sMPP7Q8QH/77beT7777bgLg174fQH7r5uSFF17YbI8vg7SS4SuS6eLFi8041QvKGaW0wpYG6IreM4/SzJN8ImdrXhLQfPnll402ZebgySefbI7hqaee2nQQdgqcw2OPPTZ55MIjk9NnTk/u3R0c0r3pbu7M6WHHcGrqENgD2zGnYlZucrAR8xdHEtn0v9O87lQX2R9UupbAp+gYRT8BY6VlQtBE6ZcvX26GY2IBGaCBHLhF23Z1Qt+O0TCobCkZg3xopFlJkh/zcE0mdNIK2zVgTvuQ+VMWffVlKTePqVcGmJlPOzJzGmdhHt0uuE3gAMQnnniiOWg7CDGAtlvIHOMfm0t9ZEnfKSfDrMAujkpYS+BHeWPFm3CRpxZNuhVCniFIv/rqq1aGTjCxJjTbbGlAbQU4e256mBSAm1w0rjPh/YQmHyNwLS/08ibfKurPXA1Exz3BuCxziSb6R8OBZ95jG1LlUvYQMEvNux0Bx9B2BcPOLNcchshhtB1AN699v+k/8vbXfT71h5WuLfBNVMAN4CbYQRrPPo03B+Bfb1vzXrlZzU2eFdxESgN2qYAuTsCEuWZMQDwGcr8NTF+h0TZ5dXgkhrbS5TRAb7NCA9TGGUTmQhl6dgLk0XnjsXHmYCcgNudwa1gs7kwdgT5CZ2Hg/DmDHCzaFbCZXCfVrski04WUJe2qDi17JIDflDyoYKyYabnt0Y8N5NmyJXVPCOw5OXedYLJNOp4mTwTANpED2KXx3ACuTkSvnT7kRXIoE1yHznVklxdyjS5hms/1bOMNbaX710DmIJwyf5m7Nt8nTm4eOMY5WEjMuzQ7hVnzbv4tGAG81A6BTeV2UNnZ4SUlZwZZTCLPUUiPBPAp1+RkYijGCmsCRCu4+zgAd48uVZ5tm7y2FJwtmUkwwSZInXwziN3gbsCqtuMwqwzN2ODSbh596it9sBqYNx/mr5/DXN8dntDYDcQmr1y5Mvnx3kA7/BM4ArYXZyDN4WIOEzmCef0+2NFPezsSwKdgII63pWARwHP4RtkAzhOjo1BbLifkvKxAuVmNKZlDSZwOdwDybh6qFvCjtmOTjsHJXhrEN5wCe+oXnX7xYZfZKXAEdgGeKjzzzDPtAJEz4BTUsVNBf+M+H4SyDx347s8TnK5//PHH7b48j88oNt7Uag7wUooTreRiD/R46ih1V2CPMNICfq+NY5ePHRn4yeHWwLadLV27fq3ZHhDbWbJDu4IbP9xotmuHyjmIcQbs+Nlnn528+OKLk1deeaU9RYgTOH1qeG/j9IN9G/HQgf/JJ59MPvroo/Ys1jb+zu07k/MXpieoAE6x7pUcsAByAC91bXL6Vd31OBTwxxqp62U00NuVxYUtsjm70dRJhd42Xee2APBv3Rzi7Vtt94pOwOvZZ56dvPraq21X8PTTT2/uBELTCA/oz4EAP+AzgKlipLbyPODNdp8O8FZ4Kz6arN7Si49fbECPN8VnrIy+LJ45/fa6mlXW1y/K9/32+UXtqn79NdDbjrlnm0LKx6m62KW6RPYtb9W3G/ASmDS7ATval156afLaa6+11C0CR5P+tJ/iSA9bTmY/9nggwCdclGK7A9zu0b/++uv2HN023uBzGmplt+0RhXjWDCy8WuXGn9T1ZWO68XVPu5f8rD73wqfaPBwa2I09sEX08JBzqqQ5J6AVoPe2px3A888/33YDcQBJo73xdcqXSVcOfAO0zTEYL89Y1f/xj3804HvcxsuhAXaHHQ7neDxKEZcF6yylj9uOr5dRyE40s/rcib7qjpMG7n/6szX66eqflT/lsfk7w/nAd99dbU+uPL1CBxfAbyfggNC18y1YEYA+7cNvN+lKgQ9oTuLz6M1Bnfv2PF8nuNcjDcLqzjnMU0YGFbCNQZzyfrBjmvF1T7uX/Kw+98Kn2hxPDcQee9tWBgPZ2meRzK0ArGQHwBHYEdgpi/2CuVuNLgV8wu1k9ATPdt4rsXkt1pY+Qnv0ZnC2OlIB8IVeEbluFRt1UVjKxjQpn0U3qyz0u0nbAeFOTn03zIr22GnACi16/u+TisFUcJWV3PZfUG/BtIjC0bmzw5uCj1xoeHruuefabQAnYAHN6p924dkYzfmzEuDbzjuZ/+KLL9qWnhOwujusIFTCsiBcSvDhtmCZsGyfy/AqmtLAfjXQwD+AemyXs2w+ZZyB22YOwK2y1d6jQY8FYcx7LOHrNtsZ2aKwEPgRMEKEoXJl77///uR3v/td29LzPlZ2EfCzsvdtkt8pHfc1i3YZGu0i/yweVVYaWAcNAHsOAO2Y3T5bbN02v/zyy5O33nqrpctiwpgXAr9XTAPR8Jjc55d5oPfee2/y4YcftkcTth3AnneVs9ITJgItC8LQ932P88vQaLNsn2P+dV0aOGwNsF0R6Nm7hdQ1R3D92vXJ5SvTj5jD3ttvvz1544032qK7jNxLAz8CEOLrr76evPPuO+203v29Qwegd59COEJG6B6gypYJfZt59MvQaLtsn/P6qfLSwGFrILbeY0pZ7v8twrb3ly5dmvzsZz9rrwgvknkp4AO3Fdyz+M8++6y9VusAzyO5Jy4Op/TD1x4F8ASKoNqNwzJATPtx2/uvF93nL+do7udbJaWBo6GB4Alu4EmqDN5cO/3P/T+Jbf2B37dDWaR9p0S+2bgf0VLAt7XwQaS//PUvkz//+c/t5Rsni96w83otASLgNuaDgMsAvW9T+dJAaWBLA3A1C0PjMgfqFmUvxnn2/4tf/KI9/3cbwEmMw9aR+7imu9b5hx99OHnnnXfac3ovFHhM50MLnIL63NN3zWYK3NdXvjRQGthZA2OAhzoLbVJna074nfZ/8P4Hk//6r/9qWPXhITwS037h9+pbzb1U8Pvf/75tK3zEEPA9UgB6jw/c288TMB1VWhooDRycBuDUyg74tvi+gPT//u//2oLsE4EcRB9mAj/ewSoO2L/97W8b6N03eM0WkzwvBHrPGaVihdJAaeDBa8B5WxZfh+0cgadu3vx77DGP2B/bJtR9W30NeAxMvDn0pz/9qX24xioP9FndOYVsM5wozrqP2NZTXZQGSgMHpgG4hVn49ITNGZwyr81/9dWXbXGG64T7gA/QQIzIaaEXdGzreQ4hjYE+Hgb9eCuRDiotDZQGDl4DsBg8wmJ74ja84APDn3/+eTv06xfn+4BPRA0DfI2s9g4PMLbF50kqlAZKA0dPA3EAMOwAHlY9hnfqL8Q5zAS+DxIA/o3rN9r7wbYOXsflMWad3h+94ZdEpYHSgEd5bsMdwgO+RTvAv+80zrvAvIQI/BoBvAYBvjrXtb0v4yoNHE0NwCbgW6jzhR9w6xp271vxHQ4E6N7J5yUQa8QJaISmQH80J7ykKg1EAxZuoIdVmO7DfcBPZYAN6E73OYBWNrzBxwlUKA2UBo6uBuAW6LODj6TKhbnA7wl9GAADYTg7LOBHOZWWBo6wBizY3uXPvX0WcyIvBXzv/26u+EOjWvGP8GyXaKWBQQNZ8d2e2/KPw1LA9z16HglwAJjwHBhn2zBmWtelgdLAg9UAXHoaB5sWaV/W4Rt7bPdn4fS+U/1Z4trme1/fSu9dfaeFOogDkFYoDZQGDk8DDdzDMg6jbs0//fTTbQs1yXoHsBTwvbXHcwC/xqJn+04KC/yHN9nVc2kgGvCeDdDbmfvuS2/swa0X7/IUblfAB2wrPKbAb/uQkOeEBf5opNLSwOFowFYf6K30Fmig74FPqnvDrUDCwhUfqL2rb3W/9v21yfUb1xv4lQs9+MO00tJAaWA1GrBKB2s7cQR2r9c7j4PJfKAuX789bbsL4GvgkYCXeHzbzpmzZ9q1z/sqz6f2vBpIwETtlhEYXYXSQGlgtgYGRLVba1iCQdG3Yd25O/3MjFdxbett7z2+s7UHfKldgIM+u3XbfU4gYeGKz+PkJD8dB9C8i850zAGkQ05A0GF/X5FOKy0NlAaW04Dvy/MT3S0A/ABkeLToOsSDPRh0AA/swA1zbsu1QysGh0kXAn+WeLb92f4TwI9h6tgzQ+B38Le5A+CxuKgKpYHSwJ40YMEFeFgDaKs80Ft4lcOj+/n+sB0WYdDiG/DLZ9HeE/BJT5gAnBCE0QFhOAUOwMcCmwMo8O9pwqtRacAKDVfw5fAuKzxgA7FVXrSVT8iq7rrPp166Rd2X7pDPvQYSAvEynu3zRiIBnfzzQL6qy6/q2H6ga/cnG7zjeXrB+nxECF2uKy0NPGwaYPexc6lrq/O9u8NqPXxQzipvQfVSDvCrt7BaYAEeDrOawxisiXnNHs/NOCzCwq6Br9MI2gOZEDwPT0RQ9x2+lVe5rwHiHOwQCBrhCBChCY5vQgTNdaWlgXXWAHtm92w8tq5MUBYsBcjwA+hW+IAdrXo4s7AKAXx4KcMvoHe9LWy8a7dr4G9j0l3oTOeEsr2XugVwD/LJJ5+0Rw2E9ZhB9IWAOYggvIBHOw7YEK5jv+kR+7LKlwbWRQNsPGAE8gCd/PIWS3ixcE5Xd9+ac70BPTtmuErb4G08/oahjUL5cYyDWBnwewEIR9jnn3++DcQtgEF7199tgO0/8NuuiL4fLIMjKGchjWfsldT3U/nSwLpogA1brQW2LcBEDuys7qJr9i9YPLNLdg20AW5S5YtC+uvpDgT46UCH7jVyGwDgPJrtvZ/gMlBeTD0HkEFyAs2zeYyxsfrjtZvBRoZKSwNHRQPsl/07BwPw3LffuX2nPZdXz+6Dl6zwfgZL6J+OzQLzbsZ5oMCP5zIYDiAgzyMJA6UEkRLUo/M0APh5PF5SVJdbAtcG3pwBzzDj1mA3Sija0sAsDbBPUYi9ybPRfC+lw7eUtUz3xwJnVYcDtgvsInuHAVE9fLB1MbzYuL7xAPgmy4ahN7vfkKvrrmUj77h8fH1gwCeAASUQNgGoRYEHpBjRgQYFuSUA9NDxgHYD4WnnEN69QsK/T5dVRN+m8qWBpoF25LRlt9EK4N87MZy6/zicTXVfRsV2c1jNnoGcTYvK3cMHB+wSuPPIm70LWdxCx87lRW/xzVvkdmvnBwb8KGlRGnBncAbuJJPSOADXFAT4PCIn4Lo/F6AcdNJTJ4fHhsNv+kURTWFzvOMi2ar+eGuATVnRY0Psi10BtRDwossKbjXPdj5lUrTas3e2y4Zdi+GlnwcVDh34GTQvKgoUYwtEgYkeaUR5FO2AUIwSlXEOFAv4UWiUmclrHdSf0sASGmh2NNgS22lOwLZ7yMc2gdwClS271DWbBewsVPnAjHZCAM+eBbzFBxkOFfjZFlEm0OceP56UgiiPUnI7QHnZRsWTUljOAOwIOAPtRI8QTUK2Ug9SudXXemuAXcbW7D5t1bNtD1jZMHu14KBnZ+wtO9PwwOeJ4ZdtYstSbQ8rHCjw49HmDQ7YgZty0FJG8mmjPHSUGkeAVkCfYHIo0+T4gIJDEXQmRTsTknwcQxwCOfQjRm5tTZg0/fXeWt99/5FDGh7zyua16+mPS34nXdBj4jx9ZB4yT+HXz6m2ynua2J45FtmOhcWCktXctfI+shmx7S4HuyEfXoK8flwn3yqGP/gKkU/9rKC+r+vzs+j3UnagwF8kUAaUFH2UMm6LRsxk9bTjNrlurzwOk2YSeWuTHnDHmXAGOWDhDDKpcQCZUHT6x8NvjjvYQTtPdnTzQsYyr/64lUeHSY3fHCbSZV/X6wdN6s2VORm3B150AbZr0ePkHtBxAGgdpFk48OwjsOuDfbCJ2EcvU/qX9nMdm8hYpPoah9SPy1d5fajA3+tAopik4WN71QeKPnf3XPPm8dzqlbsPM9EUry4TiKe8STW5Jvn0qWHr9siFTaNKH3nS0MvR50OXdDzJO53Sps1xT+lsHOkkupSav1yry/wCdcBsvjlsYBbQe4QcMLbC4Y/5M/cBdxaI1EvRJPbly+b1rX0v87JtV0W3lsCfN3jK7INrkyi610+9yWYQcQbKXecgUb0yDqClw22DLyDpjYFB9MBHpx8rgrwo3Gc4g92dOj29nXA74vPWQujbxTH8AwRjACsDXkFe7B22a8GOzvyZt6zq6NQrkzp0k5qfrNpSc2yOOPf+UDhzj3/6SapMGF9PS5f7u5+2y/WwM9XaA79XYPJSMZMOVJnIgLIHpLLQp014MEa3DDdvTe/7lDMuqVuDPjAkbyD2AY2+hPSdg5/I0MuXtqHNtbSNYeNBblauvj55bfswvu7rdpOPTua1Ud+H/ppeZ4XQSPvn3GiBOffFaWuVHpcBfnSYeZbSrzmRegJ0cnjUe2rjiY967aRtVzc4bTLgrUyQKouMkeEopmScN8+zyvcM/INUxn55G2gMYdYkhX+vkNBn0tOO4aB/9MdHN43A9f3Ru9e32qvIaduntvVW98jWp9kp9PRxDilDnx2GsjaGAWdxAOoT5I2j76PPh263aXZJ2rX+N9Lk4zSTRkdjACtvjqCTX9kY+Gmvv4zPfNBXgvIXX3xxE6x9efKzUrw9/UnIzoITSJjnrFK/Uxp5exp9Cmyh+e9u/D3dOJ924/L+Gs/YQsr7OR/ntzQY6mOczpqsptAT0wkbq6afEPlz585uflxyTJtrdFaaPjAwK4060bUnFLmWCl5OagYz5McT6XpM348nxtaXNaZL/gn/MXn6VJ580p5WmTB2SP01xyboK3Jq18tu9U5976TDP+0ao/ozVwMF/Lmq2ahoznlrNZ1FHmOLUTZjHYx3XuhvEdCKwJ68dslLxyF1oUua8r5N8u310vtZjVnPvM74AM0Y01+fpmH6c92Dugdr8n2a9ukr1z2/0KsLXeqTpt1RTtvKvMe5WNW4Cvj70GSMr2fBABcZYb9SaYs+ZWmftOc9L492LEtWybFDmcdjmXJ99MCf+qTt40UTWXrg45868m4Lo8vUNYDkYiNN26Sj6rpcUgMF/CUVtYhsmyEOhrztWuNuA5C6AKTnnTLA/XHOLUZoZrbb2GmEJn0l7dvsJT/m23gEuBtjDI00+Vl9RaZZAN+RvvW33dnt1M8sXse9rIC/IgvYZngdyJdl37fv8337AKUvG+dDk1Q9fvN4jtsve72N35zxkqGXYx7vbbw6Im37OvkpP8jf6jQ0STsWlZ2jgQL+HMUcxeIy7Ptnxc7Iv84P3E9UJfdpYOsD8/dVVUFpoDTwsGqggP+wzmyNqzSwgwZqq7+DcqrqcDWwdU+/JcfM252t2/0twsrtqIEC/o7qqcrD1sAY6OMDv8OWb137r63+us5cyV0a2IcGCvj7UF41LQ2sqwYK+Os6cyV3aWAfGqh7/H0or5o+eA2M7/nnSbAs3bz2KV/mBaTQrlNaK/46zVbJWhpYkQYK+CtSZLEpDayTBgr46zRbJWtpYEUaqHv8FSmy2BwtDTys9+ar0nKt+KvSZPEpDayRBgr4azRZJWppYFUaKOCvSpPFpzSwRhoo4K/RZJWopYFVaaCAvypNFp/SwBppoIC/RpNVopYGVqWBAv6qNFl8SgNrpIEC/hpNVolaGliVBgr4q9Jk8SkNrJEGCvhrNFklamlgVRoo4K9Kk8WnNLBGGijgr9FklailgVVpoIC/Kk0Wn9LAGmmggL9Gk1WilgZWpYEC/qo0WXxKA2ukgQL+Gk1WiVoaWJUGCvir0mTxKQ2skQYK+Gs0WSVqaWBVGijgr0qTxac0sEYaKOCv0WSVqKWBVWmggL8qTRaf0sAaaaCAv0aTVaKWBlalgQL+qjRZfEoDa6SBAv4aTVaJWhpYlQYK+KvSZPEpDayRBgr4azRZJWppYFUaKOCvSpPFpzSwRhoo4K/RZJWopYFVaaCAvypNFp/SwBppoIC/RpNVopYGVqWBAv6qNFl8SgNrpIEC/hpNVolaGliVBgr4q9Jk8SkNrJEGCvhrNFklamlgVRoo4K9Kk8WnNLBGGijgr9FklailgVVpoIC/Kk0Wn9LAGmmggL9Gk1WilgZWpYEC/qo0WXxKA2ukgQL+Gk1WiVoaWJUGCvgr0uSPP/44EcdhXvmY7sSJE+OibdfL8tnWaEUXkc3wZo1xt91MxzLlNY/fvPLd9lX0szVwenZxle5VAwz25MmpP713795SbAIsxDF4PJS7TllfH8Z925TtJg3vvi9yKz9z5kyTAb9pP2SZyui6lbn2T8UG3WbdxrW6RDTT/L3WfspX6WRy5vSZyZ27dybL6m3aqv7uRQMF/L1obUYbBsygBzhs1soDRW/cm5VzMngwfLEH/xzyPRXrY1Ygp37v3r3b4qlTpyZi5J8CdgrilEnH/Po6/eR6UMVMfaQ9XSWfNklnyTu3bKOfufVVMSngr9AIxit9Ay7wzwHauGtGHkO/c+dOq8ajB9+4zW6vyRJ59NXAffLUgM7pSoyfenUcgDQOKHVxTKnr61OGh/ZoU3bi5KCLe9MdkX7jZNDicfPmzUaLPn1Jc90K689KNFDAX4kat5gw6PPnz7eC27dvN+Pfqp2di+HbWp89e3YA4+nJ7du3GhA4APXiKgCABxn1JZ47d25y9szZyb0fpyu9/hJ/+OGHlie1dmQQtJ/KuZVGNqk6PAD51q1b23QA4AAvzbjQX7x4sdG3Pm8PYx7+oalwMBoo4K9QrwD/wgsvTF588cXG9fPPP5988cUXkxs3bmyCRkVAkq4BABi0f+aZZyZPPPFEA9eVK1cmX3755eTq1asNFKdPn76vbXhIA8wx/55G/sknn5z85Cc/af098sgjLbU6x1EFtO+9997kH//4RyvHk4yiNmSUvvzyy5PHH398swu3N2fPnW1trl+/PgHkb775ZvLpp5+2PDCL+tAfvvjQm/H//e9/n3z99dcTY+WY0FRYvQYK+CvWqdXr1Vdfbauc1dSKZ+WLkc/rDgDE119/ffLss882kABHVj28gC7gxgf9OMSJBGBoABCInnrqqclLL700ee655xrI8P/+++8nly9fbvJmJdcXeoAE3O+++25z5UejnuPATz83f7g5uX5jCnLjffTRRxtwgVf+woULzVFwhJ999tnmmCI/nk8+8eTksccfm3z88cdNNmOls36888Y81kFdL9ZAAX+xjpamYMhZlRmt7auV0cqd+90wi9HnGtCs9oAiAENbGYdtL/Dhe/LE/VtfwAgvqTbteuOASz2g4gfwIsBbWYHUbkRKXm3RWnn1Z6XmtOJw1D/22GOTS5cuTZ5//vnW9qsvv5p8e/nbliencQr4BPT0YJdhjNeuXWuOBE3klj91+tSm7vSjT7GnQTfcAQwNW67+7EMDBfx9KG/cFLg8kmL8tqvZttsKAwUQCWNjZuhAYrurrRUYcIQ83gIaIE5slaM/s+r0ZcXVx9NPPd34ks3Kmu02gOkXjX7ivNQH9PiQ6dlnnm07GtdWb1t4YA6tcryMVzleUjuhF55/oYH+b3/7W3M2xEffB2OocPAaKOCvUMeM2Mk1w//qq6+a0QOd1c59ulUVkMYB2KyKIjorMKch4GnLbaW2Zc/qPIsPen1rgyewAR5QtpX8wvlWD4i25w7QBIDPDkNeCH+8lAFkk+P55xovZw+Az0mhRYdHc35D38p6x0IPbjM4N7pJuwJ6U/cD/3P/3vGBi/DwdMiIGbx47ftrzcABAqBtkYFxHNQDhftlwX0wgOMhAK4dA8C88sor7dYBoIFR2z64FnNI+Nprr7U2nAU+eG7uPIamQBrnIK+tMXAeYmRQrt6uxK0Lx/Hhhx828OKNVru05eCyAyAfGruMb7/9to2VPugibcapfkXlzTfxTxsxzqofd+V3r4EC/u51NrcFgGTFdLJtRbx1a+teP9v30EmVPf300+1AD6Cshu7lAVUAKkBC+9ZbbzXgyTdQzJEE8D1ZcFB4/tz5BsIAWTvtReAj7907U6CHpzLRddqhteJzFByTAz+AjvOQCuGRPlKG9pNPPmnt47jUoUvoAY9PA3/bl4D7xr+hXF0f077S5TVQwF9eVwspe2OUZ+yXh4Mveatc224PoASggAtI7QZc53T99p3tz/+Bj1PgANBaeQO0sVD6wl9/2n351ZfbVmTtPTWwy3DmgG9CgCftQ8YFpOS8s+EoenD39LPyeJIfr+wyooOk4dens3hV2f41UMDfvw43OcRgFcgDvhXc9toW+aknp4+/1KsDAuWi03XP/JUBrJgAMO79gRStrT/gjwGKHqiAHrDRew4v6A8PW3DnBW+//Xa7DcDr9JnhicEAaDLbUscBtIbdH/X6vTM4JjLJp13GvpkOR+/5h8W9u/eao9F/nhps0g585+W77iu7Qg0U8FeozKyMWGZ1Az6P89Q9+dT0kRZHAABWZgd/tvUenWX7DLxZ0QECbZ63A40VX5u+vwwDT/VAp42+8AL83GejBX7P4n/+859P3nzzzfZ4jhNwi6LPcVAWoMcxZaUe07ZrLBKHrDcD6UTI+MhY4XA0UKf6B6R3qyZg2E4DtRUYsADd6q7Ovb0VHDidkueZOZGyAgbcQAPIUrwAnFNRL0i1sZVX98PNH5rDyaGedm4lOBHtHCZyIuQR1XMO6sjLWblGj28D+XD2IB+ZlKXvlpnzp6dvfLK7mEPfF2d8KUv/ua50bxoo4O9NbzNbMcrEGDjg2GIDvZXYY7rL315uK7a8+36AtNpn665NQgwfvgEfL23wA07OIjRWZOXAjp/oUC40UlG5thxIHIV2bhHijNx2OIVHRy7jygIdIEfGZVJtsmOIvIvazaNrsixqXPU7aqCAv6N6dl8Z4Kcl4wU2AAKydv/9yPD47vxTLW+ltcqOQ89H/sdhq+x+nbNwYo8PR2JVtvUGKtcA3Fb3wbnolxMZA0i9VR3fOCjt2tOF4QUdvO0GOA2yOcXXBz59JDMeuwkZV+MzHCjUdn832lsdbd3jr06XczkBGuBbaW2xve7qGfvFi09Mrl652rb5cxtvVAAKEOZDM1mdAT7Ad9ugvAH/ynRbr64PAV4Ai9ath0dtf/3rXyd/f//vm7cmHAyHgDarft9+2Xzff5/vncisfE9b+dVqoFb81erzPm5WVKBxH2+VtQL/5M2fTE6eOtlWa9tpW3jP2wOu+5gMBUBmC2+rbxvuhZ52iDeUA4169/aAjp/V3oot6jtBHwK68ERjhVfnAJAzwNMOgKPSHm34JVWmTXimj2VSbfQhJF2mXdGsRgO14q9GjztyARDGbWX1Uo97dNH78p6zCzdvbX0YBr04DufOnmuAzmM5wM9TgQvnL7SPyHIO2eK7DRD1nTjmyQFwRsCdbb3XeYE/AHcKr70dCxq7CkGb3EqEv3Qc7Eo4JbsHeQeZbh/k9SH07fu8x4t97Ot2yjem9WeuBgr4c1WzmgrGKQAyMNmqf/rZp5P333+/vZ4LpHYFoZMHCG/vaeM6qU+wWSk5EABEZ1UG3otPXGyPydTlnhxtHEj4u07MCNUFhOru3ps6A9+Wk5UZwMlqDEDstkKdvheF9G33YDxxTJFj7Cs2rwfVDS5r2z994Ze46RQWCVH12zRQW/1t6jjYC+Cx3Y/hf3d1+jn3AD/G3FLm3hm4PKAIVlrbeUACfKfz3sazurt14BSAMk5Ev4vCqeHrtxy0/Xhq+iWbVmKfDNQW2KX65VS8A+ADN3YexrIocCpW+8jIOeGX8UyX9EVcqn6VGqgVf5XaHPEKcFMMjEDpHt3K71l7aLKy5nqcqs8KCTQ3rt9ogAQo34LjtB+gHCICqPbobf2XCV4TBnQgdQthO9+DHviBnuOyyusPkN2yLAr4+YCRpxrOEL7/7vttO4UtB7CIU9WvSgPLWcWqejsmfBgyAAXMY8NWLmYbTy2h0U55Vuvk0QBz2nAaVn0rvjfwgAuobtyY3nf3/HOvzgngAdCikH7tFtTbwgM04Hvd2IoO6PhxKHYUosNADgc/K3/G1G4PhkeP5MRP33YInmR4X+Hjjz5u5xnqhYwp43TIef68MQz6OzPl0wg3/pCXPOTXZwv3H4f0TSo/QwMF/BlK2WsRIxYZvO23kLKeZ4w8ZWOa3DdzAngJAXIAA/RWX48FbbvtAKz4NweHEEDgY5XmHNABNcAEvOlfSgaruK8NszI7yHv33Xcb2PEL4KzWvnzDJ/887uNw0HIK+udA9MEx5FbEmYCdzl/+8pf22FB/xhGHYpx2Dtq8/sbrkyeuPNHqlIt9cM3RcErGlrH2NJVfrIEC/mIdLU3BkIHAVp5R7iYAQowYD4YttcVWB3jA2QersVXU6iz1WX7gyyqOVhug+2HYCXAAaAF8HAA27Tx5wCurvXIOCC/frffRhx812XKvb+VHI5IVgIXbw0eSr353tfHCz7sCxgPk6QtPfRsvx/TM09MvG8Wn10nkJYedDf3uVsfhUenwPQ+lhNVpgFHn8M6qFCDs1IMDNd/aw8gFQHCf7toqCnxWuVkgQGt1Rff5F5+3dj4Fl12C83ABDWf03ffTV3htvwPORjD80Q86zovzyLsA6vUd4AOpeg4A8Dgnuxs8PfaT2tbjD/S+sMMOQRv6ITMH149XnUebeKk3XrqTT4yc+OuXfOQNfeorXU4DBfzl9LQUFUMEeFFglDHguQyG+9M4CKkAXA7/pHgCFKAAZR+AwDY69AHT4EtaOPHjFDzNIX07fPDm6pUGKiCOc0BITv2IQJmIX3hKsyOR14az4FBCB7C+cxAoHeahEcgtGgceGecwcr03h2DHwuEF9GTRJn01RsOf1DtLyM7B+CvsTgMF/N3pa0fqAMiq2wx0WMl3ClsA2O4kgKPfZuMrAo5y7dyH22q7x/ZNt8AGJNvCRvd5Hh8gAUr6loZ/A/aAVWV2IQmpl6rjcFKGl3wCGXwE14rv1sJtRRwEB5T+pk5kyk+ebOGPl2vl941pqKPbxL7vyFDpYg0U8BfraFcUDNuLNsLUKLcAFEZo+oBuCoQp6GLMjFtIfQ4MpUAPWLb5H3/ycVv1067nrS/gCeD6uuTVhU6ZfB/SvzS0KeuvtVFu9bYT4CCcKdj6O2fwqUSPDRP6fsIndf2OJGV9Sl/RWV9e+eU0UMBfTk/7oNpaDecxAZadwrR++qWcXtEFeCu+1da9sXMFq2kcxTxePdDm0fTlPX0D2cZuoKcZ58nabi0Gmchjy46PbbnPJ9y+Pj2sXCTrmG9dr1YDBfzV6nNX3Bzs5X68bzjLEdjFA72V3jbaSu+x3OefTU/yAQyYerDiGV7j8r6/efm0nVc/q1w/+USfd/KdVZCL41BnJbcTcL0X/rP6rLLda6CAv3udHVoL4LaFdnjoZNvK6nTdPXS288B12IDilBzyudcnM5AH8JyAeums+/dDU+4x67iAf4gT3h63jXb581Zmh10fffRRkzYHXwF4/2ju3nDaPazz20Y1yxnM221oGL6zZEndtg6Gi74PeR/0EYA7Timr/KL799aw/hyoBgr4B6re1TK3so8DkAWg80A5btOut5/fzSS5r3C7P7mvOuCPPAj6POCPy1pB/XngGijgP3CV79zhrsC7M6t91+5Flh7o+xagGByYBgr4B6bao8W4AHm05uOwpRm98XHY4lT/pYHSwEFrwE6ugH/QWi7+pYEjqIEC/hGclBKpNHCQGqgV/yC1W7xLA0dYA7XiH+HJKdFKA/vVwLxD3QL+fjVb7UsDR1QDPs2ZNyTzIhVR25uUR1TmEqs0UBpYgQas+D3ovfXpi0/qOf4KlFssSgNHUQM+z+G7IYDfgZ5PcwK9T3MW8I/ijJVMpYEVaMCW3kehgZ4T8L2G7Wvdhw9JFfBXoOBiURo4ihrwhS35ujOf6PRpTvHSpUv1As9RnLCSqTSwWw34pKeVvY+29YLvbfBxbjuA/MR6nervVsNFXxpYAw3EAVjhBV9dDvS+vckuoIC/BpNYIpYG9qIB4Heg5/sa/DqSLz61/feI78je49/3RRHDZ8HbF1fsRQPVpjRwDDVw6+bW17P7ujOn+0AvHDng500jqX+bYPfFEQu+CIKHq1AaWKUGYo+r5DmP137st28r7yvP/AiqvOf4nt9n9Vd2pIAfJRNU2AT/BqBTr64fqOsKpYF110Dsey+2nW83ogPf1ORgz28u+Joz9/lWett8dPo5UsDPxGUQUUTK56VjRY2v57Wr8tLAIg0sa4OL+Cxbv1fbBWwruij4+vW8sSc1jn4sRwr4Bp2BJ52nsH4QY9rx9TweVV4aWKSB3s4W0e6nflY/s8rm9WErL7J9TsDJvWs8xIBfezSHDvzcxwes0j5moGMl9NdpG9rxdcorLQ3sXgOAs/tWu23BntmtNHE3PGzv7ZQB3vY+u2Y8eqyE56EDnyABOmH9Bpztyhi8Y+H76zHt+DqDrbQ0sBcN9La2l/bz2sROc9LuB1DbM/aNM6557cgjWtHzNh5aJ/ei1b1f7dWljbxwJIA/FWX6Q4l+Ktl7xVGKulmK78t62vCaVZa6SksDy2qgt7Nl2yxNt/EQ6szZ6S8LAS3gCwv7HdoCt5XeQume3s+UJXAmFlJ8ZvE6fOBvPKYroGbKKi0N7KwBgAZ6gJdfZpcw5nj4wB9L9JBec2yzPO9DOtwdhxU9lLPfUU1zKz2j97gO+IHeSp/bhbmNRhX1yu5IIfMu82hEPS/bh3nbqdCUgUcT9f7Flib2ngN8vz/IJoHeYV6c6bJca8VfUlMUS9EBsfef3ZO5x8oHIfr6TbbDvZgfj9QOvXbOMEyYCVSON+/9cAS/iHuqjSuPlaR0ZJXqneZujfWw9JM5P6j+8e/jon7okx3tZaUP71rxo4ldphT/85//vH3wAeCFmdut4Qwjk4qGd37++ecnFy9ebI4EIDiAhyUMPqyNMdvQV155ZfLqq6+2sRpjr4uHZcx7HcdedKENe8vCs1fnWcBfctYYskjx8bg/+9nP2qeeXCtfJpg0DuPll19uk5eDmmXargsNXQT4xin2gbHu1WB7Psc1z4YsIFlw9qKH2uovqTWGDKQMFtAdqjz55JPtMYpJcM+108rdOwafjXaLkAncDwjStue/5JBWThYZ+tPmvDqqs9SvvONjxNB8Z873M+wC/i60x3ApPYDNDsC1vMgpoEke+7ST5xz++te/Tryv4J43nhtYhB4c8mmLr5BJD53r0PRnBmRSzlm5FyRPgvLUha+6lMtnnPIJqZdql9SnJu/em+6GtIsDlL93z05o6wsf8RpMt7Gc1k8fTbUCdUMbUejzrWCjLHIok0cn3Qquh++bG3QgCtvrtyiPa66Av4uZbwY3GDJDi0EBr/v0GBaAqXOA5z5M+YkTtmZT4KL97//+7wbGxm+oV9baDXQ+ShmDVwa4nEMP3vQVOjQODvUpbzcCmNqTz87Ed64FCPrLoaQVOQFf7aWhTZ1UHQel3ie99K8v5Xd+2DqoVEcWDuDuMJ7Tp881Ou20gfvoDw0ZlSsz1kaz0bFxhFaRvHGJoUMz7WtalnHQCXp0ysQ+pH1fdlzyBfwlZ5oBMfA+MD7GBJQvvfRSO8SKsQHIe++9N/nyyy/bbUCMjpH++te/biv+Rx991IAEKHj4WiRffezjlC+88EK7Vo7Xt998O/nzO39uACZD+iEDIAu/+tWvJo8//nirC4AA/J133tm8tQBUY0H3+uuvt7Z2Hw4c9aleG9/I+pe//GUbWPTJmdEDmR3ccSi+uXWZQAcBG5nJ+NxzzzXdXbz4xCDTY5MfB8f67eVvJ59//nmTwS2U/sgs0AX5yP/22283ueMcfLfcBx980PRNNv396U9/amMK+JeR8zjQrAXwA5rxhBzmZOqb8b322muTN954o62qQCEwaABifAwPgK5cudKMF80///M/Tz788MPJ119/vfk8luP493//982VDODbSjqsiPj90z/90+T1N16f/OEPf5h8+umnDbCp1xencenSpclTTz3V6IEBD20B/Pe/+/3kgw8/aKAhO+D+4he/aHJfu3atjYVscSQA+fHHH7fVOPpPnbZvvvlmO6T83//93wb83c6FncZPfvKTyS9/+csmO0cA1OR97fXXWvknn3wy+eMf/9gcAIdw4uSJNia60M64cltx+tTpyY0fbrTvlcMHf06J/skmJG0Xx/zPWgB/3hzFIOfVP4hyJ9YM7LPPPmtAtsUFRN9x9ualNxtgrVoMm5FaNT3KQ0N+ZSKjtCUHVmcAnMXly5cbEB0GcjAM3epqheZItM9KiAeQAK8y0c6BQwDwn77908nlK5fbt63GKZCFw7l65erk408+bqssOa38wGVsH3zw4SD7rSYfGbO6qpMnQwCVdJbe1fX1vvjxrbfeavLakdhh+IAW4PtuOPzJTg592AlxdHYmQE9ujsmuytgFelJOV/oyF/hVuF8DD6VWGMqDCIyLMdqy/+1vf2tgtCoqA271Vn3R6g7IDBEo1Uldi65FBv7nP/95YrVjuAIAa8sxiK6Bn8Ebq8i5xBm4xotzIQeQARNgoBHIqH/hw48+bLcDttfK8QIgjoY8ttBCZMbHzgIvYDXmcch4kuqLo0BrxwDYnJRx/s///E8bj37J7vYIXzspurv2/bXWF9kylm/+8c3kd7/7XXNk0Tm5rPb0w0Hok3PTblYg27xAjoTQ9WWpW9f0oXiOb0L6+KAmQ58A/f777zdjtVoyboAEVKs2Q3RLwNgDAu3kA3zGCfzKgc/uAbBjsByAcgBEK6LVD6PHC62+E/FWn92BnQQZpGgEfBysWXE//eTTlievfoAPOIEpzip65RTwye5jCvyp48oYQzuUbo6bTOp9/NQ9vXt1ty0cCB7kUk9mztQuoNE+cbGxI4ddgPDRxx81GvQJ2rnHtxNwghiHmvpKtzTwUK74W8M7uBzgAXqMH/AYGrAxRtdWSytXD1bt1M2KjN/9NpqAAK/EfjTao1OnX6DWRh7AElxb+dWhJ58QR8SpcFK37wyHbcN9steLrbzKbMXtMHIWoU+A5xDwMXa0whR/WyBshRt/tJs6h+mugUyecuChfcZCPrK7BmIOiCMiuzLjIDe9p87qjnfacSIcxvXr1zbL8BXoqsJUA2sD/EzeUZo4B04MlyEyzBgwgwZ21+qAhdGGpk+NK9cM2HlBALDIUBk7ENnOey3WNlg/G3beVMXWrZroBPLgqw/9WXWBnwxnz5+d3Lk9fbzml1fQArl8HrnZvdhGcwaAr70Qnu2i+zPsxQbe3SPLQWa6IQ+nyNHFKZDBmAJiug3w6VTf2ukz7bSNntLOePDmMMI7NJ1oxzq7NsA/irN0/cb0C0OAjWEyPIbGgAP4GCaDBTaREfbR2JQLjFZYxlD1a9v9m9/8pt0LWyXb6j2skglOwgEtoIiT0Q8ZyQUg6Q9Qgd9uxbmFgzKHfXFIdgDuzdVntU5bfWaMfXpveLmHflKmP/IoA+LoiGyCOhFfNFnxyYo29MoBnB5CL1VvfMqFyBcdt8KuPNfHKS3g72O2reSMCYBEBsZ4lTNYgBMAREQb4+67DSAYrbYx1Fk0oVX32KPTR2IOwP7zP/+zHQrG4IGETFbM//iP/5j4XEHa6idgR0dO7QAmwfX7w9mFFd9Bnrbksv3H0+NI6TIBAD1ey8EiXQjK9Z/x0hmnQjYhsvlhCDJzatqiseXHU3nAT35yqncW4FxEvaC8wpYGCvhbuth1jjHZfp45Pd3WM9QYLYAzaEYIWGhjhOpci/KJBFAWA54nUNqeO3+uHb6hdzLuvlefACQAZlZMbQT1ieQRXff9usbTAR+wOuBzG8GRuG1w+JgdAJ7hLS9EvpQbH374pj9yKVcmpTdgjq5c050I2HGy+NCzaHzkUSYK6DmE0Id/ZGlEG3/GZWiPS9g6BTouI17ROBmJgyVb7aefmf4QYQwpwGOUDJFR2tJqE/CjTSRS8kCQ/CJR8eJ08HfPe+7s1quxeFhRbc09yotRB3iuU5ZUf/KREbiB3zh/+tZPJ5cuXWqA+/vf/77txZ7wCh99J7SxDPf40uYYT269XgvoeWrAqaCR0gHZ9csBGJtALnXaWdHR3L41fWsxzgM/dRwIejzjZJosw3XSyHgc01rx9zjrjNzK4g0398GAbSsKhAyccQIKAwQeIBLU9UAJWPqyZUVi0LcGoOjLdt89vlUwwHHolx9LZOz6ACT1fX/Jj/tF52DP8/SXXn6pjRF/j+ACJm37MIvXyVMnG0g5QcAGZLLaRTiUpJv8jDOwonOu8Oyzz7XxOE9wuEh2OuZsjVeeLKfPTJ9kmA/vHqgL8M2HPuk9Dq2X97jmC/i7mPkYeVYR95uMipEyKgbKATBQK493yW2VbY37VStdouuNkZHOAg56fapPBEr9f/vtN8Orr2+29/Tznjq+QAD0Vj88yZmVLk4AX3zIkLEpE1xzKE7vgdIZATB55g+ovdzTFlt/w6s5psFRcEDOCgAaP1t3z9rJ6AkBGdwy3bg+fFpxALEzBQ5BO4/mcpCoT2Ok20uDU/3Nr3/TxkfnAnk5BTscPMnhyYvxLhN6vSxDv840Bfw9zB6DZvzeOrPiMGiGbWWM0QOfVQ1QHDJlxQFWq5eVE5BERsp4GThgJ/QGi0af6PFQ5wDOthsQ7DqAiIMhA5nQ4Kl/YNKnfpTj51oUgKrvT5kxWFWB9c3h3XwgMmY8AFXAZ1YgA1nsdjigf/u3f2tO8N13323vz3tBR58//elPm4O0UnNOxndquB24NbwmTG4vQXEU9EfvymzxTw6fZHzj0huTf/3Xf93cfdArR0snwN90OWxIOISMeZasKWuOYoaTGOsl9OucFvCXnL0AmhGIjPq3v/1te5bNWN3PA6DIUEWgAn4GK2jHOH2wJSsf4DBQAPGBEuXKxkaozHvpDq04ALwAhxz4WQldAzzAAud3Vzce79253VbXnPgDGDn0J6Adh8hKNnlj0RdgASF54izUb4YhG9mM+7PPPm+OKg7O+OK4PC60m3AvT2/OI+JUyUpGnyPwUWXtAR7v3Dr94Y9/2AQ1vRiX9pwUR2JcdBH9b8pYmaP1gxrrMB8BJKO02jMuZYBudWWYDBAwhIAi7Rh0XuVFJwAQ4/T4DMC0QZ82aAAQaABAn9roAxj1jVYZQ5cKeAKZwAFpiy6OQX/CrP6U4e02xr04nvq3AwjwI2MvpzxZpcL33383yHBjUw8Zc07dPYnIriS7otDokxzkFfE0JtF4zAEZBXm0tvp2I8Ztd6CMPHhFptbgmP+pFX8XBtAMx4rW3ka714wtIAjYGVlAz9iUaxc6wGa4MUKGiV6MUffgjXh4CdoL2qPXHm9f9nHnzpQ3WjzU6T99A4my1IUXEEaexnz4g4dDMh8hdgtjZeawvNzjl1+0RTNuh7+gPP0HyK6NM3W9LGiMB0/lPd+0wVfeeES09I3eTseOwfcZclbktQuKjrStsKWBAv6WLpbLWcgG22aYMc4YckDPOIXUyzNOIbTJS1OXMtdi315dwpiH6+F/C2kTHlkpVaaM/MNnWBpwUh7ZbaedBwBPTsjtMPL9AdqlDX7jMC4bX09lnToFdbkOnzHw0SSmXwB3puH2gAOykwF89/KPPvJouxXipNwS9U4jfVQ6PF0qJexNAzHYgBwXh1+ufdClhQEXWRVjvICYoGwc0Cf09fIBdZ/K9zJkNU/bAMl137c++mv1+EiByIGcU3fbeysn4GdF5iQiQ2RNqjx9p6xP0y50PW3K0Cvv63oegO7E37ZeMA7jtKPxvQIOIMXoJX32PI57voD/ACxgngGn697gU7ZTGn77Mejw0I88MAEPsLjvdpDoDMD9t/vngB2tuJ++dxrbojr9ki9PS9ym2JGQrx1mDl82kvt9vIzpsGRdNJbDrD8SwDcx6zQ5e5G1B9phTvisvo0nq73UFtnqGUBZ+c+fvzDQTH+ocRaPB1UGyA5IfTIQ2AW3JxyAOmXGYEwF+vmzciSAP1+8qnkQGuCUnIIDjG0z0NjWS52QK5uu+tPv/3sQMs3qg5xkdLDn/l4gp8eBUrHfjZC/wtZZU6+bIwV8L2WYRF6bkAl9PmXS8cTOo+vbHHR+KnZk3zp027HfgXzYQG8jGVq2A7hthQd4Yas/K2TVPHfOM/Tp48BZdHsty5wlxSf5pOFtvsdzzik54Auta2FMFx5HKSVzoh2LkOt58qvn/ET5zM+8cQVLaRf9HD7wO3vPt6jGm/eDIXgfZilmTNPTV/7oaiDzlnQVks6yj1XwXSUP4LVLAV6O10tg8osCMGeH1nQ2a+EYnKRDWvzjJHq+hw78rHQZsPs1ShhP3NgoxvUGNabpB1r5o6uBWXO5H2nxWzXP/cgzr22Az27Zf95M3MmOM67c2uT9h3EbdHEQaIW0lT904BNCsLW11T9xevbjoFkDm7bc+jum2aqp3FHVAGP0r/0f8kIMNOleZN9P2730t5c27NUil1UZj2VsODsEjgO4+1udXg46sDNYGvgYi+4HpJjn3sD1sgL2QizKt5XfvNu2jLb14+v0P57cWXSL+q36w9OA+TNn/jXwb4iiLHV7kW5sF3vh8aDaNLfH4Q12D6Bkh7EtWx4opv5wUyRYtI0PNrUTt9pMSZWh4VwciPZ6uW/FVym2e44Lj7S3oTw+UaZD5ZjxMgcR9IN/H5pxjJxB5OzplFVYXw30htvndzsibY+iLfQyZXxS9n7y7Hab3xqzs6377RoWnQlY9a3qefSadvpSv/UTZRdbP/prfYZwnGJ8cfg+cz9z5FEO5gk6q1AaKA3sTgMBnVRIujsuU2ptgdtCbPWXwmwiZ8IZwKq3HB8ZFnFBG/G+FX/KdvrGk3ei/fySTzk5RNBAsPWvUBooDRyOBuIw/A4C0MNjj89IxRnY4qu7eevm5MLdC23VXwh8TH1Ywxc8+DgmBjxJvE06kEaYviyOoi+rfGmgNLAaDcCXJwGAL3VPn6DOuwG+IAb4febC7bkPYJ0/d35uOtWbAAALoUlEQVRyYgDsdN+RFqPUNt+3pvhBRnn3DaJm6cj2wpZiAavGeRlnMIvPrLIxr/H1aCh1ecQ1MGuO9yryutjCMmPux4I+t9p59O3aZyryaUR4VPfqq68N33D0VsOrRVvkBLyNOXerH4Vb9S9dutSY+uAGr5H7iQhEmMS0k6a+L1smP26H97hsGT5FUxo46hrYq13DhJXeDhyYfSTZOZyDeKD3XQo/+9nb7aPVaHz2wq7dl7ZYwBcCn2BWeF9wILw/fGLL1y9xCF6vJYBDBHT9IIarqc7vP5Ccltff0kBpYE8aCM4AH/6s5FkcgfyJ4QdJnc355iTYFSzW8kBvd7Bwqx/Jmje5dn3y3t/ea1t/ngPwbSsAP6eJoQf8JuAI+BE6dMukBrVM2AvvZfgWzYPRwLLzvIw0D7Mt0JPtveh2W2onzhE4j/OTam+++WbbDYx1pS26hSt+Glrh2yr/2KPtK478ZJOvN3JQYJvB01QoDZQG9qeBOL9lHBcAAzzwW3h/+ctfTv7lX/6lfcMwKeIg5NUL+Lo1WHrFb62GP5i1H1Ucvs/93XfebTuA3PdjyAGIvFBCPwh1/XVo9ptGYfvlU+0PVwOrso1V8XmQ2ugxA6jwJLU9B3IhGAN2h3mw56vEf/WrXw1fR/b6sAhv/fZgr4M+j8+uga+RQBD3+n4YwVczedYfB+AxQv8xw3TagzNlU26r+dvzXw3H4vIgNbBKm1glrwelA/Yb8FsgA3K4Mh5gd8vtmkNwq21r78dHHOb5wpQ+RAdJ+7qlt/p9I3kd+5UW23wfoxX96olTRYIZgNNFA5gFSGWzBBr3U9elgeOkAZiADQurKJ9rwBdhzqu4QO85vcdzynaDpz2t+AQBbOAX5H3P+Vdf+bmlzzd/8CAv/EQg9LxYrrXt867nBX0uokVTYX01sGh+dzOyVfLaTb/7oWW/wRbQA3nAbwEFbqu8L0K1ylt4XaODreBxLMMsXewJ+IQB6qzogE8wqWeFvg/N78WJtiZO/eMEHBBqR5gmEKwOJ/8RbhF4QzcenOtFbWe1qbKjo4Gd5na3Uq6S1277HtNHloBavTJRmY+jwwD8wEkA7xoNvFjhPZ7zGr0tvffvYUmAx/BrBaM/6sZhd8AfQDr4pG08erClc4J4YcC236/N+C0zP3vECfBKeULgXeO7wxc4chrxVvFw4TUWeny9TZi6KA1saOCw7CT9jnFBrAHq7Z15ddn5Arpn7IJbZDtngD87/OS5gzpAv3TpUlvl2+u2A9jTR2uUPzOwOZNug36lwI8MUmAWDMwhoJcG4gTsCH744ebw3vCTzQnwaNk9tEbDnyguqfI+H7pKSwOzNLCT0c+iX3XZLFtl40B+546vzrqxuRN2Om9RJDNw28b79SIHdn4gxC8IWxh3HNNRAD4BM3Cpa9v9a98Pv4s+/Jaa70X3DgAHYNAeV6DzZtHTTz3dtj2ZiPBxvePA06DS0sAh2gp7TbRyC7HhrOxAzu7zm4e27n4ZKPftrmFBzALaGK3wz4Gs+AG+tAdr7mFyz2/gtjYcgOhapChbIV7OwMXxjmCFOihWD6EGerubN7wAchnaeTxmleNrp+u2NUFZvtDGo263u+7TPYO3nc9BXWye/YsHFXYH/EgxY1uRqj6dpVAKEIFZ6r6GQgJ6twUOBW/e9FvuP7QtkMMOSuAxKUa706flh9uJHDl0B4R9v2grHD8N9DYwa/Sxi6Q9/TRv0draZVq0RPQiGrYYewzQ2WqifgNgqZVctJ33+FveoziOQH14S7PgzZJ9FWV7A/7QM+F2Cr0id6Ib11Eu4NsKuSXgCOwKHBZSaJQfz6ifKEnal+MdOXt5ouBx33X98Gign+9Zo4oNxD5Ck3bSRHXszgouDY1yeeV2sXiFxg7V47eA27bdb/1dfPzi5PGLj28e6OGR0MviIND/gwoHAvxeMfsR3E7A/f/VK1cnX3z5xaYT4F3VcQQJmSTA5z17Z4Bmnky9ssOr0vXXwLz5zsjMex9T3qd4ZKEJ8LVhX67ZH6ArY29WbmCXWtVt4a3seQSn3ayg/TisHfBXKTCFxIPKmwi3BJ4Q5GCQA7Ab4CDkBXRxAL2yU765Mxienw7Tv7krGCu/rtdXA+Z6p8Ce+hhaZX2wyPQR2NmWFd3vCZ4/f64dwgXk7tmB3W0p2xPR92HcR1+X/CpxFJ59uvIVfxUCU8x44u7edUK6/aee83KQVPTTyF4gyteEmTCOog8m7NzwjPTM2TNtcsb99LTrlM84ljEq4wr9ojEuy28Rnwddv2h8xtVH8rEhttMHiwSbsVX3lpz0qSefmlx4ZLqNT7l79YTojAx9TP0y6SpwtFM/ewb+TkwfVF2/G5C/fWt46+nu1neMm0jnBHYDzglcJ3Wo6JpzEEywScpEm+R4arydwvLetnjZ/sW4sg1EJyhHm0lnCOEtDY/QtkYbf/SfgFZIGoNKfZ8uqptlSOGbdMwPz3l8U560b9vnx7zH12jnldGFqI/oLP0l1R4NHn1Ubm7NsxS9KJ+oLqs3cLdFoTtxzyuyAbzrrODa9fl+3iLbrHGR6yiE9QX+sCO79+P256RNoUP5MMXNCBhLP8nynADAB/hStwoOZ1JnOycqV29SGYXtW6JJF2JsyaNNVBaDRaecwcQIYyC5bjy6Q50YjnZC6FPelzWCjibXPU3aJVXX58dtern6uj4/bt+3ibxjem362Ncn3+o3dIEPPUrpX535MZ+crevQoFNn3jKPPkZ+cngC5N7bCi3KmwtpgC0vmluOXn3mO/OvL6HJt5GPzOuUri/wBy1vM6wNwM9TfiaMocQ4ks97BRxCHEBAzxkoY0To40hc4zP4mOZo9EueGGdWA6CNkSQ/lrFfjSNnUrTy28a60Ze6eeXqZoXwHadj2oxlzD90ad9f92X9mEKTFB39hXffLjRJ0aANyOMElYnmRKBvIE0KqIArVSYFZiDPp9nODI+EOQT1Inqxl0den/PmLnKuW7rWwKfsGE+fN1nKpf0kLjs5jCwrvRT4pRxD3jdQFoPkGLx3cOfOdEvZy5I8eUTOIsakLvJF1v66r5efGQbHM+uxzyzg9bz7/H18ObMNeVvKu+0Q0AhjnrkeN0VPx3SRtmOa8AuPpCkHRCCVAjxQZzXPfXfKgT4OQBsg7/m1MQ4yKevLZ8n0sJQ9tMCPgax6oqwwWWnkfebg+vXpB5IYMkPkCDxhkHIUHEbaoLk3HFT6SfCE7CQYYAwPnRBjlKJLfVagXCftdyDhv1mXgi4d1+U6YOhIN7MBa1IVyc9qhyfA9TT9yppyZYnanBieugCpD6tYqds2fPhgl3fX5YEduNWhkxfxiEx440VfCZExdRmz+j4f+ocxfaiA30/QbicwRtDzmJVHJ4zT0Oq379thIgeQoJ2XkwJs5RzD+DQ5u4y+nbKdQnMqG6to+EdO1/It3ht2HsP5SK7x7B1J5B+n6PrxyWuXtuN61wIwOhjrg9dVgTcBr9xrS7UR8AZkwJ6GoU86HhynOiFjnNZP/47LMpaeZpwfuA4DHJc+nNcF/I15ZSjLGMfYoJYxi7SRigGhtvocR+WchV1C2mylaqc87ABEdUL45jpt1KVMHl/Opg+AFnBFD+O0p08eoAPSlKVdrvENyPux5nPooRu3G19nDOGRdtLUpWx8PeYVuj4t4PfaWKN8JnuZSR4PS9tl2qWPcftdXQ84HVzAZn+z+tVPixur8078tZ/FQ5tl5NWWM+A4ej622kNVC5vlG7KHt3Ix/Uhb2cbqmfp+V5C2/W1J6Ka97e1vZNhba4v98Vnxs3/aq66q3V400OxrmT3lYIrDbna4893WC5AkxNhTljT1y6baAb4QHuN0N7wW0TbehjHdrCwiX6oecDnUCos1sPZb/cVDXE+KAJr0AeCskfR0i2hntVcWHknH/Y2v5/E5MuXdriQyHafVPGPeKS3g76SdqltbDcSJZQBr57wi+AGl/w/9LgxbkrCsrgAAAABJRU5ErkJggg==;" vertex="1" parent="1">
          <mxGeometry x="70" y="350" width="166.08" height="170" as="geometry" />
        </mxCell>
        <mxCell id="CjQMcYgxPabckrPKH6no-2" value="&lt;font style=&quot;font-size: 14px;&quot;&gt;Binlog解析&lt;/font&gt;" style="rounded=1;whiteSpace=wrap;html=1;fillColor=#d5e8d4;strokeColor=#82b366;" vertex="1" parent="1">
          <mxGeometry x="360" y="423" width="120" height="60" as="geometry" />
        </mxCell>
        <mxCell id="CjQMcYgxPabckrPKH6no-3" value="" style="shape=image;verticalLabelPosition=bottom;labelBackgroundColor=default;verticalAlign=top;aspect=fixed;imageAspect=0;image=data:image/png,iVBORw0KGgoAAAANSUhEUgAAAUIAAABoCAYAAACE7fl4AAAK2WlDQ1BJQ0MgUHJvZmlsZQAASImVlwdQU+kWx7970xstdCmhd6QTQEroAQSkg6iEJJBQYkgIIGJDFpeyFlREsKzoooCCqysga0FEsS0KitgXZBFQ1sWCDZW9wCPs7pv33rwzc/L95uR85zvnm3tn/hcAij9LKEyD5QBIF2SKwvw8aTGxcTTcMMACHJAHhsCQxRYLGaGhQQCxufXv9u4ugKbX2xbTtf79//9qChyumA0AFI9wIkfMTke4DfHnbKEoEwDUUSSul50pnOZbCCuKkAYR/m2ak2f5wzQnzjCaPJMTEeaFMA0APJnFEiUDQDZH4rQsdjJShzw9g5WAwxcgnIewG5vH4iB8BmHz9PSV0zyCsDGSLwSAgtwOoCf+pWby3+onSuuzWMlSnp1rxvDefLEwjbXq/7ya/23paZK5MwwRJ/NE/mHTd4rc373UlYFSFiQGh8wxnzN779PMk/hHzjFb7BU3xxyWd6B0b1pw0Bwn8X2Z0jqZzIg55op9wudYtDJMelaSyIsxxyzR/LmS1EhpnMdlSuvn8iKi5ziLHxU8x+LU8MD5HC9pXCQJk/bPFfh5zp/rK509XfyXeflM6d5MXoS/dHbWfP9cAWO+pjhG2huH6+0znxMpzRdmekrPEqaFSvO5aX7SuDgrXLo3E3k45/eGSu8whRUQOscgCEQBG+AIbIE/iAShANmRyc3JnB7Ea6VwlYifzMukMZC3jUtjCtiW5jQbKxtbAKbf3dnH4c29mXcSUsbPx4TDADgtQoKb5mPL6wBoQmaR0ZiPGSG9ymUAcLGILRFlzcbQ0z8YQASyQBGoAS2gB4yBBdKjA3ABHsAHBIAQEAFiwXLABjyQDkQgG+SBDaAQlICtYCeoBPvBQXAEHAMnQDM4Ay6Ay+A6uAV6wUPQD4bACzAO3oFJCIJwEAWiQmqQNmQAmUE2EB1yg3ygICgMioUSoGRIAEmgPGgjVAKVQZXQAagW+hE6DV2ArkLd0H1oABqFXkOfYBRMhhVhTdgQXgjTYQYcCEfAy+BkOAPOhQvgzXAFXA0fhZvgC/B1uBfuh1/AEyiAIqGUUTooCxQd5YUKQcWhklAi1FpUMaocVY1qQLWiOlG3Uf2oMdRHNBZNRdPQFmgXtD86Es1GZ6DXokvRlegj6CZ0B/o2egA9jv6KoWA0MGYYZwwTE4NJxmRjCjHlmBrMKcwlTC9mCPMOi8UqY42wjlh/bCw2BbsaW4rdi23EtmG7sYPYCRwOp4Yzw7niQnAsXCauELcbdxR3HteDG8J9wJPw2ngbvC8+Di/A5+PL8XX4c/ge/DB+kiBHMCA4E0IIHMIqwhbCIUIr4SZhiDBJlCcaEV2JEcQU4gZiBbGBeIn4iPiGRCLpkpxIS0h80npSBek46QppgPSRrEA2JXuR48kS8mbyYXIb+T75DYVCMaR4UOIomZTNlFrKRcoTygcZqoylDFOGI7NOpkqmSaZH5qUsQdZAliG7XDZXtlz2pOxN2TE5gpyhnJccS26tXJXcabk+uQl5qry1fIh8unypfJ38VfkRBZyCoYKPAkehQOGgwkWFQSqKqkf1orKpG6mHqJeoQ4pYRSNFpmKKYoniMcUuxXElBSU7pSilHKUqpbNK/cooZUNlpnKa8hblE8p3lT+paKowVLgqRSoNKj0q71UXqHqoclWLVRtVe1U/qdHUfNRS1bapNas9Vkerm6ovUc9W36d+SX1sgeIClwXsBcULTix4oAFrmGqEaazWOKhxQ2NCU0vTT1OouVvzouaYlrKWh1aK1g6tc1qj2lRtN22+9g7t89rPaUo0Bi2NVkHroI3raOj460h0Duh06UzqGulG6ubrNuo+1iPq0fWS9HboteuN62vrL9bP06/Xf2BAMKAb8Ax2GXQavDc0Mow23GTYbDhipGrENMo1qjd6ZEwxdjfOMK42vmOCNaGbpJrsNbllCpvam/JMq0xvmsFmDmZ8s71m3eYYcydzgXm1eZ8F2YJhkWVRbzFgqWwZZJlv2Wz5cqH+wriF2xZ2LvxqZW+VZnXI6qG1gnWAdb51q/VrG1Mbtk2VzR1biq2v7TrbFttXdmZ2XLt9dvfsqfaL7TfZt9t/cXB0EDk0OIw66jsmOO5x7KMr0kPppfQrThgnT6d1TmecPjo7OGc6n3D+w8XCJdWlzmVkkdEi7qJDiwZddV1Zrgdc+91obglu37v1u+u4s9yr3Z966HlwPGo8hhkmjBTGUcZLTytPkecpz/dezl5rvNq8Ud5+3sXeXT4KPpE+lT5PfHV9k33rfcf97P1W+7X5Y/wD/bf59zE1mWxmLXM8wDFgTUBHIDkwPLAy8GmQaZAoqHUxvDhg8fbFj4INggXBzSEghBmyPeRxqFFoRujPS7BLQpdULXkWZh2WF9YZTg1fEV4X/i7CM2JLxMNI40hJZHuUbFR8VG3U+2jv6LLo/piFMWtirseqx/JjW+JwcVFxNXETS32W7lw6FG8fXxh/d5nRspxlV5erL09bfnaF7ArWipMJmITohLqEz6wQVjVrIpGZuCdxnO3F3sV+wfHg7OCMcl25ZdzhJNeksqSRZNfk7cmjPHdeOW+M78Wv5L9K8U/Zn/I+NST1cOpUWnRaYzo+PSH9tEBBkCroWKm1Mmdlt9BMWCjsz3DO2JkxLgoU1Ygh8TJxS6YiIpJuSIwl30gGstyyqrI+ZEdln8yRzxHk3Fhluqpo1XCub+4Pq9Gr2avb83TyNuQNrGGsObAWWpu4tn2d3rqCdUPr/dYf2UDckLrhl3yr/LL8txujN7YWaBasLxj8xu+b+kKZQlFh3yaXTfu/RX/L/7aryLZod9HXYk7xtRKrkvKSz6Xs0mvfWX9X8d3U5qTNXVsctuzbit0q2Hp3m/u2I2XyZbllg9sXb2/aQdtRvOPtzhU7r5bble/fRdwl2dVfEVTRslt/99bdnyt5lb1VnlWNezT2FO15v5ezt2efx76G/Zr7S/Z/+p7//b0Dfgeaqg2ryw9iD2YdfHYo6lDnD/QfamvUa0pqvhwWHO4/Enako9axtrZOo25LPVwvqR89Gn/01jHvYy0NFg0HGpUbS46D45Ljz39M+PHuicAT7SfpJxt+MvhpzynqqeImqGlV03gzr7m/Jbal+3TA6fZWl9ZTP1v+fPiMzpmqs0pnt5wjnis4N3U+9/xEm7Bt7ELyhcH2Fe0PL8ZcvNOxpKPrUuClK5d9L1/sZHSev+J65cxV56unr9GvNV93uN50w/7GqV/sfznV5dDVdNPxZsstp1ut3Yu6z/W491y47X378h3mneu9wb3ddyPv3uuL7+u/x7k3cj/t/qsHWQ8mH65/hHlU/FjucfkTjSfVv5r82tjv0H92wHvgxtPwpw8H2YMvfhP/9nmo4BnlWfmw9nDtiM3ImVHf0VvPlz4feiF8MTlW+Lv873teGr/86Q+PP26Mx4wPvRK9mnpd+kbtzeG3dm/bJ0InnrxLfzf5vviD2ocjH+kfOz9FfxqezP6M+1zxxeRL69fAr4+m0qemhCwRa0YKoBCHk5IAeH0Y0caxAFARXU5cOqutZwya/R6YIfCfeFZ/z5gDAEgpELkegGDED07LWWSV9QAgFPEIDwDb2kr9XyZOsrWZrUVqRqRJ+dTUG0Q74kwA+NI3NTXZPDX1pQZp9gEAbe9mNf2MhBlE9E02onfCH7ragH/arN7/y4z/XMF0B3bgn+ufsrMW0vq2WDwAAABsZVhJZk1NACoAAAAIAAQBGgAFAAAAAQAAAD4BGwAFAAAAAQAAAEYBKAADAAAAAQACAACHaQAEAAAAAQAAAE4AAAAAAAAAkAAAAAEAAACQAAAAAQACoAIABAAAAAEAAAFCoAMABAAAAAEAAABoAAAAAOak6VUAAAAJcEhZcwAAFiUAABYlAUlSJPAAAD5bSURBVHgB7d3XsyVV9QfwngBMAkQYgoLcMSHJhDnAgAHFbBlQf+pU+WCVvvjgk7z8yr/AF0sftKyfCooBxYQCymACJSmggKBc4pCRNIEw/Pqzz/1eetpzw+Aw53Bnb+jp0zusvdbae3332qH7Lnq8DU0NVQNVA1UDu7AGFu/CslfRqwaqBqoGigYqENaOUDVQNbDLa6AC4S7fBaoCqgaqBioQ1j5QNVA1sMtroALhLt8FqgKqBqoGKhDWPlA1UDWwy2ugAuEu3wWqAqoGqgYqENY+UDVQNbDLa6AC4S7fBaoCqgaqBpYuJBV0X5JZtGjRQhKtylI1UDXwFGpg7IHwscceawDc4sWLyzWTLrogOFOeGl81UDVQNTBMA2M/NebZ9UEQ6A0Dvu5b08PShymgxlUNVA1UDYy9RwgE+6EPcts+PzElFr+o/c//NVQNVA1UDcykgbEHQowDtEcffbRcjzzySGO6HE9xyZIljWu33XYrcTMJWuOrBqoGqgZm0sBYAyEAfPjhh5sHHnigueuuu5o777yzuf/++5vNmzc3K1asaPbaa69mzz33bPbZZ59mv/32a3bffff/9ACrNzhT29f4qoGqgSkNjCUQ8v6WLl3aPPTQQ81VV13VXHHFFc3f/va35h//+EcBRGAIBA888MBm9erVzQtf+MLmuOOOa1784hdPryeaUted49rPqwaqBuajgUWt1zV2H2bdunVrc8MNNzS/+c1vmt///vfNtdde29x2223N3Xff3ZgaA0pT4WXLlpWLN3j00Uc3xx57bPOud72rOeCAA+Yje81TNVA1UDVQNDB2HqGp8I033tj86le/Ktc111zT/Pvf/262bNlSAJCnt3z58uL5AUTe4aZNm8r0+ZZbbinP73nPe5rnPOc5BSxrO1cNVA1UDcylgbECQsB2xx13NH/4wx+aM888s5mcnCxeIBDsOq6Z9orjPW7cuLGsJYo//fTTm7333rt5+9vf3hx00EH/uWY4l0ZqetVA1cAup4GxAkKenbXAM844o6wL8g6BILBbuXJl8+xnP7s59NBDmz322KOA34YNG5qbbrqpuffee0ueBx98sHGde+65zZqJNWUThfeoPJCsoWqgaqBqYJgGxgoI77nnnuaiiy5qfv3rX5dprd1hGx42RI466qiyBviqV72qWbVqVdk0ufzyy8s64sUXX1wA0M4yL9DzS17ykua5z3tuAc6uNzlMCTWuaqBqYNfWwNgAIa/NhsjVV19djsfYNRbneMwb3vCG5qMf/Wjz6le/ukx7bZRs3fp488pXvrJ57nOfW7zF8847r6wPAlPnDC+55JLmZS97WQFGHmQNVQNVA1UDM2lg5EAItByINg222WFzJAemMX3kkUc2xx9/fHPMMceUs4IR5PHHt5bnk046qZS1y3zdddcVWvLYcLn++usLWFYgjNbqvWqgamCYBka+cMbrExyLue+++8rmCG/Qxok0U90XvOAF5cygfOKTBjB5hxMTE83zn//8sm5oF9nBamuLziHKK9TpcVFD/adqoGpgiAZGDoThCXABQkdlgBaQczkruGL5imQra4aA0uYHkFuyeEnZFLGOyPMDjNIBa3+3eZrIkB/q4pUC39S/TbaxO225DXf1oWqgauC/0MDIgdBmSLw1npxX5zy7pAG0TZs3TXt22f2VVtIffaScIQSgQAwNZf0GbsoL8s4W8s5y6HpOKPw0w794kzz1XjVQNfD01cDYACFPjld3yCGHFG3mQwreL7755puLp8gDBEoATpDH9Nf6oDVBz9JcNllcgNPGCmCcLaANNB2/8W7zxo2byjNa6kwooNg+d+OSVu9VA1UDT08NjHyzBFABFZ6cV+OcE7Tjm+mvQ9V//vOfS7wjMabKAuByvMbrd47LOE8ICMUDPWcOJ9q1Q2DYrhCWuHiThYDYtl7TZ6/u3XrrreUOBE2R8bPvvvuWtUnrlOignzCXh5l89V41UDUw/hoYORACFIAE+ABPDkzzEIEab/Css84qXp4D14cddlg5R+iozT//+c9y5tDrePLJ70MMgPB5z3te+RgDAGvJt3EDgBwAr82Zh8tB7H/961/NX//61+a3v/1t+cCDKbY3VfDjNT1HcLyl8qIXvagAtal7FxDHv4krh1UDVQNzaWCkH13I9NLdB1Q3btrY/OlPf2q+8IUvFGBzQDobH6atPq7wxje+sYAc8HKg2lslgAkNQCnPs571rOaUU05p3vnOd5Y1x6wX8vS8oYKWr9r88pe/bH7+85+XYzc8QiDp9TzTYZ5hAFp5R3jWrVvXrF27tjnowIOaJUuf8A7nUjKvE+DzMmcK0YX07m/PWbf0ux/Igu+A83TZFvzbCXzJLp1MGXREivM8W0CL7NHvbPnlcykjn3aroWrg6aKBJf/bhlEzWwystUnGyRNkTF61yzSVIXpVjjHzAoGgKbOpcYycNwgEvXXy6U9/unnLW95SPMwAA8MMEF1y8SXN/33z/5of//jHZUqtrHS0Yvz4AJo+98XAeYqm0PKt3n91AczZgIFO0UVTmQDVMF2r04XeTJdykcXv1D3fsvhQxj2/0RG6dD2HdvKTnyxdGQBw9zl5xaFfQ9XA00kDYzVsAwzrhG9+85vLR1h/9rOfFaBiiAwNEDLIeEExaKBl7dBGiy/PAEEbLwldwzSF/slPftKcf/75pQ400QMG6Lhi4NLymh8eALA4eT784Q8XcE4dw+7kmVeY2osJIAWIumWTljjP8s2nDvLhWUi50HFHp0vfb/Iq5yJz1k2zVhp68gnd8p6jQ79rqBoYdw3M01J3nhjOAlrfe//73188OFNlO8JenbNDzAAZXbxBniJP0KFr02bfI5xoN0nyNkkXVICobxxecOEF5XU+Rs7AxQNO9ZpWq4M3evvttzc+7KBu9cnrI7E2Yl73uteVOrv0+1pyLtKOtqkxYOBhWgd1x3cJnSms5wBQF1iUDfAMCj3htUUXdGMwkK8L/NKteT7jGc9oNm/a3GzeMvCiecd0NIx//JLdmzpZewWGQNAarsPr+++/f2FFvfTDY6YfNH0x3IAWDzw813vVwLhqYKRAOMwIKQpQ+No0sLA5cuUVVzaXX3F5mS6bngILxm49zyaGDQ07yt49BogBwa7SlbHB4oMOk+20mtECN2B48MEHly9cv+Y1rynvLivPuE3DAZ/3mJUV780Va5MA2mZKdrG7dfmtvmuu+UfrfZ5Z1jHxayPHRyNe/vKXN8v2WNYsWtyek2zPQQZMrHECGqBjzdJRHuUAvZ1r4Gzd9JnPfGYBG/nslnuVkM7wIk387rvt3qzac1UBYe9v+2iF5QY6lwdNoByAFa8cQAOAduovu+yyQjvykP+II45o3v3udxd9AWh64l1bc6VPfJDhQx/6UKE9Uxv39VWfqwZGqYGRAuFMgjN+IMh4GRWg++Mf/1g8Nx4dT8PaHbBklDYygEzAIHTjVbnz+oAag33g/gdKFkYKEEylTz755FIfzwk48IqAjI86TLbAaVMGUCgDFH052xQeQA0LgHBy8vqy4y2/ADitYQLCx7a271gvGhz34X0BHSBHHh6Vd66Bvvp4oHQin2810gfZnbGkF99wFAdQySoeaAF44Ll+/fpC0+YQWsrSFXnImoHF4EA/P/3pT8unzICx8vLgQzoeDz/88PIhDEAIOPHkAuTahsdIjj333KstN0w7Na5qYLw0MJZAGBUxftMxXh5vgxfGeK2LuRikKSrAFBhrN3gOGAJCHhGwWLxkcbPH0j2KRwkU3vve95Yv2wCHrIkFSIDAa1/72gJCgBFPaDl2A+AAcL9ePKhXXYCEZycA121COy1GD5gAW94msDPtTBngY3qKD/R4owYBIOeTZZ4NBP5UgYAGEFUXWUyL0cSzeoAxnZIv+gkQ4hVNgIkGHZMDwNGNwQm/ntFWHn/qcimvHoPLIH0baetD1cDYamDst/cYHi+DJxXjNQVkoDwSgTEyQCDJqF3SXdOh/Qlc5AWqLuWBjj/+xNDFARwAwMgz1QSEATzx6gIu1gDRmynIBxByecYTGi7HWwCXNVC88QR5huia9jvbCPzx4Zk35ms8nk1JeaniLQlYkzPlJQeg8oeueIvAv6s7dUnDf8CMvII0U2Lp+EOHfJkCxytWjq7FK5uLbCkjvYaqgaeLBsbaI6TEGBQjc5iZ0fFyGLw0Bgsokw8IFpCZApw0BNBRDtgxZAaeKR+a4hh2gCp39Zgu20QBNGig3wXM1NG/y4M3l4C+oHx49GaMN2msRzqfeM+qe8r6INDzHUZrpADyL3/5S3P22Wc3E+1GEE80YL9s2fIyFeblCeSjJ16yXXRAe84555T68P+KV7yiACcA5eF15caLT6GRHe8GIfl5zLxy4IsvU19eqbLdi0z0ZcBStoaqgaeLBsYSCOPVAbfbNtzW3HLrLc2VV15ZpmsMj2cFVICDv21iLYtHBKyAVkBB+YCPBkFXAEzieVbuLmAIALpeG2NGAwAAlEwJuwDapV+Id/4J4LkLAb/Eqw/wrFmzpqxT4oEHRx5gktcEH3t0sByQN1yykwsUeXbf/OY3m9e//vVFruxKk41OgB0e1cXTtBFCR8rycskS3shH3sinHDA29ZZfmjxoC9Lj9aKfekLv8fYd70VLBrKXAvWfqoEx1cBYAiGvhtdjN9T0zq4n4/cMLBgkj068dSkeFaP3BWtTRzubPJYYOXpAQGCsgEgaYAREk+36HK+LNwP84m0xeuVssjhGEwDGAzANkAKBgN1s7Sxf8gYUeXx44r1JA2RkswnDa8MX8Lc7nt1eeQGg+q0VAjvAyRPcq92gcJeGlvJvetObSlmARm5TZXKiKwT46JXs+HGRUV10S599Ly8y4DshMpb71JstSav3qoFx1cBYASEjNPUEThbseXzWyDIVBESMlkG6AJxzejYxxNvAsN5nF/ilL31p8aiUMeWzG8rbUiYAwPBNSdWFnukfkEBLOZ6ZzQgbCH4zbgABaOxmAyphPiCYDtAFDXE2fITQAIzWCwO2wAifpqOAOiDJ66Uv6dK6U3b850KbVwcYTzj+hObRxwbetHLqUC/6ApldoUvObJCUDNvxT1/O7Shas1YN7HQNjBUQ2hW1UO9oymmnnVYW7+10MlYeD+MGYkCLIceIgYNdSxsN3v6wjuVIiXUyAPG73/2ufKGG5yhvDB4dnt4vfvGLQtd6mOkoMMTLFZdf0aw/f33z97//vUyNgSDQ4GXxPu2Obk8oXlLHe1KWTALwEfDE+1JXAsDKdD+AiUdyyA/kPKMRsE5Z1QWw6XBYoJPw5o6OK2Aauv2y7UrnNIBLC2/u+d0vU5+rBsZRA2MDhAAGKPmSzHe+850yDRYH8Bgno+edACFxAs/J+h0vTxpAMJV1pk28aTUgNbV1D5iih7YLDZ4kMPQ5L1NS9OXnaU6202b0AQ7jBg7OFjq2E3Aa1rBdYPFbcO+DChASB1SW7jZoDiAoDn9+qzshYBb69BJ9iJNfnPW5lmQJAdvQ6N+XLvW2ztbiIQLd1IeW5xlDSz+gN9N9xrI1oWpgjDQwSy9/6rlk7IwOGAAuntt3v/vdAmYM3hqdNMFGiLcynIOzLibemqGpK4/N0Q5TR0bPa+QZ8gAZKKBwifesTvkAh2cbIabjNhIKKLVxAEAePIgDsoDBVPaEE04o09GUn6+m5EfLXQgv6IpzAT/xwjQIyd7bc5AHf+iRyz0gOV2uUJn7n0F1Ay8O3Vz4cuV5GKWkzXQfVmZHxJFXSL19mtFx8vTT63PVQFcDIwVCgJQOC9Cs1VnzE8+4GaEdTgB44oknlrcnTEcBnnL33nNv2VEGesryBK1rmdYyFHQEXp+/beIIzXHHHTf9Vob1R2fn7J4K6gN8jAuouPP6gK4LCDpKghfTTelCZMhz4sTnShy+huXvlpV3voGMkXO+Zfr5gC+e3HN5xmv4Dc/9suJnu+Yr10z0u/WhJV/4JXeXfpeG30lLfJ67NOvvqgEaGCkQYkDn5A1eeumlxbtLZ9XZeX5eY3vrW99awMvh5+501K7owYcc3KxZs6bk9cyrZLzWBt15R9bPbEI4GA3EnNf7933/LjvMP/zhD8vRHMYCfNUbj8pvAejhwfcNc7gaaJYwcO4GPzvGN0jc9l915JJC1hjptjl7Tz1vsJf6HzTaatrQYaxXIDouudrMATv3/u/EuU/LPEUP7930Yb+HgbR8fbnDU+49lkt+5YQA4Ex5ZxG9T7Y+Vw0UDYwUCHVsndrOrR3dvFuLMxsGdjt5YN6c4Bn2jSogxwvkJSpjh9mZQ7QZiimtXdUPfvCDhZ6d4UyfeYITExNlc8ZxFEd0eI+CNUd1yuPoCq/Ua2zDPMFSIP8MmcYmKfcZDTgZtuPOgwX6PNYsAbj3dRWS6u7WHzDLnd4MAC6/+1fo5F4AbQpzuzRSLvm697KG2YJol5f87vLWLYO2AVO6dndpxywHdPPW31UD26uBkQKhTm2313lAU1QGwgAZsk0Ln9XyVRnn52YLjJ63aNeXBzk5eUMBtIABes7DTbSgBzAZKUPiSeYjBHaZHZF58IEHywcRGJh6AaF1SZs0DE9QnmG6uobb/T2M3wBFaOCPlwXIDAKurGOiJR0YO8cH7OkH30BPGTxbSnD50AL+8MyTxjcP2eAgP9nomn4NDj47hi5ZpNutR8eygjzqsklkHRYd5fFEl8pqH89zXeiTw92ZT3QC3GQhP9ksefDc8ZZ+IB/wM0g5CYAXMoT/tOnq1fu3vG4qg6AyaRf0fFotPA5rkxpXNUADIwdCu7OT7c5sRntGGJA64vAjChDMp6l0dtNmGxm+nnL33XcVgwAsaPMUBUbpUg+DAXjOHrqEYSCHtiC/kOfyMPXPsLikp5x7LuDDoNUHgKxvOv4TEMAX0OaJHnvssQUs5OUBGjSsqeZrOjxqQKgsQOH18oIdLncBN3+SICAHJL2JIi9d8IJ9rRsPwBiP9KNt1rdfrkEfAKIPaHnqJ510Uilb5G7V4+6KfnPHc2iRz2fQ0AGKgJuHDawcRzIwCcDujtvvaK697tqy6UVOO/s8djIATiDo4LzBz0Uv+JeHbumPHj71qU8VPact6r1qYJgGRgqEGGIQRnzGGONhUNb0DnrWQeW7fcMY78YxXAan8/PwGCswBYLu6DI++bqh/4yGuH58t0z3dwGBbkTvdzcdTd4PQFGPNPfJdhDwDvHpp59ewM2UnFdDDjoAZPFEyeJwODA588dnNldceUUBBrSBJgAABPR5wQUXFGDhVUv/+te/Xu7qN9Xn1WXJAbj4pqAD7BmIlNE2NpR8iIFupeWd67e97W3TMsgb3VGB51ziAaqjSc6G2tQCZOo0EJCPx2kzKwODgev3f/h9+RQY8CRP14sElGgCaMsggJLn7CMVPFt5AawBxJfE8d5ti14z1ceqgdF6hIyFcTEKRgwogJaOy2spGyMDZ2zWptLJlUUj00N3QOguDRCOInQNkLye8URGU1ubNUBwsgVEMuPVlM6mjo+b8nqAI1l4gs47ApOrrr5q2vNBl+wuIIMGvQJNU1F1AVFAA0Tk6+qDNyW/eqV7TjukLN0pbzoNdNBQD75SNxpky6VOU1oH5MkJbAGxeN4o2XyJHKgCZgE9Z0lPPfXUAnD4VK8pPr6EtLffvGneonRnSPGkDheAxRP91FA1MJsGRuoR8hZ4MoyXcTAogUFanzKyW5vrgslMwqCl87cTtJKFAQjoxiMsETvxny7fMUZx5HRm8fvf/375+ykMmbx4Bgg2iPztFR9bBYLAiXd24YUXNv6Oi9cFA0DoWhO0kcMTJitvKe9QWxIATEJAofDSwQZllAV6PHO0A4BbH2v1umIALPSrvQCT30BHPs/uymmzXIDLoXZLFbxNMirjfswxxzTve9/7yi48EBPohedomj7ZDgzyAkL06MXxJR5pvGYH8A0OpvO8RvVrb/Lhk7z4rKFqYC4NjBQIdXQdl6HqtAwHoOnUPBkHnVfvt7rZbfdt/w7HMKEADAPwNzkYRozAnccpMHjP6nX1Qzc9IMa45MWXe+rply3g0on0LG/oSELfBaR4SKa4+dgr75e3ZY3TdM6apQFBwIMpoDI+/w+s8KOMD8tar/PVa7TFkdfGAk/MtJvnKY1+6Zoc3mLBIzrAxa46QDIVxp88wORtJ76tOexFh5XfeDHlPPqoowsd5bWfS34hPDjgbkoNBB2NMt0FatJtaPmCtbVGniE6ZOQ9fu973ytA7ze65LEeaJrrTynw8gCvwQGfANaRqbw+qUzaCF1XDVUDc2lgpECIOR3dehivkMHyLBiM9R9gyAh232OwUC+/jj4s6PxALtNBvxkBg2E46igeY5svIR6EO0AAvA9vad+7bf9Tj/wugDQNaK1ddY1rOj5EO/ekxSB5PDwdrxCa/vFoBPwBI8bOE7TRES9JOg+PwTs4vqUFemBCT8CPV+WQuF1c9dAj/dl44OWR36fK1MGrlEd5l0Bu8qEBWOzgG4gAG9B79WteXTZWTIfLZ7Xav7MS3qLj0EE7QGS9zlTYWz+mrPjA89q1a5tPfvKTxbuz048P/PISebrAW97o3+uMznC66MXfYvG3XpSRRk7gaHCwPipoz+jcs981VA3MpoHhqDJbiR2cxnB5P4Dg5ptuLsDDCAGhUR6ATUxMTHscM1XPMKwXnXHGGWUHVednqII6AJo85R3cFgOkAwYgY3plenr7bbc3D218qOTDA5DmsZjGmX6GTryfmXgZFq8+nqqdTd6ReoGAOhzPsYsLBHl44lMHGXhHQAJAARMBAPi8lstgAeiAmsDrM32UFygYUABSyuIllzLqMvUEdvJ4DhBZmgBYwKaA5xSmKIe3/kXHAAn4mv4DKAMCOoAbCNohxl9AEA35bHqQUVA/3djYedMJbyqbKvSPb3UDRDSAtXgDIE/YYIYHdWYgKgTx/cQYWKLqP1UD0cDIgVBndczB5VC1ZwbCIEzreCtrWy9iogVDHZ4RFIOMBO09npa/V2w39cGHHpw2dKDAOKxVMXRHNRg9owEupoKmbrwtca54igyN9+M7fqZxjvMcOnFoMWrVB0z83sboREyFxMtruggAGSoDJgeANR1+xzveUQAXAACGlMMLj4r3yGsCVNINHoAlIKi6vl7I6U0YwERGYKls+M5dueg9vz2rG6/06/duS9u1xikw8bHYlFd3fpt+G1QMLmipj96B3yc+8YkyLSZjgF5ZdRgktIF60XIHwEcecWTxBJURwmczNZjRB8/QtDltmHzyhh4vv30qNOo/VQN9DYwUCBkYT01Htu6U7/4BO8Zgc4AhefaNQUbv9SlTZR1cGgPlCdpEcETkvvvvKwaINmOTzjPJtA/oWHQ3DfcX8UzheEzq4JXiRzkAigebDd/4xjcKbzYxrMcBFJeAj5lC0gISntENEKjTERlA6+B4jL0PEsCZxxQgk89UmLeavHSR3+EHfUDOqwI2QENZPISPyCkNcNEX3Qlo4h1dvPvTo/RvfVF++QKcuatTXZ4F9E1prQvSvXLdgB90tIezkdLVSVblDj/i8GavvQeHwrWNgBf1uAR1AFrtCVCBcQ1VA9ujgZECYTo2Y117/NrmpptvKl+fsUvICKXz5HRuXgYPiCfEm9L5xV937XXN+b89vxwryQ4pQ+JJosEo5WXMQA+4omNabDqlDtO2eGumXA8/8nAxJsaIFk8U2P7oRz8qRohfRipInw7tT56HID5XnvHiUidgAwK8NRsmdn3Vx7gDIn7zAqd5a8sBDZsqvKUBMPpu4OCDEaXizj/o4J0u8AIg1B2AljW/6Sp140s8valDeXdBHrTcBfm6NNBRPjJY79NOBiJerUGvH+RFQxvJ7ze+eZLWOfHs6gZlUod13SwFBLTD1/S9eoNd9dXfPQ2MFAi7vFgnM6pf9OeLmosuvqgYA2NjEADOURO7rECM18DgeBEAkoHFgBgpQ2TEjEiwxsarUgbIWnuUT5zA0LPeBOSUBVSm5+iqj9ExZuf45F23bl0BZIZn3TEAWAjO8g865ArYWLtzLhAY2yyxU5s8yKCPHxf+hTJNbZ8HALWth1UydP4Z8D8AWKCAhvIBZb/xIj5x7vTTfQ7wIT0NLlMgmGc8pm0ANprigL03W4CpNULnJZVJkGcA6oPBD2BrG3rQ/nMFf55VXu1Cln6QVnGwr5X63NXAf/aabupO/K3DOzf30Y99tNn6+NZyXCTghg2GZa2MJxfD4y15lo8BABEGDDys6b346BeX4zQW4e26Ak5Gx6gZqXwxHF+z9nl/HsuK5SuaDbdtKFM1a128wYCHdUWAjFcbHGjgV+gat2e8JDBGi/+m3wCaF8jgbZx4C4T8vB67t4KyeAtISAvP5AXU7glAK7IkDg06ur9dLiAzGuIiv/tMF1m6acpF75Gz++w3XajDbx6ugUP7oEOHjv/w8iwxuAPNlPMbGPIeA8ra2/rufIK1V+BJD12+/VZHDVUDs2lgbICQwQMJ60gMigcBdAAGEBIHDBlKwEynj9fBkOSxywzQvK1g/U26XV9nzRxZ4V0yjBgH47OB4g0H+ay9oc8I0bEAb/3RNBoYoMeLO/fcc4t3GnCh5NCMwuV3JTB+daBrms1TYrxkymtsNjhM/wOC7upwqdsdAAJ17xf72yl9AEx9+FE/HbqTy108YHbvX+KHpSUutLv30AA66PNunUu0rEEuHrk2xMcPfvCDsjFmdxzf4Z1cyjm+ox0FHjkApS/tOyyoD23tGuClJ7xk8CqrFRULh6mvxk1pYORAqCMLjMnUxhTZhoQ1MFNYhsQ4GH06t7w6u46uvOmscnZgeWk+ow8EAY+8gM5GC+/rvPPOm15MZ9yAz3cGvdIGVACjIB5Nl6k30LJWB0x4OXhj4Lw8QT39gLeufLw+a4uOvJii+xo3mgIjtoZJBkdV3AU8mgJnYwQgAE8Hpm0C2W2Xnz6EAIvf6gYQAEk5tOjQfXuvYfKpoxvkUT9eveNMN3R12aWXNZvar8Oo27Eoh6zpGcCFX7rRZgYsvAl4N+h4J3rNmjWlvDpcA92ScfAuM49fG/GABTS0lftjW9tNn8cGryHSkzqjj277lIKdf+Yjcyd7/fk01sDIgbDf2XgGQMgBWtMra4IAAiBmPZC+dWgAwYsELqbBLz/m5WWdEYjGq5AXIKI1MTFRPCogxAAYo7LqAniMUTlp7oxleTtN5sXZZDH9YkRLlywtAAZYARaD68tRnp9wBku6sngGyieffHIBeLyUg9yttwsMeZp44h0BeIYMWICEw8bo4g2g2GWX1+YRnnnI0sILb8r6I/CPJ4me9NkuOuvnEzefQBcAEM+WJ+65+54C+vGo8cnbl4eM+FcXWX1px5slPH+DnMGPR27dmKdMNnLgXfu7LBH4MAMAzbQa4MqjfemcXrSVSxnx6rPpJE39kbcrI167odVaO+J1Y+rvhaKBkQPhTIoEQhMtcAFFmyhGfG9kfOtb3yrGoEMDKFMw3gejAjKubtCZXfJv2byleAy8BnHWFIFmjIwBxotAgzEtXbqkrBsCL4apnMX5BM8FVFoL6W+YeE566MnLoAHbZz7zmWLwzjLiyZT3mmuuKTICZcAAxPHneI31S+udjJs3CuAYdXTFmNHgMTJ6x0m++tWvljN96mf0vG48dPkZ9rsbl/yl0Cz/ACD1A7EA4nFrjytfAwf4pvOWHLSF9UJg5FU7njh5TZcdbaID+YGc2cCZPzmzWb5ieRnMlKE/9RiYLJ/4aAW9KFPauU2T7tKm+Oc98+zpiL60vT6TMEzGYXHJX+8LSwNjC4RRs05r5DYFdPfMEBiEDQ5gyHj6gVGW0A7q0wDVG811dAbLCIGL51yh51l6vItMx5M+2x0ICvEk8KQ8MAJKNlw+8pGPFIPn0eBFumm3s4vqNtU39eUZA3ybNzZZGDjj/tKXvlRA5fOf/3zxsuhmcnKyeIvoWJdTL/5d0j13L+DQffZb3d242eRMmjLoAyN3nipPHCABwJ/99GeFJtkBubeAyOw1QTvJ2tHgcMoppxQwVz95Aeill1zafOCDHyjLHOQA9ECQV+wgvgAI0Yt3hx9tsOHWDSU93iGvkkfq/W3gi9/wXjLWf3Y5DYw9EPKUdNJH2zcZGBegMJq7Czq+jiyf9FzSAkR+CwAIqAGRTIn85kExWvX0A2PkCTJcHojAELthuty2M6lulvJbPkdtgAJww483Ikzp8GMaSA7BVBxPK1asbN8OeU3Zafb2iWk0T5B3IzB6mwpf/OIXiy4CXmSnFwYPiAJO4p/sVSqc5R8AE7BVH17EARty0aEvy2QgAOSWPSZaz9+BeYOc6bQ1Ypsq9IIeWvc/cH/xlNOmdIm+9st0OWn6hvS0iz9qj471WGuW6jdzoDf9RfnoZBbxatIC1sBYAmE6N73rwDrvXXfdWbwAgJHAUHgLvEVGpDMDRqHfsRcvXlLWAdFDXzoPwjTM2lv+Ml08CjQApHU7oGQhnkEKeAAwpqyAKAHNBL+l4WvZ8sHn54vRtW/FpIw8PFtfWAZsvDfregyT14cvU+NVq1aWt0N4THa3BR6kvIweXdNIHg/+3V2mftZQAaq1QvnUCZQycKQu+fEVGYAIOcksr7vyCdKVCc2AknyAFx3pAhl5tAYSmzwu+ZQB/qbJGRQMEP/zsf8p7W69FFiqX1vQZQAOffyibdmC3PTBU5QXbYNGftOPOtDAlz7lGBP+5UUvwBkZ633X0cBYAmEMiOfEi2AMwMgUSOcHYO5AjHcEDCy6OzqjLCOLwWhKnXxJu65nXQ6AySOOgfmisWM14ngu1gx5CwxIfb6g4twgAwtfDMiUD0gFHNDrBvUDIB8flc+zDRngyWgZHxnwA+DUB9i9EwycyCAw2BtuuLGZaL0mwAZQlEfHJgEAZeR0wtuVBhzwSCd2ZtFCW53ADXDQlXwCuaThVxkyuWx48L7xg/9hMhpYrPEZkPCKlmdlBB6wc5bqsub58Y9/vEyJDUYJQF87qBsPPvuV6bKpr00y/QAP+MQbWcnoRAAZBX1ksl0WQE8bWkrBH50AZ590s4OMRzqhA0E7oFvDrquBsQRCHZNRWePKGhDQ40noxAFCO5EMW7z1QoeRARQjlI/huATGw3MEJKa6pknS3O1IA11rTjYkGD/gAzS8sqyzMSh05TGFY4zoDjMiMgAER3Oy2wxYGDuvRDpaAk/FJ+sBDTCWHi/M7332eUbJh18Gbl0UYMjrPWlTPPySOwAGdIGEXW26BDzqNGgAVGU9C/iQ7p1kgU7QwZdjK+SMHkuG9h+8igPIdAFc8YwHdQIggW5MTdVlkPGFnXjlJUP7T4CdrIK7AQRtdxsm2gCYATl1AEH1aFNykkt+R27UiWdAR+eeyUN30YM2zkBQKq3/7NIaWNR26G1dmRGrAzs6O3DyNRkemekpI8tal07PsBgio9Cpdfq1a9cWTwIY6vTyJB+6fp911lnNV77ylQKyaDKMGLkFe1NJNAEjkGFYDFVZNKR7M+Kzn/1sM9F6aUKMi7ElMD40AHXqDq/ypU755eWhuJNdOhldynsGfIAp/IpXxrN6gFfyZqeZDuRRvzwAL3kAhfeqeUh4UQdadNLVL9nV2+U3MopzmYIqpy7PwEedyqIloE8+PBgY/Bbkz2/8BgxLYvuPNjdwpQ700NXmAJ2s9CrQQWmLRe0gs9vSAoahF9m68uMJn3gogSVM/fQ8HV8SJbWJnfSp6AV1o49u6Ougm7aQfo8dEDIoh2i/9rWvleMfgEjn1SAuDeVZ0JH9ZkimmICMp/O5z32ueBI8D3lSVhne0be//e2yGM8DZFjSU0dAD03GI14cvtBy5vBT7V9G430CE0EaA5feDegKaAHSfogRugMRNAS/F7fG7OMPaLrQCH31eQ5AKQ9ABaAgX+oukVP/RFfS5MGTusQHMJJfvDxoC7kn3R1I4SEBT97iyPEiuvW5LmukgnrUOUwXSceb9C7/eHHhgY4AEgCPXuWN7kJH2m4+4to2Qb9edEI/NJQr/PsxFZJn+nkMgZAsrpl0Gt7d5RP6colLmt/dMCxvN32h/F7yv20YF2H8fYzrJ6+fBirrQgwgHVSj+O3u0ngxEjIAAZ9yMm3ymhrPpJvXbwZv2qjj8DRNucSZtgGYdAh3AAjsxKvHa3vr1q0rH0fgvSQwwn5HVFcCWi5x+Aew1s6WLB0Ap/hu+fzug5V6lJeOZ+XQjX6AkrRu3eEBGAhodIFSfnHoCCkbHjwnLr9zV6+yCeIdVUr+8BLZ85z0lJO+DdC1dNAWn7LK4Lvw3n6hOnx7VlZ66EobyDiooZsmBpD6v/xuy5VAfNFTdEJrkDj4t1su8eEvz+7iumFYuW769vymly5v+pJBUDuQe6aApwzs8mZwEP/oI60z0a7jRvaZaCS+W3/inu73J3rxCCXRGC4fOjjnnHPKIWCdGwDx6hi9Kanv9lkYB3SmSxbHTaGdNdPINg6s+3iFy5oVYLBgroOEFi/FdMr01hqTtxysQ1pnlEe6zqZMprLqtFvrTN/ExMT0+td8VZYOqvPhM54k7ykGORstujG1tWa5cuWqdi3vsGLo4nXKAMRsNPAQwOjmIyuerLvawcWbdTke9lxBuwgMER0Dhyt8AQC8zRVs9tjxtTPv9Ug8RGdzlZWuznEJ2ng+Mj9ZfqMXb+xwGjgLTh3MFTLQRFfa68ILLmwu/NOFZW3Va4zWr3fVMHIgZDQ6j8un8u3U2kFlDNbFpNsIec973tueNXtzWReyNgQYAJTG81l4h2PltZZkygbclOPpCdI0fkbOAw84sHh2PEdTcdNkxmh3VXnn9w499Dllp9nmCNAEwNamul5Qt+MMGynVqfMCC6/FWXe0MVJ2LKeckS6NmX4rb8OIl7t69cDTxQdQH8aPjk+nAsAqQNhOUxOkAX4yxxv2dgbd2nyYDxCiRa8GjDINbuvsAmHxsPzTAj5PcaaAD965zS9LGwa/GPxMZcRrJyBOPjyMImQApk+DJH3sjGCJR3+yW+9g/lwBf/pEQNoGm7+Lre/gO+u6fTrD+nQ/z0J4HjkQUqJG0qHuuvuuZrI9/kD5vDnGxRO0HnfiiW8toMRAXBqU0TICIGEBHsgwKmk6CSO3cYKWOJ00HYF9MnZGx2sEqkBQBwNegBh959oAcvjE2/Z0DjKo11qnz23xYHVIHS8eVSE+j3/QoidyGgjwBQB4weyvZa0E9OlBHoMKHQJwMqOBf8sQvAkfZPDGCh0pk/R5sFPkoiuAxCvXjnaei47hwRQ/5T4LPtAPnoEo3qyPCuJn07VBD4AedOBBzf4H7D9r3kLwKfiHzgwg0TM97oxgHZbOhg2Cw+oHfNppv333a1btOdhE09ZONpg96R9z6XsY3YUSN1Ig1JA6OsNhRAzT9CjPAE5Dec+WMRcjMcVrPRsfPrAzyCP0dzl0RlNj4MKggMAT3t3gFTqN1m3s/AYoLh0iPKWDyRPvJEaZcvPpBOiQ47YNt02DMw8U8NrcCc0uLeAiHi+ATwfWaQMU0gB4PCf5N29q38Bp187kUS6Hl+khnixayrrIgDcG4EJDOXdtoU75AK24AKS2oQ/TXn861TMwcP5RXdZfAbMy1kGVE+Rbsrgt2xpw9EcveNq0cfAH5VMXOQQ0EpQHNmlfPBoQLBcsPmZxs88z9ynykMGlDmWiM3VlAHUHtqGP/+hDfunS0EGDLsRJM4Dgme6kKYcnd3nc8RZdKqOv8ojlF0Iv5dWVOtFN+0QO9NAVr83dlaUvlxA9p4x4ZQT5HUF64P4HmqOOPqrZY9mAX3nxLi8eA650FT10+bGWaANPKH2v1WE2rdQRXvQ9dJctc9qgZB/7f0YKhBqY8ihdowCuO++4szRcjJ9H5nyYfPLoANlkoF2em2mrS2OUjtd2Jh1Dg7rrZEI6Ru7JXxLbf+Tr5+2WS0cGAvMJ4ZehWf/UqYD6TTfeVDxEHml30yU0GQajN4q7o+NoCA8IaClHL2RHU5oBhFx0Jf2O29v3c6fAyfQfOMlDH8qol04nJiYKrbvvGnwQFS3rpTwbfBxy8CHlb4bkLKJyro2bBh9R2PeZ+5b1RYbGA+e98wqtORrYuh42QMY3eRgLb04+ba3eBx8YfGxWv1i69AlAKmDZtqWNLQboQxxomErzstHU/vSjPml0oz4yinPOUnvTjXjp1ibR1D4BFumWG/SDGyZvKB970AZ0pow+hRY9G8iUww+A9Fua6SoeyKEM7x9N7WOwlo4vgY7p00AvPxr4jI7kJb/80tP22lEeae54zMAvLztQn3q1paUf7e/v/Rj08WkgAVj416/QMnNxVwYNyyboaS+8aC8ycVDUiY78y/ZY1uz9jL0LL9pVO+UcJ3nGPYwUCDWCEGDSKXy3TiNrGJ1OmgahWJ2kH3RYdJJPp9ZpdRq/0ZotpO5+nh3RePglk44B1HhL3m459dRTm8nWyHigjKAflLH77UC5TqjzAxmdlAEyYEavkzMy01KAQA9HHXlU+YNH/oiVNUWbSjxmnd9XbhiipQDgSK+m6jqseuiScVx88cXlNwCxPgrcGBlDUL81REYF/Kx3hh91eUOEUZPZ5gvDYSjqIrvNEHS9rUMndKSt7rnn3rbOJ7xg+Re3HqR0dK35oolPNNzJDQy9eeLtHK8dyqPvAGP14TvHpPCBf5tBjN8bS86qiivg3vKqn1lOAQDfPvXbpc3wkP4FtOkIEPiupAEGHaAwsWai/MaHZRVyaUs6Ou7Y48rf5PEWE9DXpkCE7hzyt3k3kHkwaCs72S4T+YKQ+rWD/PjAv3r1b0EfpyPLHNINDJ7J6/C9sgY66+/4ohfplo+0j8EMDW166aWXtfnXFLp4N3NRRlvrK/RuFmYw0b76aeoEyJGBjNpE3yMrmxznMPN++07kGugwYgqnYA1A4ZRnJNIBdIwEik/QgIybUaAjTV5lM6rJi+bODnjLqEmeeK42BK5sF6rJ1ecL/wCCwbgzWIDJGDyTiU4YH4METqbaBg0ARIeMmh4BnLKAT7qOy3h4MvIB0wAMmrwjPCkLSIAB8PzLX/5ajAbgAGMdXlmGajqc9lMOv+KUwxue4q0xGuVsbHk1UmBUgOuWW24ucqHFcOKZAx6DAOAEGoCfR6K/kMObJe70y1jxCMzWrFlTaKxfv77IBLjwxkCBJ1mdGBBsqkmXhjcyAmt/n0ZAH3BIUzee8zqffNqCbulQP/QbP/SuHsBoRgCIyE2vBiIDmfLykBOIJOg79AfE9RHtCND0J3yQk66UeeThR5rTTjut8AEEDbh0qg0sHWj7PfcavBsP9OnQpZ/QycpVKwvP3qLas10/NBBoM8AIXA1ubEyd2pNu9QF6JDOa5FVen9Tv5LdcRafjDoJ0PlKY1sAuitIoGttopWNkdNEYOppRU4fU+IwZIAANHgDPyfcKA4BGQp1MfndBXmV3ZiCbjqHz65DAh3HooECNTDoc40og99VXXV304ViEEV0nIwc96dQARz70gQZvb31r8Dr/xMREkZV+dEh5GRBDVl46HaMnjkdAL+rQodEyiuPTiM7gN2y4tcTjMd6f+pUFbNoNPbyRRx5tRkZ1ADVGI79jGoDCEsEJ7Z9lAEAANZ5fADD6wHMGAx5MZNdf6FMbu9KHbAb4fiWD5dl6Mwl/DBLoAGl1+s3b+vKXvzz9ip7+A6z0H/ToCUiqHwDRKf3RKw+cnHSnHcgePUrnNSuHHlAwwABY3px3rtM3ARkQpM8EfdWzNLw6tqUt9Ht1AhhyaFd6s0xBvw77azv9SXuq128Dg34CfNEhm2e84NMJCrpFi5crH1mAsUFWH0ZDm9EtIKcPg5G82pR+lZHHQK/9t7R/XTBeK53iaVzDSIGQ4tLx3Y1SGkYnS9CYXosTfKpJugbT8TTe+hYAdGjPOo80HVaDyzsy5bdOK36AOkAwSgM1BqwDG2kBgE6GT7oQdNKHNj5UQIk+yCLN3XSoG8SLC10AS1fq1XEZkt8u+mXoDAMP9EJXOrQgHZC68OBZXnUopyOjg6by0uVTj4tRoOmOJmPOFFM8z02ZA1qjY8QMCOgq686TAU7k7BoNHgEL0HRf37Y3Hhgkun6jK59rxcoVRQbx6KjLBxzQxxPjpjP9hTejPkH+Qq9dm/RbkAYwxPsNeJVVD52ghQ4gjA7c5ZOfnuhPHnW7AxG8oCtdPuXpPUFeceSSR1obVQYbtHmAAWFtQOfAVF66FOcuoIMHPKsLLfLJI+y+e7upsXywASMO/egSDWUEvJBdn3CpD215yewuD9qeI0/6Hx2OcxgpEFKMRtLwAo+ElwTYjKCUyDiMgBbeTeOMjho8UyxppiM6pYbRcDpapkwaR1DPzgx2CRmiqY2pBFDgYegk5GXUpmYA0m98i9fBxPEkbFrojOQyreRJOVROVnK56IFueGTkNoKbUqGpc0a35NdJ1cNwpCWgLx+PxcjuztDdGa9OjA90Abu7K94kOtoKHYER8CjdeUXq1J7qMPXiNV7196umvUhTX/LhEZ3wjBaPInzQH8+HvDxNQRmgQq9+44He0dCf6F0ar1Ac8CM/3g477EVl2keP0vBxa+v97rvfvqXeh1vAEeiNDgBFeIxhK4dn+lK3tpEGLNQjvzz0rbzB2xRTO2tffVfbKZc2kV8gu0FU/gCyZ9Pc/ZfvX/QvL7poWA/lOMirnQyybAV/Xb0qoz73Fe2Xv+mHjPqS5QXtpW68yUNXkd0zPsmVAcszmekL3ehInYIy4x5GDoRdBWlMQOhrJmefffb0aGv0s/DPCKyPaChGqOGN+DpgOqtRy/TAIi+PStAQ893p7fLz3/xWJ6NjxD6+apqrUzIOnYoMPkpKtky7dCBGyWPkOZAZMOmok633SE468gyYGBs90AsD0CEBkDzqUQc+YrTSjPh0pS50TNFSb3eAwQdjosOJdjoIVIAPQ/adQHyZptK3vOpigGgxHFNKYE4GPDAQAC+f6RPQsfjOyBkgYFWPvOglMDbAp93JRBb1rlq5qtm8ZHPRAx7oNJ6Y8vgAfjZ66Iee6I/MPHBT53e846TCA3ART16BHujSwXV0vbNMNuAQXe2/evC5Nh6VetEW5Ncu0TladOiuXU0ZraVpX/XSqbYkdz+IwzfZ9RE6pHd6MsDgFwCrywAJuDgR2hnt9DOy6BPyha/FiwfncLWV+g0YaJuN6bdkpXeDuEGVnWX2EIAjE1kj837tAJK+Ja1bP/1027Uv66ifx+pdY4rS2SnR2qDG0NAuncIFWHQejaRjuChZR+URWZ/w+XvrFhpfUE4H3lGhgOoc5NQJqHUePDE8POiU5AQI7tZnMgXGn3RGCXiAA09KIIvOyogBgQ5IXrpSByMQry7LAujrsDo5AAIogt9o4SU6MU0Vh6b8AmOgW+tZQDxTJp4M3TMgaQxFm4mXhyeubuCEhry8es/WpNSPZ3nIhndpE61x26ChJ3zEaNzJwbsB9soCUnpgdIzNOhp6+AXsgEB/QMexjhtvurEYOe9WGnnVIy+QxDu9499GCD7oQRwvVJ0CmbUVMMGTvPLhEV1AJ+AFUMmnTu105BFHtu7r4HVEMiuffkn3HAD1CeLxpP0BmnrlB1Tq8SYJmZ2FtNFBp/Snv8mjXckujp544HRFPgBM33imO/KgKQ++6RgN/YV+8OUuSJc3YMru0JOOnnrpgLyCPpz2jKwlYQz/GenXZyinG3TkgB9vyZ+7tAliQ0Tn0Zg6OKAAjrwpZTxTOENbt25d8QI0tqCOHd0I8wVCnVndgCIG7dlvd+m7WZPafbAm1R81yQZE5NP5yO5NNWfBMjjozMoxFHHyiVOGETIu5dRHh9LoMR1XmfxGx6Vel0O2DjczKvGMQ34Ha63F6fhoCQ50b3l4SzFadahPmXhR8uFFXQkMTkBfUE69ZOjmC0/koUt0XJGZgeJFWfX6LV0gszh5xSvv8lucMnhUt3h38WRVLiDoGU/S6ZYeAJTfRVdtPL7Rxa+y8uNZXnE29QC69U1twiu2I6ucP2KFnqB+HphzoPq/j30AG/H6Op4iP/qe0U/7oKHuyOu3smmL6FscPskk+E0egxedRlfi0ZfPb3WjKa/f4nmu5Cxt57D644P1w/QP5fAzrmGkQDiTUijNdEnHcYzE3XqK0TFGLF0DGHWMQkauD3zgA+WMmUajdBdaOzrMFwjVO1MHGFmnaNVh/bIbhumoz183Tz+t+9zNF/m7dfndzd9P6z4nX2jmOXkS795Pm6uNumXzG110Qiv31Ofezet5WB7x3aAM79i009SV184L5H0BD8DIywt467/p/9bF9es1reed9C7tmX6r09WVZ6a8OyK+q5dp+2td4KKfFv/Cy46o66mgMVZrhBGQ8kw5TIF0gMl2fSybB7yIKNVU0LTA9MV0ECgKXsHzutD2dJzUXe87VgPzAYqZauwa10x5nmw8vtKP+jz2n59sHSnH8+JBAUCeEy/V8g6PyyCuD3f7qvoN+PqzaTzvDI1untCezz1yzifvjshD1oQy6G477iZprO5j6RFGQxlZTIGtJ5kmuseV10GMrNY+TDV0II3Qbfinwpjaca51BcLl8Ptc9e5oYxvOxZDYIR7hkFzbFdWVZS65t4twL3O3Hkmz1TWfNgp5dPq0k9a/9+ucTzll0pd5gfqzZ2BnCceAbhkifUp+021eJM8w65KmxV2Q6fPWfX4yfHbLb+/vfn3Dys9HV8PK7Yy4sQLCKLOvMJ0mazb+SDtvTx4jJFB0pYOkEyUuNHekMudjZHPV25dxR/I3K60KhLOqZ67EfrvOpx2VcemjpsL6siBOH+YZOhto7VfQ33mA7gnxKvvrp0nv358Mn30a2/Pcr29Y2fnoali5nRE3llPjYYIDNorM4qtONUyx4lwaxjUszzD6Ozou9aaD5HlH17Pd9Iozu607Gx67tPr8dvP002Yr103b0b8LH1PAPhtPO7Le/7aeDNB4Am4J+eJOnvXv9HmA6LnbBsk3091gbVr63/I7E/1+/M6qp1/vjnoeT49wHlPPHaWAp5qOzjvunaRvYEM93gDOGLbN00HH29PPdpQ8O4rO9vD+dM07Vh7huAPGk2nkAipPpuAoy2zrMA44EdeCYdaxRsneQq97IdrBuLfZWHmE466syl/VQNXAwtTAE/vcC1O+KlXVQNVA1cCcGqhAOKeKaoaqgaqBha6BCoQLvYWrfFUDVQNzaqAC4ZwqqhmqBqoGFroGKhAu9Bau8lUNVA3MqYEKhHOqqGaoGqgaWOgaqEC40Fu4ylc1UDUwpwYqEM6popqhaqBqYKFroALhQm/hKl/VQNXAnBqoQDinimqGqoGqgYWugf8HjfCVgdwvdoQAAAAASUVORK5CYII=;" vertex="1" parent="1">
          <mxGeometry x="620" y="390" width="154.81" height="50" as="geometry" />
        </mxCell>
        <mxCell id="CjQMcYgxPabckrPKH6no-4" value="" style="shape=flexArrow;endArrow=classic;html=1;rounded=0;fillColor=#ffe6cc;strokeColor=#d79b00;" edge="1" parent="1">
          <mxGeometry width="50" height="50" relative="1" as="geometry">
            <mxPoint x="260" y="455" as="sourcePoint" />
            <mxPoint x="340" y="455" as="targetPoint" />
          </mxGeometry>
        </mxCell>
        <mxCell id="CjQMcYgxPabckrPKH6no-5" value="" style="shape=image;verticalLabelPosition=bottom;labelBackgroundColor=default;verticalAlign=top;aspect=fixed;imageAspect=0;image=data:image/png,iVBORw0KGgoAAAANSUhEUgAABEAAAAFUCAYAAAAkgEllAAAK2WlDQ1BJQ0MgUHJvZmlsZQAASImVlwdQU+kWx7970xstdCmhd6QTQEroAQSkg6iEJJBQYkgIIGJDFpeyFlREsKzoooCCqysga0FEsS0KitgXZBFQ1sWCDZW9wCPs7pv33rwzc/L95uR85zvnm3tn/hcAij9LKEyD5QBIF2SKwvw8aTGxcTTcMMACHJAHhsCQxRYLGaGhQQCxufXv9u4ugKbX2xbTtf79//9qChyumA0AFI9wIkfMTke4DfHnbKEoEwDUUSSul50pnOZbCCuKkAYR/m2ak2f5wzQnzjCaPJMTEeaFMA0APJnFEiUDQDZH4rQsdjJShzw9g5WAwxcgnIewG5vH4iB8BmHz9PSV0zyCsDGSLwSAgtwOoCf+pWby3+onSuuzWMlSnp1rxvDefLEwjbXq/7ya/23paZK5MwwRJ/NE/mHTd4rc373UlYFSFiQGh8wxnzN779PMk/hHzjFb7BU3xxyWd6B0b1pw0Bwn8X2Z0jqZzIg55op9wudYtDJMelaSyIsxxyzR/LmS1EhpnMdlSuvn8iKi5ziLHxU8x+LU8MD5HC9pXCQJk/bPFfh5zp/rK509XfyXeflM6d5MXoS/dHbWfP9cAWO+pjhG2huH6+0znxMpzRdmekrPEqaFSvO5aX7SuDgrXLo3E3k45/eGSu8whRUQOscgCEQBG+AIbIE/iAShANmRyc3JnB7Ea6VwlYifzMukMZC3jUtjCtiW5jQbKxtbAKbf3dnH4c29mXcSUsbPx4TDADgtQoKb5mPL6wBoQmaR0ZiPGSG9ymUAcLGILRFlzcbQ0z8YQASyQBGoAS2gB4yBBdKjA3ABHsAHBIAQEAFiwXLABjyQDkQgG+SBDaAQlICtYCeoBPvBQXAEHAMnQDM4Ay6Ay+A6uAV6wUPQD4bACzAO3oFJCIJwEAWiQmqQNmQAmUE2EB1yg3ygICgMioUSoGRIAEmgPGgjVAKVQZXQAagW+hE6DV2ArkLd0H1oABqFXkOfYBRMhhVhTdgQXgjTYQYcCEfAy+BkOAPOhQvgzXAFXA0fhZvgC/B1uBfuh1/AEyiAIqGUUTooCxQd5YUKQcWhklAi1FpUMaocVY1qQLWiOlG3Uf2oMdRHNBZNRdPQFmgXtD86Es1GZ6DXokvRlegj6CZ0B/o2egA9jv6KoWA0MGYYZwwTE4NJxmRjCjHlmBrMKcwlTC9mCPMOi8UqY42wjlh/bCw2BbsaW4rdi23EtmG7sYPYCRwOp4Yzw7niQnAsXCauELcbdxR3HteDG8J9wJPw2ngbvC8+Di/A5+PL8XX4c/ge/DB+kiBHMCA4E0IIHMIqwhbCIUIr4SZhiDBJlCcaEV2JEcQU4gZiBbGBeIn4iPiGRCLpkpxIS0h80npSBek46QppgPSRrEA2JXuR48kS8mbyYXIb+T75DYVCMaR4UOIomZTNlFrKRcoTygcZqoylDFOGI7NOpkqmSaZH5qUsQdZAliG7XDZXtlz2pOxN2TE5gpyhnJccS26tXJXcabk+uQl5qry1fIh8unypfJ38VfkRBZyCoYKPAkehQOGgwkWFQSqKqkf1orKpG6mHqJeoQ4pYRSNFpmKKYoniMcUuxXElBSU7pSilHKUqpbNK/cooZUNlpnKa8hblE8p3lT+paKowVLgqRSoNKj0q71UXqHqoclWLVRtVe1U/qdHUfNRS1bapNas9Vkerm6ovUc9W36d+SX1sgeIClwXsBcULTix4oAFrmGqEaazWOKhxQ2NCU0vTT1OouVvzouaYlrKWh1aK1g6tc1qj2lRtN22+9g7t89rPaUo0Bi2NVkHroI3raOj460h0Duh06UzqGulG6ubrNuo+1iPq0fWS9HboteuN62vrL9bP06/Xf2BAMKAb8Ax2GXQavDc0Mow23GTYbDhipGrENMo1qjd6ZEwxdjfOMK42vmOCNaGbpJrsNbllCpvam/JMq0xvmsFmDmZ8s71m3eYYcydzgXm1eZ8F2YJhkWVRbzFgqWwZZJlv2Wz5cqH+wriF2xZ2LvxqZW+VZnXI6qG1gnWAdb51q/VrG1Mbtk2VzR1biq2v7TrbFttXdmZ2XLt9dvfsqfaL7TfZt9t/cXB0EDk0OIw66jsmOO5x7KMr0kPppfQrThgnT6d1TmecPjo7OGc6n3D+w8XCJdWlzmVkkdEi7qJDiwZddV1Zrgdc+91obglu37v1u+u4s9yr3Z966HlwPGo8hhkmjBTGUcZLTytPkecpz/dezl5rvNq8Ud5+3sXeXT4KPpE+lT5PfHV9k33rfcf97P1W+7X5Y/wD/bf59zE1mWxmLXM8wDFgTUBHIDkwPLAy8GmQaZAoqHUxvDhg8fbFj4INggXBzSEghBmyPeRxqFFoRujPS7BLQpdULXkWZh2WF9YZTg1fEV4X/i7CM2JLxMNI40hJZHuUbFR8VG3U+2jv6LLo/piFMWtirseqx/JjW+JwcVFxNXETS32W7lw6FG8fXxh/d5nRspxlV5erL09bfnaF7ArWipMJmITohLqEz6wQVjVrIpGZuCdxnO3F3sV+wfHg7OCMcl25ZdzhJNeksqSRZNfk7cmjPHdeOW+M78Wv5L9K8U/Zn/I+NST1cOpUWnRaYzo+PSH9tEBBkCroWKm1Mmdlt9BMWCjsz3DO2JkxLgoU1Ygh8TJxS6YiIpJuSIwl30gGstyyqrI+ZEdln8yRzxHk3Fhluqpo1XCub+4Pq9Gr2avb83TyNuQNrGGsObAWWpu4tn2d3rqCdUPr/dYf2UDckLrhl3yr/LL8txujN7YWaBasLxj8xu+b+kKZQlFh3yaXTfu/RX/L/7aryLZod9HXYk7xtRKrkvKSz6Xs0mvfWX9X8d3U5qTNXVsctuzbit0q2Hp3m/u2I2XyZbllg9sXb2/aQdtRvOPtzhU7r5bble/fRdwl2dVfEVTRslt/99bdnyt5lb1VnlWNezT2FO15v5ezt2efx76G/Zr7S/Z/+p7//b0Dfgeaqg2ryw9iD2YdfHYo6lDnD/QfamvUa0pqvhwWHO4/Enako9axtrZOo25LPVwvqR89Gn/01jHvYy0NFg0HGpUbS46D45Ljz39M+PHuicAT7SfpJxt+MvhpzynqqeImqGlV03gzr7m/Jbal+3TA6fZWl9ZTP1v+fPiMzpmqs0pnt5wjnis4N3U+9/xEm7Bt7ELyhcH2Fe0PL8ZcvNOxpKPrUuClK5d9L1/sZHSev+J65cxV56unr9GvNV93uN50w/7GqV/sfznV5dDVdNPxZsstp1ut3Yu6z/W491y47X378h3mneu9wb3ddyPv3uuL7+u/x7k3cj/t/qsHWQ8mH65/hHlU/FjucfkTjSfVv5r82tjv0H92wHvgxtPwpw8H2YMvfhP/9nmo4BnlWfmw9nDtiM3ImVHf0VvPlz4feiF8MTlW+Lv873teGr/86Q+PP26Mx4wPvRK9mnpd+kbtzeG3dm/bJ0InnrxLfzf5vviD2ocjH+kfOz9FfxqezP6M+1zxxeRL69fAr4+m0qemhCwRa0YKoBCHk5IAeH0Y0caxAFARXU5cOqutZwya/R6YIfCfeFZ/z5gDAEgpELkegGDED07LWWSV9QAgFPEIDwDb2kr9XyZOsrWZrUVqRqRJ+dTUG0Q74kwA+NI3NTXZPDX1pQZp9gEAbe9mNf2MhBlE9E02onfCH7ragH/arN7/y4z/XMF0B3bgn+ufsrMW0vq2WDwAAABsZVhJZk1NACoAAAAIAAQBGgAFAAAAAQAAAD4BGwAFAAAAAQAAAEYBKAADAAAAAQACAACHaQAEAAAAAQAAAE4AAAAAAAAAkAAAAAEAAACQAAAAAQACoAIABAAAAAEAAARAoAMABAAAAAEAAAFUAAAAAHnvnlcAAAAJcEhZcwAAFiUAABYlAUlSJPAAAEAASURBVHgB7L0HlCTHdaZ7s733drwHZjDAwBMEQJAACZAUKXqJXFFaUZShxNXK7Dn73j5pVxJ3z0p6Mm8lLSVxSVGiDL13IAkS3vsBMDMYjPftvXeV77/Z00BNT093RlRWuv4Dp1A9VRkZEV+ayvjjGsdFERYSIAESIAESIAESIAESIAESIAESIAESSDGBghSPjUMjARIgARIgARIgARIgARIgARIgARIgAY8ABRCeCCRAAiRAAiRAAiRAAiRAAiRAAiRAAqknQAEk9YeYAyQBEiABEiABEiABEiABEiABEiABEqAAwnOABEiABEiABEiABEiABEiABEiABEgg9QQogKT+EHOAJEACJEACJEACJEACJEACJEACJEACFEB4DpAACZAACZAACZAACZAACZAACZAACaSeAAWQ1B9iDpAESIAESIAESIAESIAESIAESIAESIACCM8BEiABEiABEiABEiABEiABEiABEiCB1BOgAJL6Q8wBkgAJkAAJkAAJkAAJkAAJkAAJkAAJUADhOUACJEACJEACJEACJEACJEACJEACJJB6AhRAUn+IOUASIAESIAESIAESIAESIAESIAESIAEKIDwHSIAESIAESIAESIAESIAESIAESIAEUk+AAkjqDzEHSAIkQAIkQAIkQAIkQAIkQAIkQAIkQAGE5wAJkAAJkAAJkAAJkAAJkAAJkAAJkEDqCVAASf0h5gBJgARIgARIgARIgARIgARIgARIgAQogPAcIAESIAESIAESIAESIAESIAESIAESSD0BCiCpP8QcIAmQAAmQAAmQAAmQAAmQAAmQAAmQAAUQngMkQAIkQAIkQAIkQAIkQAIkQAIkQAKpJ0ABJPWHmAMkARIgARIgARIgARIgARIgARIgARKgAMJzgARIgARIgARIgARIgARIgARIgARIIPUEKICk/hBzgCRAAiRAAiRAAiRAAiRAAiRAAiRAAhRAeA6QAAmQAAmQAAmQAAmQAAmQAAmQAAmkngAFkNQfYg6QBEiABEiABEiABEiABEiABEiABEiAAgjPARIgARIgARIgARIgARIgARIgARIggdQToACS+kPMAZIACZAACZAACZAACZAACZAACZAACVAA4TlAAiRAAiRAAiRAAiRAAiRAAiRAAiSQegIUQFJ/iDlAEiABEiABEiABEiABEiABEiABEiABCiA8B0iABEiABEiABEiABEiABEiABEiABFJPgAJI6g8xB0gCJEACJEACJEACJEACJEACJEACJEABhOcACZAACZAACZAACZAACZAACZAACZBA6glQAEn9IeYASYAESIAESIAESIAESIAESIAESIAEKIDwHCABEiABEiABEiABEiABEiABEiABEkg9AQogqT/EHCAJkAAJkAAJkAAJkAAJkAAJkAAJkAAFEJ4DJEACJEACJEACJEACJEACJEACJEACqSdAAST1h5gDJAESIAESIAESIAESIAESIAESIAESoADCc4AESIAESIAESIAESIAESIAESIAESCD1BCiApP4Qc4AkQAIkQAIkQAIkQAIkQAIkQAIkQAJFkSNwXZG+E+IOnBEZHxSZGo+mSw60oLJKcSoaRFq3i1Q1RtOPKFudGhPpfEXcsX6RiSGRudloelNcJlJZL05Nq0jLNpGCwmj6wVZJgARIgARIgARIgARIgARIgARSQyA6AWR8SNyXfiCy736Rro554WN2WiQT0aTbcTDRLhK3qESkvFpk/QaRq35KnF1vTv8E/OTz4j73TZFjr4iMQviYnYL4MSPiZqI50VXwwHFwi8tFGltErni9OFe9Q6RuTTT9YaskQAIkQAIkQAIkQAIkQAIkQAKJJ+C4KKGOAgKHe+Bekfv+ReT0IVgajGDCPRdqF3w1VlwMK5A6ke1XinPnf4AgcpWvaonaaOCsuPd+UmTv4yIjfSLTkxA9YjaCAljmlFeJtG0UecMHxLnm3SKllTHrJLtDAiRAAiRAAiRAAiRAAiRAAiQQdwLhCiDTEyKP/Yu4P/5nkQFMuDMRWRiYHJVCWCPo5PudHxfn6neJqKVIGsqpveJ+/Y9h9bFPZAbWHnEvyr0SLkq3vk/kzb8uUt0c9x6zfyRAAiRAAiRAAiRAAiRAAiRAAjEiEJ4AMgPx48F/Evf7fwurD7i6JK00t4m867fEueFnktbzi/rrHn9K5CsQP47vv+i72H9Q4Ihzx8+LvPXjEEGaYt9ddpAESIAESIAESIAESIAESIAESCAeBMLJAqPxJF78obj3/VMyxQ89Vj2dIvd/QeTwo9HFxgjinOk+KvKjT4ucSKD4oePPuOI+hOPw1NcQN2Y0CCLcBwmQAAmQAAmQAAmQAAmQAAmQwCogkH8BREOMdCCzyIOfF+lHlpckl+P7xH3i2yJDEEOSWJDlxX3y6yIHVMRJ4gDO93l6TtwH4EZ18oVki1EJPgTsOgmQAAmQAAmQAAmQAAmQAAkkjUD+BRB1fTn8hMjRF5PG5uL+qmjw8kMYC1xIospWc3Gv/H9ycq/I/ocR7DSiTDv+e7rylj29Is8ji9DYwMrbcgsSIAESIAESIAESIAESIAESIIFVTyD/AshwD1Ksfg9pVZNscpB1nvT3iXv4WaSLRRDXJBUNQHsCItQZZN5JSXH3/lBkECmUQ05klBJ8HAYJkAAJkAAJkAAJkAAJkAAJrCoC+RVAXGR5GcAEVdPdpqmceh7jOpesEQ13iXsacT9mE5B5xy/ZgSFxz2BMmQRksfE7Jm5HAiRAAiRAAiRAAiRAAiRAAiSQFwL5FUA0+GnnYZHJlE1QO0/CAiRhrhcjPSLdR/JyEkW605MQo2ZTdn5FCpSNkwAJkAAJkAAJkAAJkAAJkEA6CeRZAJkVdzBhlhJ+jvPEJLLZjCcrAOcU+jva72d0ydpm4Gwy47EkizJ7SwIkQAIkQAIkQAIkQAIkQAKJJ5BfAURdYMYTZinh55BqOJPJEcQ1SZDlwew0+gwRJG1FY7FkUuTWk7bjw/GQAAmQAAmQAAmQAAmQAAmQQEwI5FkAgVKgE+80ljlkUklS8E3taxqFAs/9JSUBdtN4nXBMJEACJEACJEACJEACJEACJBATAvkVQGIySHaDBEiABEiABEiABEiABEiABEiABEhgdROgAGJ7/B3biqxHAiRAAiRAAiRAAiRAAiRAAiRAAiQQNgEKIGETZ3skQAIkQAIkQAIkQAIkQAIkQAIkQAKhE6AAYo2cJiDW6FiRBEiABEiABEiABEiABEiABEiABEImQAEkZOBsjgRIgARIgARIgARIgARIgARIgARIIHwCFEBsmTuwANEXCwmQAAmQAAmQAAmQAAmQAAmQAAmQQOwJUACJ/SFiB0mABEiABEiABEiABEiABEiABEiABHIlQAHEmiCtP6zRsSIJkAAJkAAJkAAJkAAJkAAJkAAJhEyAAkjIwNkcCZAACZAACZAACZAACZAACZAACZBA+AQogFgzpwWINTpWJAESIAESIAESIAESIAESIAESIIGQCVAAsQVO/cOWHOuRAAmQAAmQAAmQAAmQAAmQAAmQQOgEKIDkhJwqSE74WJkESIAESIAESIAESIAESIAESIAEQiJAAcQaNMUPa3SsSAIkQAIkQAIkQAIkQAIkQAIkQAIhE6AAEjJwNkcCJEACJEACJEACJEACJEACJEACJBA+AQogtswdWoDYomM9EiABEiABEiABEiABEiABEiABEgibAAWQsImzPRIgARIgARIgARIgARIgARIgARIggdAJUACxRk4LEGt0rEgCJEACJEACJEACJEACJEACJEACIROgAGILXPUPusHY0mM9EiABEiABEiABEiABEiABEiABEgiVAAWQUHGzMRIgARIgARIgARIgARIgARIgARIggSgIUACxpk4XGGt0rEgCJEACJEACJEACJEACJEACJEACIROgABIycDZHAiRAAiRAAiRAAiRAAiRAAiRAAiQQPgEKILbMGf/DlhzrkQAJkAAJkAAJkAAJkAAJkAAJkEDoBCiAhI6cDZIACZAACZAACZAACZAACZAACZAACYRNgAKINXHGALFGx4okQAIkQAIkQAIkQAIkQAIkQAIkEDIBCiAhA2dzJEACJEACJEACJEACJEACJEACJEAC4ROgAGLL3IsBQisQW3ysRwIkQAIkQAIkQAIkQAIkQAIkQAJhEqAAEiZttkUCJEACJEACJEACJEACJEACJEACJBAJAQogttjV+IMGILb0WI8ESIAESIAESIAESIAESIAESIAEQiVAASRU3GyMBEiABEiABEiABEiABEiABEiABEggCgIUQKKgzjZJgARIgARIgARIgARIgARIgARIgARCJUABxBo3/V+s0bEiCZAACZAACZAACZAACZAACZAACYRMgAJIyMDZHAmQAAmQAAmQAAmQAAmQAAmQAAmQQPgEKIDYMmcaXFtyrEcCJEACJEACJEACJEACJEACJEACoROgABI6cjZIAiRAAiRAAiRAAiRAAiRAAiRAAiQQNgEKINbEGQPEGh0rkgAJkAAJkAAJkAAJkAAJkAAJkEDIBCiA2AKn/mFLjvVIgARIgARIgARIgARIgARIgARIIHQCFECskVMBsUbHiiRAAiRAAiRAAiRAAiRAAiRAAiQQMgEKICEDZ3MkQAIkQAIkQAIkQAIkQAIkQAIkQALhE6AAEj5ztkgCJEACJEACJEACJEACJEACJEACJBAyAQog1sDVBYZuMNb4WJEESIAESIAESIAESIAESIAESIAEQiRAASRE2GyKBEiABEiABEiABEiABEiABEiABEggGgIUQKy5w/qDBiDW9FiRBEiABEiABEiABEiABEiABEiABMIkQAEkTNpsiwRIgARIgARIgARIgARIgARIgARIIBICFEBssTs0/7BFx3okQAIkQAIkQAIkQAIkQAIkQAIkEDYBCiBhE2d7JEACJEACJEACJEACJEACJEACJEACoROgABI6cjZIAiRAAiRAAiRAAiRAAiRAAiRAAiQQNgEKILbEPRcYusHY4mM9EiABEiABEiABEiABEiABEiABEgiTAAWQMGmzLRIgARIgARIgARIgARIgARIgARIggUgIUACxxk7rD2t0rEgCJEACJEACJEACJEACJEACJEACIROgABIycDZHAiRAAiRAAiRAAiRAAiRAAiRAAiQQPgEKILbMNQYIjUBs6bEeCZAACZAACZAACZAACZAACZAACYRKgAJIqLjZGAmQAAmQAAmQAAmQAAmQAAmQAAmQQBQEKIBEQZ1tkgAJkAAJkAAJkAAJkAAJkAAJkAAJhEqAAogtbs/9hT4wtvhYjwRIgARIgARIgARIgARIgARIgATCJEABxJo2xQ9rdKxIAiRAAiRAAiRAAiRAAiRAAiRAAiEToAASMnA2RwIkQAIkQAIkQAIkQAIkQAIkQAIkED4BCiDWzGkBYo2OFUmABEiABEiABEiABEiABEiABEggZAIUQEIGzuZIgARIgARIgARIgARIgARIgARIgATCJ0ABJHzmbJEESIAESIAESIAESIAESIAESIAESCBkAhRAbIHTA8aWHOuRAAmQAAmQAAmQAAmQAAmQAAmQQOgEKIDYIKf4YUONdUiABEiABEiABEiABEiABEiABEggMgIUQCJDz4ZJgARIgARIgARIgARIgARIgARIgATCIkABxIo0TUCssLESCZAACZAACZAACZAACZAACZAACUREgAJIRODZLAmQAAmQAAmQAAmQAAmQAAmQAAmQQHgEKICEx5otkQAJkAAJkAAJkAAJkAAJkAAJkAAJRESAAogNeHrA2FBjHRIgARIgARIgARIgARIgARIgARKIjAAFkMjQs2ESIAESIAESIAESIAESIAESIAESIIGwCFAAsSVNKxBbcqxHAiRAAiRAAiRAAiRAAiRAAiRAAqEToAASOnI2SAIkQAIkQAIkQAIkQAIkQAIkQAIkEDYBCiBhE2d7JEACJEACJEACJEACJEACJEACJEACoROgAGKDnO4vNtRYhwRIgARIgARIgARIgARIgARIgAQiI0ABJDL0bJgESIAESIAESIAESIAESIAESIAESCAsAhRAwiLNdkiABEiABEiABEiABEiABEiABEiABCIjQAHEBj1dYGyosQ4JkAAJkAAJkAAJkAAJkAAJkAAJREaAAkhk6NkwCZAACZAACZAACZAACZAACZAACZBAWAQogFiRhgmIQzMQK3SsRAIkQAIkQAIkQAIkQAIkQAIkQAIREKAAEgF0NkkCJEACJEACJEACJEACJEACJEACJBAuAQog4fJmayRAAiRAAiRAAiRAAiRAAiRAAiRAAhEQKIqgzeQ3Se+X5B9DjoAESIAESIAESIAESIAESIAEQiLguq7MZeZkZmZGZudmZXZ2zvt3JpPxepDJuHh3RbdzEG5BXwUFhVJYWCBFhUVSXIRXcQn+Lgypx+lshgJIOo8rR0UCJEACJEACJEACJEACJEACJBAhgdnZWRmfnJDJqUmZmMTLex+XyckpmZqelumZaU8MgeYhGYgjKoGoIKLiRyGEjmIVPoqLpbSkRMrLyqWyvMJ713+XlZZJBf6twgiLfwKk5Z8VtyQBEiABEiABEiABEiABEiABEiCBSxKYm5uT4dFhvEZlZGz+NTY+5gkgavnhp6gViAohai0iEFCyiwoj5efFj9rqGqmpqpLqymqpqqyEGFKcvSn/XoIABZAloPAjEiCBVUoggx+lcwfEPbNfZKxfYJsokN/xwo+J916Cd9w29celYIXbJ378ZA4/Wn6L7l/36bVVLC7endIK7yUlFSIllSLlNXjH3w7DN/nFyu3OE9ClpdFenNsviQyeE5kYhZUtztHiUpHqJnHaLhdpu4wZzoI8YSaHJXPkcXF6jouMDOF+AN6aQa6sTKRhjTibrhdp2rjyvSTIPqV5XxND4p58XqT7iMj4sFqRX1xgSi6VdeKs3SWy5goR3GNZ4kFAJ3oDQ4MyikniNCZ8Cyvhi3tX4LkEFEgBfgd1EqgvXQnXVXCdEBYU8PdxMbMg/63WCsOjI7BemJSZWT1OcNfAf4WvcleXDRwfvArPu27oMSorKcWtrzzVrhvKYWx8XPoG+mVweNDjNDI2BiuPqSAPgbcvFVj0WtFXT3+vdw1UVUAEgRDSUFsvTQ2N3vWgViQsFxNY4Qn+4gr8BAR4LvE0IIH0EXAz4j72byJP3i3uwFmRqTG1QcTkBA9TjooTeNeH54XXSiIE9ufVX/IpfAl8r7bzWhtuUYnoyynCJFVfxZg4VeCBvQpCSE2jN3GVunZxGjeJ1K2Z79sSu+ZHq5yACnunXpDMA58TOXsUk8MBkRk8kOk5qoJeWbVIbbvInjeI88ZfmRfhVjmynIc/1CHud/5U5MRBcUd6cD/B6p3eT7TAf1sqa8Vt2yIFb/lVkW03kfk8Gev/u52viDz6ZXFfeVJkuFtkGryXFEBwHy8tF7durThXvVGcmz+Ee2mrdbusGAyBmZlZOXj8sPT198kkJotzWCHPqGi7REFUhPm4CJjYOfjd1Im2xkNQEUQngK1NzdJU3yhFdAlYgp79Rzrh7ujuko6eTm/SrVYJ+pknf+BQqTDlFbx5cSvwjOTgVVAwL4ioi0YJ7n11NbXS3tLqWSvY9yZeNfVcVWuPzp4u6R8c8Kw+1N1FLTjCKNrO5NSU99L2u3q7pbarxhNB2pvbIA6We8ckjL4kpQ0KILZHiiKILTnWI4FYEnBPPCfu3Z/G6nhv7Pp3wU+oCiXwBZUSiCEqiOgKZhkEETz4SSsmseuvFGf9VSItWyGa4HsWEhjqgvjxWZHn7odVE6wQFpfhYXG7IfqppULTBkwM37F4C/7bkIB7z1+L+/SPwPu86JFdf24K5syYpPf3SGZuUgrad3ASns3H9O+BMyIP/Ku4T30PXMdXrj0xifv8gLi9p8VVa4LbPjJvXbdyTW6RJwKnzp2Wk2dOeRYFuTShK+/dfT2yprVNNq/b6FmF5LI/1p0nMAuh4/jpk3LizEkZmxjPaWLfA5FLLRa2b9wqLRCrklxUeFBrmNMdZ6V3oM8ThmYh5qkoFFXJYGFjfGLCc7Xph0XV2a4OaW9qlY3rNngiYVT9ilu7FECsjgjVDytsrEQCMSbgPvWlWIofFyHTVWQo/d5LYFaP4v3U6m3pCKxESu8TtwxiSF2jONuvFmfnHSLrrpx3nfG25v9WFQFdgRrEZHvfo0uLH9kwhjEpfPobFECymdj8Pd4v7nMPLC1+ZO9Pj80RuCR1n4A1FyYCK1mVZdfl368ScF95RNwXf+xP/Hi1Fv4Yxf3zgX8TueItImt36rJ19rf8OyQCOonUCaS6U+Ra5vD7qC4BOlnX/W7DJLusFL+LLDkR6ITlh4ofyjbXoi40KoLggvPiVajrUhKLWnicPHsKAkOnJwppoNM4FT3/1fVGXyOIQ9LR24XrYYusaWmjNQgOFAWQOJ2t7AsJkEB0BI48FV3bQbSsKsiCMDLcj9V8rG6eQDyTB77hWYY419wlznXvm3d14IN+EMSTsQ+N8zECAWT8wgBqS3ZexTWswmLmwMngkoD8feh2HbsoYN0la6pFjsas2Hwd3GBg3cViRmByZN6tCyudVkXrndyL+Dfb8EQM1ySW0AloFozJaVjlBFhmMBk9gXuZulusaWn33GQC3P2q2pUG7jzX0+FN8oMa+ILlRFdvj2xevzGo3YayH+17J1xMDh495AU3VTeguBcVFzW+zvP7X5QznWdl19bLvVghce93PvtHASSfdOO0b50c6UMtCwmQwNIEujFJTFPR610Db+nrGIIDHj8k7g/+j8j1b5WCu34LQRg3pGm0HMulCKioMYFJot+iq1gzWOUrgRURix2BUcT8MPi9dUf7xNF4LCzmBCYRzHccIoYB78WNuB0HxNGA1RRAFqMJ5d8zs9M4fME/n6oIcvzUSamvqZPKispQxpLGRgZHhhHXYjDwY6SWCTop3wTXjKQE6tTgvC8d3C+nISLk45zN5/mj/VUh5BwsVjROyBXbLpf1a9Ylhn3QbLjcYEN0Bg8qnh918Ddsm+6sWEd/WDSF0lT8VcoVx7J4A5MsG4vr8t8ksEBAJx9L+eovfJ+Gdx3jOMSQh74jmT+6SzJf+B2R3hMY93QaRscxXIqAHvcpTBL9FhVMdFLJYk3A9QLMGjwfBGD6b93ZpFdUC6dMjs82CFjrBQROOouE9j+fE8m+oQEZGB5C/GHc11iMCahbxxAEkIlFKViNd7REBT3uU3CHCcL1aYndB/qRnj89fb1y3+MPyamOM4kTPxbD0ICpL76yX/a98jIMh/MjQC5uM27/pgBic0RUUBjGCo8+5CShzMC0EEHwcMUmobdmfUSaKeHDoxkzbn0xARUBUnh5XDzQ85+o2PPI3ZL58/eKe9/fi2jWG4qJl8SV6C/0vm90jzTdPtF08tR505uJ6fZ56nYSd4tsL65m7MqlqPtFGp+PcmESZt08nv46yZ6PLxKv+Axh4s2lrXEEPB20dS/z0bBm+1GrijgXddE6dPyoPLH3mbwIQVGNXS2kjp05Ic8deGFVioQUQCzPPPfksyJj8LNPQoE5rnv86ST01LyPw4j43nsS9fL4C2reK9YggWQQGBkT97ufksznflPkwP3z6VGT0XP2Mq8EGAwyN7zklxs/g9pzEK9nc1yM8qzg+AxhQD3YTfN8uWh2Dg1YyWJOYHxyUoaQ5SRfRS0rMjGNoaHimQYP3XfoZTl04ggM/9Mnoil/Td37EqxBNHtSEuKZBHUuUgCxJXkIueY10Fmuppe27futpxfsuUMih1MqgOAG5T71Vaxe52gC65cntyOBtBHQa+fwfsl8+b+L++Dn5t1i4n5fS9sx4HhWOYE8zwDTTFfvVZkcJybqRkP9I7VnibpxdPd1J95tIewDpBP+kbGRvIpHGTzDz8bweUP7NQjXqX2HX/aChqZdGNCYIBrUVcWQNAo9S107FECWouLns95ecZ/4GlxLOrF1TH85cQHLAHzVHv8K0iDOp8v0M7TEbfPMD0QOPZy4brPDJBArAv14QPzJ5xAo9a9ETr9El5hYHZwcO2M6v2aWoByBG1Ynb0NgWZt7qYNzfJTVZ6W4PsdlDZV/2hM419UlmiKXxT8Bdf3QiXE+i1pZxC0+i/anf6BfXoYgoFYRcetfvo6Hxso5eOywnOvslLil9M3HmJkFJheqz/5I3PpmcW7/mEh1Uy57yk/dfqTBvO8fRF58MD/7j8tex6bE/eafiVNSJrL19XHpFftBAskjMAF/+mfuERkdEudO3Nc2XcvMCMk7ikv02FQBWWIX/IgE4kigoBDpg/koG8dDE6c+DY4Myej4qNRV18apW7Hui7oN6aQ4n0UFEH3FpajY0TfYL68cPyJ9/f2SyVN2roKCAiktLpGysjLvvbi4SIqLipGRpcDLylJQ4EB4cSHazUKMmPMCxWqw0klkztHsOfkSZYbh7nQIYxc8MqxrW5Pq9NH81cjlqpuG2eWDXxZ3bFjk9T8jzkZMFrzViFx2GkBd+LO6r0D0eOLbED/uRbDWVaB6nzoCEeQvxHnDz4jsvkuksiEAkNwFCfggoHPL0hKR8oqLN1bT7Gz3LP2d14CUCz/4+IHDL1y8Fh9nZsU98LgX5Nl5O2KDbLkBE4zii8fGT0iABEggagIqgBTk+Cir6W9phRP1kcxr+zph7OrppgDik/Ic3FJGMBnOf+yU+AggKsSo24sGPO2DBUjQ4kdhYaFUIR2zinDVVVVSXlomZaWlUgIhpMgTQIrmBRCoD54AAvFlDs+HGihWA5ZOwyJHxQ+NyzI6NibDo8MyPDYauLXGCIRCFUFKioulrbnV5xmTvM1y/NVI3oAD7/HYhMhj34LJ+GFxt+zGiukecZo2YTIElRlq3qtFMyzoK1ehU9XI2SUilsOH1Z1EoKKe4yInXxE5ARP2DvytE6zVUo6+JO4AXJL2PYLjsFOkdZs4FTgOuT4crRZ+fsepPEsrRaoa589zfQBdraWsXOTm94qz+TqBlA8Ki1ba1bdVr9nsy9D77PwHKoTM4aVB+PS61nvEFAL7eu+jEFcHxR0fFGe0F+523cg+hdUYFV7zXfCj6x5CoOe5/yXO+/+byHrc2+Ig7uZ73Nw/CURBgJNve+r4PXIg0GbfYo13pr9nPAbG2JJWoaO7Sy7bsj1p3Y6kv7NYCOkbGIiVdUa+QYyOj3kTfw2aG6SFhQoJrU0t0tzQKJUQQCrw3FhaUrKidUUBnrkKigpgGVIEoQSjx21Ki8YnUSFkEkLIONIT98FNqbe/D4II5oABlREIK+oCVAqRpr4mnVZTFECCOFnUwuIYBIczB0X23i9uWc282biTNTH0JkHYLref6fnquqq8uHgTKUyiJmCNAvN1b1V58TZp/7cyQKArGfixyEGsYFfUieut7OToH5x2bqbj0wdFtQgoxoS/pUVk2w3iXP3T82KI6b6SvL1yuPZ2ce76DYhBcIHL5QHaE0UglqiPsgYu1vsFRBBHsxsg3bYzA6EV6R5lEuJIf4e4HbjXnDuA1xFBlDJsn9Pj/9JHAeKpe/RFcb/9P6Xgw38h0rB+6e34afoILNLx0jfAuI2IwK2PSBFmBvpblEupbsb9O+t5LZd9sW5sCQxhxXxsfByT0CWsNWPb62g6Ng1LVRUC8l3y8ehi0+epqSk5DMuP7r7ewMQPFT7Wta+V9qZWqaysgIhRJgW5PCeeH5juQ61H9FVXWydN9Q2yHu4q6rpzprPDs2KxYbC4jlrDvPjyPrn+qmukcikL58UVEvZvCiBBHrBprN72wgJB9MUSGQGdRI5ACNIXS34JnMAt5KUnxH0EmXju+AVxrn1/bkJAfnsb7N7VV/OadyL+Dx6ecy2eFQ0ewPUZPMtwTHd7wdTovNDpTL0FliIQPtRapO+suMeeguj3oMip4zlrrBcMRS3IDr0gmW99Qgo+8mlYU1FMvIBPKv+hZ9wFZ10qRxmrQRG3/eEoq8JiR44rlG2XM46I/RFITE1d1e9AlottGzcnps9RdFQtDNS9YiKs1MF5WL8x4abuPsfPnJSzXeewdoyFqByLxvdoh+vIlvWb4OpSCQuOkpzWx5brjv50lJaUei91q2lpbBa1dDp59rRnHbJcXT/fDQwPeiLIjXuuE3XhSVOhAJKmo8mxkEDYBGAmKTP9EJsGoPv9ibgnnhPnXXCZKIZryGoo9WvDHaWuHuiKp74W4tyoq9eOmyBA/SoE2FPzaaH3wgpqKCBzSI1Rsvcxydz3SSl4y2+FO162RgKrggAVEOvDrBa3VYj5haCBVi6/hQ7it10DAQRxQFhST6Cju5MCyApHOQMRoLuvLzT3l4j1D8995PDJY0j/mrv4UV1ZKZdv3Q53l6bzQU3Du7cXIRh0TVW1Z63RBHebwyeO5ZzFRuOi9MC9Rvel40pT4XJemo4mx0ICURFQywQNBvzgdxCM9g/nXTii6ktY7aoYUYGH76iLWo+UwKRXY7JsulqcD/wPcf7v70KI+nWRRnwWREEALvn238HCZG8Qe+M+wiSgz1/GZrfhPbSFiSK0tox5h9az9DWkrFvX4V5nGazvyltE6tssrpEIUQ6cEfd5BLnvORZhJ5LZtK5o5z+wZzLZLPRaA29q+leTolYPa1vb5crLdplUi3zb6ZkZeW7/izkHEnVwH1rT0iY3XnUdOKzxApvqZ1EUtdRorKuX667YI1vXb/aEmFz6sWAh09vfm8tuYleXAkjsDgk7RAIJJoDATPI04uA89I+rRASJ2y0UP7gqiNTigf6tvyPOb39RnDs+IFIDoSbXIKZ4KMp89b/C7QaxSFhIgASCIxDRg3JwA4h2T856BJ9fg8DnphwrysR506/g/mgpnoQ2bCwwaKBsxH5yv/pfJPP/vkvcH39GXA2OzWJEQFe0O+EGw3JpAur+Mj4B91qDoilcNdCnxrlIStFzYe+Bl3IWxIoR62P7pi1y9c7dXnaXuIxfU+vu2r5Ddm7b4cULyaVfGnT1AIKiTiJWSlpK3J7e08KV4yCB1UtgZBApmO8W6Tq8ehnEZeSNG0Te+wmRn/+fCFa7B65JOZp5n4aLzSP/tDrErbgcwyj6YTqRjKKPbJMEFgg0bxLZ8yaRNtzvMBnxFcKmtFyc239RnLWI/xHn812D3vecEPdHfyOZv/l5ce//BrKBjZ4feTQrzAvYo3xXiwObopPert6e0Nw7bPoYZR3lo25CpkUDfjYiGGeSisb80JdtUQuPcmR02bF5m/cqQWaXuBXt45b1G2UPxJlcApnqeTGEuIpH4AoTZIacKHkxBkiU9Nk2CaSVQPdxmOh+X5y3wWcwV8uDODPCj0LsCyxCnCvuhJn4djxEf1LkhfvhroQAqjZlZlLcx7+FrD8/BZPzTTZ7YB0SSD8BnVCv3rlpBMcXcTxu/BlYvrWK+wLE93Nn5jNmaUBDzai1uGC12tn1enFu/uBrsZQWbxOHf08Oi3vkSXG//5ciiFFwYVndJ5hmvhibmEBWF7PfMp3IaXYLXcku91LXX0h1tf9LA6BqJhSTopPsqooqb4KtbM1L+M9RE0gh+8qxI+ZdPV9Dx6zpbLcioO6mtRsQHz7e12Nbc4vX8xcP7rcOjjoLV+jO3i7R+CIL+7MGGIOKFEBicBDYBRJIHQHkEJdTh5CSGWnUgsiSEltA4f9wW6No2iTOe39f3Op6kUe/iWOzsIposEcd7kCPZJ74ihS8/T/B3YY/IQb0uCkJLE2AgsnSXEw+xb3I2XmH9xJNHz6CGAaaJWsOriMqVCtjLfpeDpfAari9IDtDbAt+O93HvijuPZ8SGccYFpeF8Sz+fJX8uxnxrbZV1ciz+14UNc83KTNINd870Cvr2xE7huUCAiOjIzJqKCoVYpGltakZl1a8RYCFgarIc/zMCWPxbKG+vqurj2Z52bR2fezFj4V+q2gxh0Cv+4+8YuzitLAPTSN9pvOs1MGtOknuTgv9z37n02s2Df5NAiQQHIHBTnG7j4qTZgFEH6yTVCrqxUFsEBfRwuXef8MEYca895NYcdv/mMgN7xNp2WZenzVIgARIIJ8ENEtWfYIntxBv3Ac/B/Hjs4j9sYQFywK7hEw4F7ob9HtLY4snYhw5edRo1zoJ7EGWk3VtaxMzaTcaYA4bn4NLiFrJmJQiBN1shlVAUsoQrFTOdnYg5e0y19YygykuKpLN6zbIpvVq+WHnirXM7vP61dq2dk8E2Xf4oEzPLCGsrtB6BhZ1fQP9nhvZhjXrEn39JOvIrXBg+DUJkECMCEwgDWvag7QZPijE4uiUVorzlt8UufX9SP1osWKjz0Z9eEja/5P5ldVYDIqdIIE4ETC9rky3j9NY2ZdACcxMiPvo5xHrAwI1xY8V0W5cu854EqoxDDSeganlyIqdSfgGahnR0dNtPIpqTb1aUenVMxVPjBvLsYK6cZw4c0rUBca2qOXQZsTVKEyY+LEw3rXt7ectV+wkgImpSU8AGYcLWpKL3eiTPGL2nQRIIBwCiBchU2b+ueF0LMBWkiiA6PBVBLkTIsjuW+1gaMrjw8/CzNz8YcmuQdbKjYDBBFs3Ndg8t36xNgmQQDYB99DDiLMEF8XJlSYXKbpQc7jfaGDHGrjCmJapmSnpHxowrZbq7dX9ZUTdlw1LO1wrkuL+0gvrhZ6BPlh/ID6QRdFMN5rxRa1AklrUZWkTLFh0LDZFRa6+wT7PEiTugtdy46MAshwdfkcCJGBPQIPPwdc23cXMVDRWLKqbxLnr43BjsfgRxAqa24WMMKdfiNWQ2JmgCOQwIwmqC6tpP8S9mo72pcc6hcnnU99FnCUEoVzpp0XdX3jeIMa6I62IB2JaZmZmMIGjAJLNrQvpgU0ntAUIcm87kc5uO4y/Z+H6pBluJlcUF5fujQbN9VLKpiB4ro5lC0SQqvOWO0uP+NKfTiGIcHd/j3VA1UvvObxvKICEx5otkQAJpI3ASg+pcR/v2l3i3PYLdg/SAx0iJ17Cg7qdH23c0azq/nFildvhN+ZnXCG3/rF2LAmooOyeRfr4Wb+xmdJx3iCHj/Xx0Al4C1ayTS0QNA7I8CjdYBbAq/Bh4/5SV1P7qvvLwr7i+j4wOCADw4NWsT/0/NqxaavUVptbG8WRh46nrrYOMXTs4uDoo29Pf58MDSNTVUItoSmAxPHMZJ9IgATiT0B/ARJ6438VbjGyIOx+s8jWXa9+5PsP+IFKxzGRQQghLCkjYD8hSRkIDocEwiNwChZ1I8ic5qvwGl3ApPEnaiqrF/7p611/vjUOxCBigbAgXBtcX0bHzd1f1rS2GotPUfDWgKddfT3GGW4W+trW3CprWttykOoW9hSfd3Xj0ew9DXXIDGhR1ApEsylNWQRTtWgu8CoUQAJHyh2SAAmsHgJJNwHBQ3TdGnFuQEBU0+dpDN3tOy1uL0QQFhIgAXsCXjYP0wvQvjnWjCmB3rOI/eFzEuqdLjxn9EgWI6uZpsU1LZOYwA0MDZpWS+X2XX29XnYQk8GpFcHa1jUmVSLbdhCWH32D/cZj1A5rlput6zdJiS4YpazUIIDturY1UmQR08SFn56eNxMJDYZKASRlJzOHQwIkECKBpFuAKKriMpHNe0TWbjAHN4AH9p4T5vVYI+YEOLHK7QApPzLMjeEqq62/JWMIfDrjMzgjXD94is2fI4WYoLY0NhtbIszA1Wh4ZERmkBlktZfu3m7RLDAmRd1BKhCENu5FJ+p9cH/RzD82ZS0EguqqKuPzy6atsOtoGt/G2nq8GqyaVsshz60ILmVJKxRAknbE2F8SIIGYENCHBbMHhph0/OJu1MK087LbLv58pU/w8Ci9nfBZN88nv9Ku+X2ABDgXDxBmHnblWYDkYb/cZXIIaFYKmOmbFV7YykstEXQiXl1ZZYYPW49PjEEEGTKul6YKYxPjMgL3F9NYDu0trYnAMI7xqQWIxn0xLSUlJV6cjFK8p7WouKMWVCok2pSu3h6ZTqAbDAUQm6PNOiRAAiSgBAxXTGILrRLq/+ZrkB7X8Ede9Z/BLjgQI2sBS4oIcGIV7sEk73B5x7A1uHHADt3AqoPnTPZRLCkulsZ681XscWQEGVIhfxWXbkxgZw2tYAogOrU3tyWC2vDIKAQQO+uPNlgWaarlNBcVEBvrGkQD2tqUXqQVntCYcAkrFEASdsDYXRIggTgRSIkFiJpT1+Nhpn2TMVx3CKnzRv0G7jPePSuETgATK86tQqfOBkkAJgxwSSz2B4LX6AWciosggGASpyb9JmV6Gm4wo+oG4zfzjsne47+tWn30DQ2Ipog1KTVVNYkQBlTYGYSFj1qBmJYiiJLqWlVWWmpaNXHb11ZX4/qpt7ICUcaaEcbGwiZKUGZ3iih7yrZJgARIIG4E0mIBolxrWkRad5gTHu6GBQgFEHNwrJFWArqiZlJMtzfZN7dNEIHaZpGScv8dNjvN/O83gVuq8FGFbDCmq/UaH0Kzn4yOjyVw1Ll3eQIWMMOIjZExdL9qbW4xFpty7635HsYnx6UfwU9N3Xu0pQakidUgoavh/qzXTwPigFSW2Vm7dHZ3QURLViwdCiDm1xNrkAAJkMB5AimxANHRVDaK07zJfPV/rB+O1Hbmpech8i1uBAwn8HHrfvL6w5ls8o5ZHnpciXSUxX5Xm/Wc4XmTfRR0pb4eAR1Ny+jYGNLArk4BRDOjmMZv0Mlyc0NT7IUBFT1GxzT+h/nzibr4aHrYinIDQdL0xIvZ9vW1tdbBXuetbBDEOUGFAkiCDha7SgIkEDMCabIA0ZXHOqxAmpp76soZVllYSIAELAlwHmsJLmXVChGDya8LhydS8sTJPgNKS1QAqTW2TJicnpIRuMGYxsHIbjuJf6tA0D84CAHEzP2nurIa1jYVFwkgak0Tp6LHcwjuL6YCj46hvKxcNMuNTXrYODEw6YsGeq2H1YvG0zEtakHU3ddjZWlj2lZQ21MACYok90MCJLD6CLimUftjjEgfqKsQBKvaMBDWDMweEUlf5sweomJMgl3jynJu5wAtaHLjt1prayYY36I67tdp0T8CGse8G0yVuRsMmGscEHUHWU1lYmpCRpDG1DR2QwsyhiRBGJiCsKXxTWyKur7YZBWyaStOdTSQcFlpmVWXOnq6IYHFSwRbbiAUQJajw+9IgARIYDkCvh9Wl9tJjL4rqxapqDPrkP7eTY4yFa4ZtZC3DmiGEXKvV09zPD6r51gvM9I5pBP3G4shRaeME6CSUwmXBV25Ny1DiIMxNrG6BJAhuIaYij4qMmmwWQ0QGuei1i2TU1MyNGye4ljHqOdQ+Spyf1k4ljVIJa1xdGzinmgsmfHx5FxDFEAWjjrfSYAESMCYQHLUbl9DK0UWAhVBTMsMUqDRAsSUWny3T9HkKr6Qs3tG4Nk0Vu3fmonDt1WhnjPpOG+CXDUuKyuTGmS00EmsSdE0njbWECZtxG3bQYgDKhKYlBq4v1Qi2KzNBNmknVy3nYM11eCIuXuPtluOc6i6qkoKDc+hXPsch/qFhYVSX1MnxZqS27Ao8+7+HsNa0W1udoeIrp9smQRIgARIIN8EihCAr8jC/NETQJIVATzfKOO1f1OhLh0Tq3gdg2V6Q5eZZeCspq8MXCpTdM4EaQFSWFAI14VqqUAMB5OiFgODw4Oi8UBWQ5mE4DM8hrgnhpk7Guo0RgRi1SxVTH9mltpHQJ9p/I/efgRotyhqAaHn0Got6gajaaVtSlcPBRAbbqxDAiRAAski4Hu1LiHDUrNWmx8+tf7IUACJ71E2FTRMt4/vyNkzEkgMAaMJJK7RFIkgQR6j6spKqcLLtKhFxJShRYRpG3HZXmOejBm6K6jVh2bZKSmxmxyHOfZZWFP1Dw0aN6ljrCxHOmUEeV2tpa6mBnFASq3sy3oH+4xjykTFmRYgUZFnuyRAAsknkLYYIPpAbTP39erZVEz+KcARkAAJkEAgBFRQ9/ubwtvtJZHrBFZX8E3dNEaR0UxfmtEi7UUFkHENXm5QNCiour8UOMFOHY10Px/9VWueMaQ11iCopqUU1i01q9T9ZYGVuo81QOgqgDWVaVHLm37LwLOmbeW6fbBnca69YX0SIAESSBIBvw+rSRmT+qDry7Q4+KEM+KHItAvcPkACnFzlBlMFQaNiur3RzrlxUgioK6FmgvFV9JxJy3kT7Fh0AldThSCWpWZuMIq9DyvY07Ppzmg2NT2NtL+jMoPJqkmpq6lFfAy4yca8qIDVN2jn/lIKy4dqZIBZ7aUO6XBN4+gsMOvp6134M9bvFEBifXjYORIggVgTSJsLjGYhmDVfNRFdKaAAEutTlZ2LMQFjwSTGY2HX7AlMI4MCXQnt+WXVrEUg1AqLLB79AwicCYEgzWV0fNRL+2syRp0M11XXSVmJRYwwk4YC2DaDhSkb9xdtWlPArsb0t4ux19fWSmGhnUTQN2iXenhxH/L9b7vR5btX3D8JkAAJJIFA2ixApmASOzliTr4U/rI2sUPMW2INKwKmK8Wm21t1ipVIgAQWCOhvydiwyIzPybdairh+rUUWGlk971Vw1dA4IAWG4uIIxIGxiXF4IgXtmBEP9p57yPi4jBq6v2hgUI9nAjKjqBvG4Ih5+lsNoKvjLC25RJDXeBzCUHqhQYRNAwkvdGx4dBjWRfG3ojLPc7MwQr6TAAmQwKonkLKHJBU/xs0fHLzUuTbZY+Jy/qglz+x56xeNiq8TC/1M/9YHvgXrFn0vRAA4fWnGHA0amwgzdJPzNFhz9IsO8QxWuSeGxZ0aB18w90z+0T91oyoqEacEZusl59MxG05eLmorsg8MBaR8j1NjGqhll57jamGwYLmmlluvnss4p/Pdj8iORwIansB9t78PAohPt4RhZFuYsBCrE4AiiC5qOs+66lrpLOlGqle4FvksKhD09vdKU32jVSpQn81EtpmKAxr/w9TKRVMLVyUkMKg3AZ8xn4AXFxd58T8iOzgxa7ixrl4GEBjYVAycw+/N0PCwNDU0xmxEF3aHAsiFPPgvEiABEli9BHQFctQwcrqaSaoFiE6k4l5U0BjrE3cM/sEq9GAiLpOYiOsD8sQoXvjMmyhisqgTRfXJ13EtBAMrwE9mCcZaqhP0WhGsMgoC7kllvTjV+LGvbsHncfMfNhU0VCwxEUxWOOgqcAx3idt/GhO8DpHBbryfEXcY72pxpLx1tRXih8e1ChxrwLFhnUhtg0hdmzj168G5ZoWG+LVHQMUNPa+HOsUdwSR5DNczAgJ65/YkzvHsOBPKXM9nZVuO8xZBDqWqAedyM7i3z4t8xJp/Anr+n3xe3L5T/tvq7xTpOiay6TqR4vi7JfgfWHBb1iOOgWazMBFAtHVNnzq7cTaVAsj45AQmp2aLHAsxVcoMUwsHdyTN9tRv6YKhqV/p/vIaa834I3LitQ98/qWCyQBSSlMA8QmMm5EACZBA4gjog2taik5EhxC8yjA1nqifta4MxXH1WI/PMCaCPZgo9J3BxBvjGzgr7iAm4qOYHA7j32MjItNYLbI5lCUQRDRgWm0bJuxr8dog0orJeusWcVq34ztM5hNhIZJ9EpsKJtl1s/6ehhl55ysix18QOX1A3I6XRTpwHCaXX5l79TAUQVirx0S8ZYvImstF1m7F6wpxWvCeugmfocVIFub5P0EN1lvuOWV8WKTzuLjdx3G+Q3RSwWkcQt5K96qiQgh4EELqIXw0zJ/D0rxOnLU7cT7jXFaLp8QW8FHxU69Fz2orJgNRcXAc/vJn90vm0S+JdJ/037FJWPM8830cqzUi229J4TXhH8WlttTJrLrCDI8Mi8aF8FuG8ZswBheRMgT8dBJ3/770KHViOg73niFYgJiUcggfyrLQh/uLf8omPTDbVq0PbIoKIFUqArN4BGqRDld/mUyPqZ5nwyNm51gUyGkBEgV1tkkCJEACcSMw2g+hAA/gBg+K3hCqsUpQEaPVee0/Vr7d05h4nzqAVdITGNdxTAbPQvAYMv81X+44TWNS1Y8JDF7ucUw+9WlBxaCWzZi07xDZiAn79ptEmjGJV+uRJBQdg75sCywM3DMviex7UNyjz4qcARc8dBs/Rc1mRHq6vJf78hOYnMPiZi2EkM1XY8J3gzjr98TYKsQQoOHmFxwaTKDdgw+KHHkW5/z8+e6JeqZPrbOYjA/gXMbLPYb9aJ+wgu62Xw7Wu8D8OnE2Xe9ZO13Qfhz/0QsB6PgzEH8gdE5C/JnG2Dx3NgxKz6NNe8TZeC2stfIw2YGQ7AmuXUc8UUrmIPhdcE/FgdH0nOqOhNV4GcC9SoXCDtyjDINvukefF7n7b0W2PI57DiymFqykPFcntKt++DrupdK6asymBcs2PYaeyx+2120X6iAlqNSvEWfr68CtFedELidq+CeK5waDzCXdyEox7Te2CrqpWUR6IJZrKlCnIFljXo7yLDK8ee4vBix0fyoi1SQkM4pOvocQg8K0aMpkFbxKinFdsHgENItSSYm5BZUegxGIiBncU4JOmRzkoUnIE1mQQ+a+SIAESCAoAqazjKDazcN+RrBSrA/ipqW6KR6TIqym6sTDPXCfOMdehMXBUVh9QPTQyUZYh0nbGcNk//h+cU9i4r//QQghPxG57HXiXP12kaZNmETAsiGNRSd5vSfEffbb4u57WOScTgAxwQuiZLDvIbhyDD2ByTmErZcegLi0S5zr3gFB5IYUrH5bTLLgouW++AOR5+4R99Q+nOuY7M9h8hpU0XN5EMwHwfwwxIR9D0A4uErk6jdD1LsF7kp5EA8C6Lt7/GmR+z6H6+/FefcfjQWgYpoWxYwsD9K6UeSOX8Y1+bZgzx240Ll77xb36e9B2MDxUHcjz/LEa/38/wDWEyYgymgaUhWebMuci+sBx16F3kqI0Bo/R4talqgLn6Y0178vEGDmN0GKhwvvRbqNty1YLdRRaxm498nm3eK8+/fm3aLOVw/yzeLs9928xvI4ceaUkQCiO+/q6ZYdm7b5bicJG07jt3AA91GdoPot6v6i1h8VCA6ahKIpficMYr4sjEkDoFbBnVWFEJZ5AgUQ/2ohfJm6kGntKYhsWq+iLL7nDQUQnukkQAIksNoJ6OqfxmeA6bxpcWqxQqixL6IqXt9PY9LxTYgfj3pm5O4oLD100hxl0ZXUQVjVDD2JCcrL4r78iDg3vUecPZi0hz15zPcznU70Dj0imYf+1RN/vGwW+cKvosqpg57A5R55QZzdN4lz6y9AXNqcuBXq105PwwPUfVTc+z+N8x2TfRX58n2u60T9HMTF7tMix54T2fmIyM0fEmfNzgsn0a8NKJq/NKjuI1+CMPQAxAcIH4uLnpNqEXLqFXGf+644G2DZ0gpLrSCK3odO7xP3x5/B7PlMeKKr9l0FHhUIRV9BFvCEoOsi3oi78SopuO2jF1qNBNaU4flv0K4G76yAVZ5pZhd1E9E6SbF88INkcgoCCGIzmJQyWADUwjXOj/uLt18DccWkH363HUL2FxOBZ2G/KvRUJiTI60Kfw3ivwbHv6usxbmoOYvwoYk9RADFGxwokQAIkkAACEf/YB0ZIA4LqiinS4xkVfW7V2BdRCSAwN888/TWRh78I4QMCjmZFyNfE2whM1sZ6jqggc+g5TNpPiHv0aSl4x39GoM/WrI3y/afpBMNgewQyzTz8zyIPfhnzL1gR6apzGEUnuLDycQfOQQh4Qpy3/KI4N34wJiKIAT9l5XdzWBO4T39V3Ie+AkHisLHLRM6HRS0XOk+BOY7zib0it/+SOFfBikIDqcah9J5EPA1YHi0lfmT3T+8R5yCCDHUhVk9AAgiuA/fEC7gPQZCK2z0oe+w2f6uVyisPibzhI6gNy5EEFV3Zb6prhJfiAIxtIOT5LOoGo1YgaRFA5nAmx5G1AABAAElEQVRfVtcQtZAwKeWI8VWnsYESUjRriU1RgUdT4LJcSKAOLmQ2Rd1fxvR5stGmdjh1UmqLGw48tkICJEACqSCggUIPPWz+4F4FM/hGWH8Ul4aPAcFMM//wSyJf+0uIN5gMjsdQ/Mim4rlx9Ik88UPJ/J+PYKJ0LPvbeP3td0KObCOZr/4e4hB8+rwLRkjiRzYttQg5ByHkq38umS/+LkQwsxXO7F1F97cCXwH6JFIH3/1n4n7nr3G+Hwhf/MiGoybmJw+J+5U/FvfeT4G5uc999u6C+tuFG587jb75KZodZwrnTlBFMxoh9kjerXGC6q/pfiAWLelKY7qfCLZvaWySIg3ya1jO9XQa1ojv5jOw4urT+D4GizbqDlIJt5AkBQY1zXCzcMQKkM2OFiALNF57r66sfO0fBn+pgOgJIAZ1wt6UAkjYxNkeCZAACcSJgAbMO43YHyexcmpaNFWpZukIubgv3yeZP/tpxIJAkE1NX2vwUBdyVy9uTgPQnTgmmb/+GQQIRbDQpJYpiB+f+jAEnR/BrcDQcijoMeuKuwpgj0Fc+htYgXQcDLqFaPenmYu+/ofi3vcFz60qFue7CnpYUXa//5l5EQxZaCIv0xA0NPaFn6JWDeqmFlRR6xxNM5zWkuDYCLqKXV6G2C+GZQDpVKfgNpKGMgPrrb4BCPAGpbSkBIFg60TdQ5JSRsbsrsGioiKkTDY/R5LCxbafKoDZFE8Aifq5YIWOJ+esXmEg/JoESIAEQieQpIn3peCM9iJw5detVi6d5s3itF12qT0H/zkyKmQe/kdxP4OV/qGECR/ZNPS8GUCU9L+DBcuZffETcJad7KDvQx0QcD4gchjCWZCTyGxGNn9rX04dl8xn/6PIUcRe0WCOUZRl+Rl0SM+TzkOS+dr/EPfx78NiAeJZ3IoyfuIeyXzuNyCE2U0+AhuSHn+TezLwsvgkUISMMEGd1z6bDGoztWRoaWhBRooVrKwWNainx9nuc4s+Td4/1R1BLSNMg4OWIv5Hfa2dC0QUlNS6ReO2mBY9P6orqhgAdQlwhbCMsRGG9FhoEFQVQuJaKIDE9ciwXyRAAiSQbwLqE30cqRRfRpYH04KUcdK2AbEs4AITRtFYE/f9vch3/ja47CJh9Hu5NoYggvwrxJyuQ8ttFZ/vdHLZe0Iyn/kVWAydjE+/snuis5aOk3CH+QNx9/8EASJjKBpk91f/XmpipsJC12Fxf/hJkRfug5izuFLM/v3iU5L5p4/BKqQ3Zh1bpjtm8+FldoSvkFXFiUsslOV7avdtqd1KsF1jwddqa2lGAi7zKU9HV5eR20jwPc99jxkEpOzq7THakYoCmvmlpio58T9U4LGZcKswpql+WZYmUGUZG0Xjzpikn1669fx9yiww+WPLPZMACaSdgMlqYxxZDMNn/v5/QOBKi6XQxvUiW64NZ1QaYPDxLyK95ZeQlSBgU3uscAjy3XuZWTSNZBGEHW+1c+FhGWx0Eq2vGZjYa6BVjR0QRLBPPX86zkjmu38mBR/8k/DEpBWP2hIzQ0/8gOvOV/8A4scxs5X2xe3phL8Yjx+aZlPTAmsGDS8lKAS5IK4pPZ3PHRf5HsQDBEGUy26bP6aL+xHXfysPTel8z6fEfeaHuYsfejiLi+cZFOhjHwCp+Omd03gPqrz0tGS+8QkpeP8fIX1qY1B7zc9+ljjFc2qoGPeO+jU57SLWlSvq0L2goYU34vqaerjBlCMzhZmVUj+y6+hKttZNatH4H73ISGZSiuES0lRXnyj3l7Fxs2P7Kg/8HpVZuEi9Wj/lf2hsFNPzR5GoGKVBd20sSMJASgEkDMpsgwRIgATiRkBXmJ+G68uxl817pqudbVuQRvIa87qmNZDpxd33E3E1y8hQQKvL6L/ggVjqkMIXptGyZpNI++Xi1K/D563zQkQhJoxaNKbA+IDISI+4fadgE30ALwTd7D6D1MF46QN1LpN2jUVw6AVxH/03cd78G8ioEdMHbYw9872/9PpqJf4Ug3ntebZVmEzVg38FVhdVbMIx9lLnwudeRvAaQvBBPdZYucyluGfgovOTz4qjaYc3XwfB5fwxzWWneambNbHUc2kQmW3u+6y4T33PXvxQYU8517XhvUGkGed5FZiXV8+Ldxq0U7P29PeJDGN1eBDMJ/BZril1n31A3IZ/RFaeXxcpQ1uxLVnMg+ijnmNt2zFmXL8amDdtpX3n0pZKCRmnWjSsaW6VQ4YCiE7ievp6ZcNaCP4JLcOI1TNu6BpSXFQsjfUxFzEXHQ/boJt6bpSVlC3aG/+5QKDUMjbKvAAS3xg6FEAWjjDfSYAESMCYgC41J7QcfwqTrM95i8HGI9CJ1WXXYwKrq4J5LDoZPP0S0twi+GP3ydwbKsVke80OcdoxUdmyW5wtN4o0bcIkHFYflyq6Yl7V7L2c9l0iu98GS5BJcToOIHPOo4iDsVdcdSMatVx90nbHEEzyuR+Lo5P0y2GtEPlK66LJIbJrZB7+F5H9T5hnH8Hqkay5TGT9DjC/Wpz1e5A6GUJTIY7F4gKu0o80qyefQwyPF2Bpss9LdSuzlkIITh/3CPZ1PybkFbWeyLWku8nifuT6b7VwMSlqBbNQNNvLY18Q94lv24kfalnTtFZkA87VLXvE2YRzqmXb0sKaXl8TQ7CWwbmM9MxyDKmwT4H5CLK62Ip6MxAsH/k6+rBenBs+MG/lszC2NL/DmslZt1PcK24SefFh3CMCtKyJkpueyu2bpWDX7bgtZZ2nUfbJsu32llY5DOs1k0woLqylOuE+sn7NukTGiNCxdvZ0GRF7zf0lzgLmxUMan7ATHh383papSy/LkgQ0GK5N0dgzpmmXbdqxrUMBxJYc65EACZBAUgmoef23/wITHaz4mpYCPBG3bRRn1x2mNc23R7BN96lviHsCk7JctKZC9HkrJt+X3YTXzSJrd8PlJQef32KsFm24FhYwcAHacwzCwL3ivvAAxBBMIi3n6tKNif+z3xVnLVZaq7FaH5eC7B7aL3nmHljCjPrvVQkeLzZdJbLrZnFU1FHmK/ngK9dWCFR4ybXvhXgBwWX/AyL78Oru8N929pZw73IPQKhq2gALm1+LkZtRVid1YqkTTVhluU99RdwHPo8JNCyDTIpelw2wsNl1C67NN0D8eB3cUGDxsVxRoUZFzG04Rlsxce85Lu7BB0X2/kTkCAQoWzevUaTbfAhjaEGQZO1HHIuO3VSoWmkcEFML7vhVcWvbEb/lhLhqZYOVdC82CI6xq9ZkaNMprYElDl5qkTQ1Ki5ivchZvCYhAJoWtWBTsUkte/T6sS0qeGn/9IXj7uJG5hRiUlgD8Xf3rRBBIGIGzcu2r5b1amvqENei3Cg9pwoIg8PqBjNllUnGsquBVZuDBYtp/A/N+tJU34CwNrDaS1DRY2RT9LQuQ8BXlqUJ2LJRC5BpuMDEtVAAieuRYb9IgATiT0AfGpNWsJrv/uB/Y4V9v13PyxAtfTcmtPV5Ngmemxb38BPivoQJ2fSMXV+1FlwtnBveLc41bxVZB+sDjTsRZGmGK9AbN2PCeYPIU9/GBPabsAYZN29hZmbeWgGTfuead5nXD7QGngi1YDLkHn4MFglfQ9Yag1XEZsRCuPrN4lz9djC/YnkLm/mWLv4/rHKcy98osvEaT0hxn4QIcxCCiI1bzBTYPnO3Z4niXPPOpa0hLu5BeJ+cX1nPHLhX5J7PwiJowqztYqzQ7bhGnBvfg/db7EQe7UPLVnGaNoH51SLP/hBuWV/EpNzi2lM3mnMnkJb4q5icY3/qVrYaigoasLhxWrd6bkwyhftAlgDiqLigSpe6BpVBAMF3mjnHgQCSeezLEJ7uh0WOwb1jM6zYbn4/rrGdEEB0f7lM4nDMPAFkDtfYrDj626buadXN8/09f44m+TAWYmLf1tQiR0+dMBrGNFLI9iOGxto23NcSVoZGhmTc0CVLObU24bgnrExO2wkgKviUaIwkliUJlJba3Vc8F5gZCiBLQuWHJEACJEACIRIYHxL3x3+PB21MtGyKLpW0YyX92nfnfzWw7zSsKn6EiXePTU/n66zfJs7tvyjOVXdhpXuF1XD7VuZXdTdg0qiuHa0bxP3Rp+djK5jus69D5JUnsSL/+vmJh2n9oLfvfAWT4C/BDeW4vz2rpc3GK8R5w78T2flGuA015n6e6MTu6neKA6HJrcX+nsM5MWnxUDXQK/LQv8IVB4JM3OIZ4AFcrS/ku3+F873fH+uFrdQ/+5b3iXMTJsKakjpXgU+Dxm6EZVMjrLxa1uFc/jucy4MLrfl/x2TEfflxCINw7brp51a2/vG/52C2xKmal6L3SL3X4OWriSpMLhCjpQAZZDLdZyFM7/XXLcTUcW54B17vhaAHN7MkF1+gghng2tZ2YwFEs1l0Iw5IEgWQju5OI5cfpVxZXik11bjvJqzYuluUQEBWEYRlaQKaDtmmzFuATNlUDaUOj3gomNkICZBAKgkkyQJExY+f/K2IrqRPWUwg9QAiQGfBbR+GVcWa/B7OOazYayyCg0/Zu75svEycd/62ONdBrMmn+JFNoqoJq/A/K867fher6W3Z3/j7GwFRNZ6Ie+5lf9vncysEfc08/W0IMs/6s7oowsR5F1yM3vN/QbD4KQg4TbmLHwvj05X1dVjtvuvjIje9CyvSWJm2KO6pQ5J5BhY6cDuIVZmdFPe7fypy5ohZt8rhXvGe/yTOnR+DixGEnVzFj+zWVbx6Hc7l9/8+xJCG7G/8/62BbNWdpvOg/zqhbRnirHvFMaEva2DFsWEH7rE+V6Irq0SaNyZf/ACbMI9ETXWtVBqmPNWJ3CDi4kxZWhisePjztIG673R0G1junT8WzQ2NUqhCaFjFzb0hHavt8Sm3DPKZe6+TsQfNCGRTMnpM1LI1J/9lm5b91aEA4o8TtyIBEiCB5BIY7cVK7l+LPIrJn2EU/AsGvesakavg1pDvR1bNuPLyA4g5MXZB877/oVYqb/2YOJe/KTe/eN8NZm2I2CLOHqzMvvU3kPXEYhWt8yQCUR7wAq1m7TXEPzEdgQm8exTi0+PfgljgIy6BBt688vXivPu/iGyG9UA+MtnoA3kTrBLejMn+DRBY/E4Us8mp+8xjGFPnYfsgn9n7C+jvzCOfR6YjuPeYTAQqSsT58B9DEPpA/lxMNKbE7jvFed/vQfSsMx8tXGHcYwgS/PLDOKcsRVfzVg1qhDn1XqFbKvK1QtAoh7Dhp2gGpXxcZ37aTvA2hciO1NIIcc+w6ORaU+ImqQwOD8GbzsClSgcHC6Z2WMnYF5Ob2PlWArgMZ2GlM6eZ7SyKbZBPi6YSWUWvGQ2Ma1pUlFLrqYyN26ppYxbbUwCxgMYqJEACJOARwA0+9kUDnn7rT0QegfgxOmI2ycoeXGWpFLz7v+YWPDR7f5f8G0wHOhD88sFLbrHsF5UV4tz6QXF2vRniR+mym+btSxVBYAXh3P7vwcvniu5CZ7BiIqdemo8hsPBZru+mDy8DZ8S9H7EoEPxvxaLpVi9DgNn3fwIuGNvh6mC3WrRiO7qBxiFAqmJPBNn5erRl/lAmmBRk7oMb2GweJ+SmvE8eNYtzg2vR+cj/BzHybfm3ACiCCIKAx847fweTc8NzWY8ZJmDugQfjYdWk/VkoeupYnD4L1fPyrvE2isv97VoFkzBX6f31KvZbacaP9mZz67wZ3Jf7TN3TIqbR1YN4X4bPKBVI41xXUxtuzwN4jNLjY5u5ytbCIVxI0bWm14zGhbEpev6pBVUci92I4jgS9okESIAESOA1AkhBJkcRRPQLMGF/8geImzDx2ncWfxV86L/DrWOLRU3DKtMTyPqyF5NvOzcFjffhXPvT0a+OlteKc/17EdAUk1TD4p55Sdz+04a1AtocmSsyz34HWUD2r7xDnUCuhbXNh/4UwsTaeYFi5Vq5baHiQtMmWNj8OtxiLrfb1/OwSOgydDexa8lfLZMHxFKkW/0weGuAWJ0Eh1E0xgTEFueOj5qLTjq5OYLr+ThesCyKT4mb+gEyanFDUSOvp4iuZGt8i4pynNMGZRbnrlpUeBNtg3pRbnq2p9O4+faWdujKMbw2VhjJjAZNX2GbS31dZOnican9pfHzQkv3Ss8KxOT3LUR4FEBChM2mSIAE0kbA9ic3jxxU+BiB7/39nxb3H/6jyKHnEd0/BwVelf/bEHfhuvei0yE8GCErgnv4ETtAazaJXAPLj1rzFT67Bleo1bAe3N4K//6NK2y46GsErpPec5gwYlUr7DI2KHLfP/tbTatvFOeXPulZZYTaTX1A10Cdt74bx7revGmY5Gbu/5S/MZrvPX814PbjxeTYdXt44sfCaDRd7nUQFq+6DbcBw/vADISPAw8h0Ouxhb3xfSkCKmj5zraivz0x/P1Zalwx+6wI6V2bG5qMezUJd8ABP1ZxxnsOvsLQKLK/jBu6v6Aba1tbc+tMRKfkLOJn2VqA2E7ucwOVoNq43dumRM7gedTWNSnfhCiA5Jsw908CJEACYRDQyTJiZ8j+e8X97K+L+42/ghUFXF5yKSp+7LpWCt4F15dQCp6eRvuxYvyceWsIwulsu0Gc7beY181jDWfHbchCcwcsUgwCd+pDZMdhxECBGBF2UZPpKR8r9Qgk6HwU51jLtrB7+Gp7zus+BPcbCCE2K3jP/BiuVmde3VewfxgKBH4a11S3d/wCAsxCUFNLgSiKpsm96X1WAX7dw0+KewaxbeJiBWIq4kTBe7k29R6hLxZjAjqZa2lEwGrDc0CzjAwMDRm3F0WFzh4EsdbFEINSUVYm9TaCcnYbebj1Ze/+Un9nEGvCtqggxrI8gdxcYOyPzfK9yu3bPDrr5tYx1iaBvBHQbAUaG0BNTfNqboqnEw3KpC/Nha0KNUu6CPhercvjsGExISPdIqdfFvepL4u8/DTOtQCejDW2w+adUvC+P4Tvf0g+wRp88xj6P2rhrtO4FqlXb0bMDZ9BBPN4SC7YtU5Wd2HV/OUnRE6+fMFXy/3D7ZoXQByNCxC3UoyV6rf/Ms6PG6LtGeJTOG+G2Hf8IKwLzpr1ZSaDFL+fE+en/5tZvSi21mvxypvFeR3Eh8qGKHow36ZOGLfjGtMsP/f/K+KWGMRRmcC2++4T2YpzRt2l4lAMJ8D577LJ7DGAe3z+BxTLFgrwu11TVS3liHcxbhAkdBrPcUOjwzIzOyPFRSG5n1kQVLeD3n4EPjeM/9GOzGWmotBF3YvotJzRZ4eLOuPvA7rA+ONks5WLQNhzMQ2CSgHE5oiyTvIIQNmWWkwk1DS+CaaPDXhXv+Z8R1GfggmiplzsxwS1D6vzg50imhowYenUknfAQ+pxCc6rKIqeVyp6DHV5vvXuC9/H+6HgVgR1wrV1txS85/+ZX+EPa6IwO4WAiT8xJ4pgmE7rZnG2RDwhv0TPHXXX2HSluB1H/U8ae04ggOTwJfYY4cc6R9OML7d+JMJOZDW97kq4Pb1R5N6vGFsXuM/+CClkfxdpdWMmmmUNz/uzFXFWXv+zSHu6ZfE34f+7rFqc3beJe+QpkWMI1msw63APPirOzcdF6pBlImrx2ERrCJOy734peAP4YY4hAW2VQMRtqm+QUwYCiA5LBZNhBBNvrItQiFyB7yiyp42MjRkJICp8tDW3rLDnlb+O6ozUbCO2l0ORZXyLlWlwi3kXGDNLpLCoUQAJizTbiYZAKcyG27eK7LheZNv14k1EanCTD/vhKwOT8sEOcU/CtP8wXkefhYk7HgRNVtCiIchW40BArYjUHWIYgscAYkN0ILPLqRdENFioRqaHyh5YUVeNbXuk4G2/KbJ+T56tpBb1enoSQs7+RR/6+KemhNxxjUh17g9wPloz30QzO1x+E+IgPOrfUmEIx3VyHG3psfU9K7pE33Ktn7XbNqSifetvw4oOY4pJcW79RXH3PiDSjWvDpPT1YyKPSfluuJUEWYIUDLFK7ajby2b8hoX9u3UpJhtwX9h5y/xv2DgEfr8FLnnuocfEWX8VrMpwzUZaArwmghqHd9747FeAt/ygup+k/RRDAGmsq5fTHWeNhIKJiQl4lsZbAOnBYpsGbTUpag1TV11nUiWQbYM6jTUGCJJuW/WJAshK2Hzek5bYzXwWGLNzcYnd5OUjCiB5wcqdRk5Ar9dGrDLteZM4e+7C6itWYNXiI6qiqSERENHRoIi73oKJ6zPiPnePyHM/wkp+MnxKo0IX33bxY9t9ZD4YY5Cd1FgeKnboawyTYLUaGoC1Rz8EtN7jmHSgzcE+rHbnQVVHXAe54mYpuP2j8+JH2CsjM3B9GTa0etA+bt6NOBtvD/IoBL4vZ9P14jbgnqTBTf2YJk/hPBgdmLdqCCvbx0qjLgbr2z4k0gpROchJ/krtrvR940aR171D5LufWWnLC79HcGD3mW+JcwV+I+I0nuxert2Ba/INMRAMsjqlrkdX3gFrLQh6agViUNwXfgxXng/EazwG/eem6SBQCPfnarjBaNrXMQMrkCm4wQx7bjCzcIPB/TBmRVOO9g0MINQOFk0MSitiohSqe3hCi2m8k+xhOpYpXrP3kfa/bV2j5gUQO2Eq30zjd/Xme8Tcf/oJwBxe2rFK+aZfnA8YFzcf+lJMMi97ozjtl2MisVnc+/8Rq8Jwj2FJFgFMYt1Hv46JEx4a6tchEOO8T7Cjq7Q6KV9qtVbrwM1jPi4MrB1m4Rc/PQY3Kaz0I/2owHRVxrCi6okf5wWQIQggw5gIz5g90BjBVMGwvkWcG94hzo3vE2nbvnT/jXZqsbFaFTTCiqMXgo+fojF8LrsGcSB+GfU2+akR3TY1rVj53o4Uv/twrHHs/ZSBszhHcL7ERQDZdrU4O980H0PJT/9D3Ma58YPiPvB5CMpqNeOzaJDAY7A4GgRnvYbjVtR1c/t1yCJ0Rdx6hnsEfr827RY5e9j/+ayj6Djlpbn2FgOiPK+9RU3vf/Fj66tH8ZxU+Op6TDYqKy2TutpaIwFEJ3TqXjKG3+q6mtqYjOS1bqiLzgisskwEATiQSktTC9Lf4tklocXPmsKlhhZX7ftS/Q3/czy35gLY0jIn3+OkAJJvwtx/uAT0eaZlrTjv/C1YWtwev4CI2TQwIZJbf06cuiZxv/RHmORi8suSHAL6g3AUq58DXSJVja+6irj6EKET8yV/VVEHAdREJ15q6aFmqjMqhGCSO4OXToxn9PsQMWgE9E2XI6bDhzG5vU1EXcSiKjCLd976a+Le8xmIguC6XGlFwLZr3wWR805x1l11Cd7L7SDk7/R8WI8JYxksv/wKIKO98+cLYjZHXiohTt34XsRvWIOuxHDi2AAB4+o7RB7+nhkqCI7uoUdglfAhs3rLbh0QnybE/thxU/5jVS07lkt8WVQCy5k3irvvEVjCnb7ERkt8DHc9d+/3YbEFq5soBRA9hwM6TEuM0vIjgw7p709OkxLLLqaoWllJqdTX1Mm5rk6jCd4oBIYR3DfiKID0Dw7AsxoLKwalorzCCwpru8pv0FQeN83locngusvjCOK8a7Ussi/x5EsBxP6IsmYcCVTViXPXr4nsvjO6VIEmXNQtZ89PiTOJgFVf+AQmO7ncxE0a5raBENAfhV5YaOgriaUZqQBv/neYyNwOa6Rt0V8zOqm6DhYoTZtFDj2BlWLEyuk/g1gYEAfVwqa6EcFOt0Owwar4hivw91aRivrEkHfW7BRXLcAELkx+imb4cfNo+eOnDwvbbL9RnM2Is6IZtGJavFggj30fwqLBfXR6Aq4cD8Ly6YPBiWhBPO+pOfqGy4J3sQvy2GkWoPYNOJ1hQWPikncI1/UIroFIMzYFcZCChMl9hU1A0+FWV5png5mcmvIEEI2zEaf4EbpK3z8EAUSzDhqUxvp60aCwSS65aIG8E6xw5PFzOpeTALLC/iP6mgJIRODZbB4I6ATplp8WuQ6rwpp6MimlsETkekz6ziJF5r1fTkqv2c8kE2io9bJKOFe/A7FpsHIeeUDCLJjIyOFoqs31V4oz8bPzFjIa4V0tKCCQiAoImpY33xmcsroU2J8tEJnKVQDxV1xMzh0NgBt1KS2atw6Ko5tINhsV8TZDNDhyMPvT5f/Wc+vcSQhtp+BGtXH5bcP8thaWWBpoNM4Zajx3ztchsPeLcNsb8U9nbFzcVx4Sp+kX/NdZDVuazMQMNL7VgM52jJXl5VKLWCAm6XBVaNA4IBOTkxBQqmybDrzeOIJmj8A1x3Sy2tLQFCshJ3Aw3GHOBExcqi5ozOSedkHF/P+DAkj+GbOFsAjUIT3fHR+bnyCF1WZQ7WAy57zl4wiMejdcKgweJINqn/tZHQTa22Hx8UEEBobwUd0U32tFXYgqEJFeX2kqKszW4IFZg675WVGZHve3Xb4Zbdgt7npY3KgAFecCMdm58k5kdjEQQHQ8o4OwNnpGnMAEkByf+rR64xpxLntDnGl7fXN2ICVu+ZfMBBDUdJ/7tji3RCiA5HiIoj8wqoBQBcn1OKj7R211rXSs5HK5qCHNBKOiSZwEkMGhYZmEKGNSdPwaDLYg4YFAc4lRsaS3sgnEVbBtbi4w8QSEpzAWEkgJgbd8FJMLxNVIaqlpRjDHX0lq79nvuBLQB/2N28T5938kBb/7DXFuh4tYE1a6PVeMuHY6xf2qhfDk92FT48NovJhcSy5PePqUsP0mBG3ekWsv8l9fuV7xFsSWMJzdTgwj/TLcMuJSyuAaueNqkcqGuPTo0v1og8VNC6xVNPi4SXllHwI+I7hzlCWX6yLKfrPtwAh4bjBVVVKuAYcNimaOGUUw1DhNDAeRUXDCb3yp82NtqK2T0pKYC9t+jwv1QL+kjLbzpNZcfIyMWgtvYwog4bFmS/kkAH9pz4c7n23ke98aEO6qn4KJfLJ9MfONifv3SaAE59Fle8T52P+Sgt/5qjg3/dz5YK00/PNJMD+baZBZtXDxVbxHD19b5m2jJlgNrYf4EWUacd+DwyRcLZu27vJdw9tQgwaePY1YMxBC4lAQVNnZfRd6YigqRNF3FRF23z7vnmbSvlpAHbjHpEbA28aRrfbJb79wb+CEL5Bzohrp320sOQaGB2XSUHAIpMNL7GRicgJxSUZkTl36DEpjfYOUpEIAwXXj99Ix4MNN57GmES0FEJ7d6SCw88p0mMuXwzx+x7XpOCYcRXQE4Nfs3PJuKfjwX8CM/k3JjJcRHb38tqxBW5OUbrAdK/xtCbD+WDhq6ma0FXEpDIs7gow7Z14yrHWJzXOxLFArlrY1IprZKCHF2fp6WN2YryJnXopQAMnlGMXiuMRAHI0Fh9w7UVmpAghcqA3PicHhIQggyN4WgzI0OoLUvHCZNChq9aLCT6FvQd5g5yFvWmBqgZbVvzmTAM5Z9VbTn6bXxmtsVJiKp3xCAeS1o8S/kkxAzZ7TUDSwo8XDexqGzjEESGACmS0e/oZkPv0r4v7k72He/xzMzZF1IQ4BNQMcZiJ3pa5HSRFAimEttGYb4lEg00dSCrLUOBvgPmL6QDzaL64Goo66lEDAQXrZuD40Lomn/XJYl/kP7vvqPg4+JYJAv9GVmD2Y60TBb5do/RHYaaOZXGoQB8PUFWQUAUf1FbUbjMa/GIEAolYgJqUOKYDLS/HMmYJiP0FPZ4aToA+pY/nMorezAgogQR8O7o8EXiPgrDE0eX6tarz+0jSgjZvj1Sf2JpkEZmFifuakuN//tGQ+9zvi/vCT4h5+TGRiCOPh03NkB1VTf/p9IIj6MNXBXWfNdqvV/cj4FkC00Rg3tTVmXZhA8OmuE9GLhIj/4Vz+JrO+R721BsfdYvEbPIrV8zMvRtN7v9dgNL3z0areHKK+QfjoZkI2UQFEA4KaFC/t7OCAzMzOmFQLfNtpuPANQwCZmZ31vW8VDOpraqWsrNR3nThvmMske44LQyseWluBSS1zCgvjaWsRz16teCi4AQksIlDdvOiDhP5TTRGTEPguoXhXbbd7u8W99/PifvH3xX3gHxHv4MCqRRH1wB0jC5CIJzj1yETSBgEkaUVTDa+DVYJJmcHkob8HGWFgKRVI8buUn9WYTsrXb4KAk0ARfDvcYCyKe/RJi1oBVbE4RAG1nPtu0qR/xECM0kwoVYgFYjrR64cAogJElGVkfBQWIKNGXSgrKfXcftT6JcgS1S+WZrGxvZyjtuAJkn++9mV6XSz0Qy1HCnRRIoaFAkgMDwq7ZEGgKB0qtrcyHPdUkxaHh1ViQqC7U9y7PyWZb/25uC98T2Q2Hv7LMaETTjc8AcT2US2cLnqtqAtJXatIQ4LcXxbwlEAAaTWPW+IO94jbe2JhL+G/YyLo7L7Dv4VQ+D28ZIvOxusv+d1yX7iRZd/RazBu16FJf6Kaai53NJP7XXFREdLh1khJMYKHGxQVH0aRESaXNKwGzV20qbar2WjGJsYu+m65D2qqq6WywsziZbn9LXxncgYv1AnivdDL/GXXOi1AgjgCS+9DhZNCv1nvlt5F3j6lAJI3tNxxqARisIIQ3HjtbuLBtc89pZrAHB6c9z8m7jf/DNYgnznvEpPqEcdqcE6ZusAk4KdXfcNb1opof5NWEEvJad5s3utRBELtO2leL6ga+qC447ag9hbufpo34Vwxmzx6HTx7HHFAzII3BjIw/swGgjFNO6lHTIyyUsTgMShqPdA30C+zhtlXDJpYdtPpmRkZRvYXffdbdFI67/ITbPwPleSikuUK1Hra8pqe04xULMsSsBX41DUprgJIPO1Slj0M/JIESIAEYkJAf3BrEGtg2w3i1LUj2hNuqXMwh53FS9+X+2FV0U5TH3vmgXhs0DrqizozKa7GI5iESatOyIYHIFLgu6CLWoP8GO4wY0Pi3PGx+fShQbfB/V1MoBgPnaELthZPhlV1yEay9eL+J+ETtaKrx/VYgutx2r9fvIwNigx0RjfClja4v2yKrv1cWtbzug2C2YkTZnsZg/jRc0xk7W6zejlvbXFN5NzmCjvwumTSr6immyuMI6Ffq1VERVm5F0/DZMLX098r2zZuFrUiCbto4NPhEbP03aVwf6mprEF/LQTLsAfosz115TG5crJ3SxeYbBpL/21yPWTvwXOBKYQ4FcMS/tUaQwjsEgmQAAlYEahrEOdn/0CctQgAuBDbwcVqggoZrr6We0DFz7Wu+HrWANjOq6PvmLCpGKIvzZAwiQnCMOISdLyCLBX7RU4fFNEHnuV27XcwI6PiPvJ1iDWz4rztt9ORStrv2KPazuihM4iDbDnQ8jpxkjoZ12sKD/iC61O6u/0DmIRL2GC/J0KKptMNu+x8/XlBNOyGA2pvI0QMUwEE9zu34yDuoSELILazpYBQLb0bg04t+9uy9N756fIEVBDQzCi9sOgwCWyqGVjGkHnN1Hpk+d74+3YcAsjQCBZMDEoVXF+qq6oMasR/06IcJtlzBsFj408iPz10LR84PRcYhwJIfo4K90oCJEACURDQSdaN74DP/p3zlhwB9uGix+A5mLdO3i7OJB50EKTRPf2SuHvvFjmyDyJJjtYhYxBBnvwuBBy4Ddz5H7BqjvgJLPkjoFY/1mtV+evWRXsuh4CQxPgfCwNRQVKtQEwEEJ1UjvTOB0KthzVDyMVJqvvLeU7OuqvwmPw9M2oQX6XriFmdQLbGXTZ0S6xAOs6d5JFAY0O9nOooNhJA1IWip69H6mtrkfITzwUhFRVp1Ppjesb/M4BOSKsqq7xXSN1cvhlPyMtd6C9S6xvL69lE7Fp+MCn+1lJw1fOtwIvPEj824V2p8Rs7e0QCJEAC9gT0xr7zjYGLH0t2SCfNlfUijRtENlwtzut+Vgo+8kkp+PinRK7GqnEOqx9ee6PD4j7+LXGfhjWI5Q/dkv3mhxcT0AfkixSuizfzPtHnwtyfDS+x82U+1rR1mka2onaZjWL+FeKAiEV2MFezwIz0hD84fRrbckP47QbZYst2873B8s2NRAAx72qsauh9Oop7Q6wgBN+Z+pp6KSsxt/7q6kUA5Uy4B2RqaloGhuC2Z1BKiksQ/0PdX9LlAJCLC8yMZgBjWZZAxvK5ULPzFGp8lhgWCiAxPCjsEgmQQBIIYBbbsD78juoqh5rnVzWJbL9ZCj76aQghf4vYATlMVvW5bQCWJY99Q9wjj4Y/ptXUoro4hfucbE5XJwBNayDUJPgRQQOhWgggMj4o7jji7uRU/CpcWY2sgbVKBeKuJLk0bzLvvbr+dXfhmoDrYKjF4hiF2j8/jcX9RuJnDPHaRl0pGuE6V2i4qDAwPCiTk5OhDmZqekq0XZNSXlYGN59qkyr53daz2sj9Wiz0YqnZ7WeGLjDLHmMVP+YsgvyqNVSchbYEP90se7z4JQmQAAnkl4D+1kadslgnqJoCeucdUvD794vcfBesQSxXdlThP35A5CmYsA9jQsKSHwIa18W3AqITnAgmOcU4pzSob5KLBuWsbDQfgQZCHctVADFvVjZfZ1EpZlWqkTa52PCxUk9vjb0yGrLVjTdXspsw5Y26Nxn0u/cI7gt+u5bw7ZobG0UtCkyKBons6O00qZLTtjohHRwZlClDF9jK8gqprcphsSSnXi9R2bMsyP1cLipWF5gl9u/jI7rALA9pbs5OnHYKnFgH2jX8pVoeEr8lARIggVVFwOiBNc9kSquk4IN/IfKe38JKsn2AM/eFH4m7714ERvWfVi/PI0vV7t3eE17Q2VgPqggWIDXISJLkogJItYUAohmYxsyyKgSCCfEzEl/wwCuNCDxrWvReMxS2AIK+Wk6YTIfH7ZNFQC1ASkuQScqwdJjEGzLc9+LNNe1tT3//4o+X/XdJcTE8G2vFi5ex7JbJ+1JTrZqKVgujpACyQGLpdxvrD92TWoCUGAV9X7r9fH1KASRfZLlfEiCB9BMI2ed3RaBwjSm49efFecdvYPJnaU4/OoYAq/dEFJhwxREmewPNeHFqLzL8YMU7zGI60YMFiFOXcAFEV3DLKmEhZfiYo9YI42PzWZmsj5EpcMzF2y+zbi1WFRstgseqADJCqzNPkTE/dWJ1+G06E7chq/tLc0MjYmqa9ax/aADGTOG4wWjgU9P4H5r+tqHW8rnA5sCGXEfjm9gUusAsT21O3XYtSoFagJRo0Pd4FsMng3gOgr0iARIggWgI5G66GXi/YQni3Ph+kTd9GJYglr6+h58W9+jTSAeq7hosORPwJngIkvfKwyLPw7pmxqcAEtXppW5VNXBnSHpRs+hSjMWkKPNJCCAz4UxkvK4VI0icTfyM/7+984Cu47zu/B2Q6L0D7KRIUSTVJatbkm3JdmwrdtxjJ5vEyaa3PdnjnOQku84mJ5u+STabrE/OWcfOSew018R2YlvFllWsXij2DhIEiN4Bgpj9/wcEBZJ4xNzvzcybebhXBwL43pTv+039/t8tmn4ltWxdm35PuD78EUW5Yv0elliDg1vdAHeJjRTuI4YOBOEDhWtCMe+5o6VNXdFlDtVgTvfFfx5zP8Oo/qIRWyjmVFZUSn1tzOEvBTwnXbx2eA7Tw4FMzZYmMOuYI8ULcoCkVwDRBbktzcY+NQJGwAisTAIFfNhfEXh1k5Tc9gMyN9Al8gzK5c5ghlVj0xiQvPA18a6+S6R9q2bNlbcskzhysEyxKPg9LX7wN0SOmQmRaQymRwbFP7VPZPcjIowTL5SwEfbowFVaqlB1KOvGHD3lCOcZVwp5U2Pzx5OldF1MO65uxKxsUZSfRsddzhuUwvXHBrIsR7icJXmuk/abSJ7dK/DqTQyDgXg6MYl7uMK6e07LprWo1hajncMzh1VnNEavlgaEvzAMJjYr8PtQuaMHiI8EzGcRUsTjbXY5AW2emYUtBB4gnIRIqaW3ZSkFZs0yAkbACLxOIMUvoahQU3LnB2Su96jIwZf0g+4jL4uceHW+9G6hk72+DjzZvzAwk8lhhESgMsgU8kJMnxc0KGwwmek0RA6GTExjwDyF3BEzCB/i4Jk/FD4msQ4Tao5j+VkIJWorwPlFt+8KvAgyEWrWjecty+GKMqlpcCyVoslFrJQKSBMq7iCGvSgM4qvaKCKSeZKmDG9IpGma0ya4NRTg/pAIiMLvhHky2pAM9WiXTgDpRxjMJMJgKim8xmQM2egf1OX/KEUuhhaE9RSzuXqAULeZRkiRCSBLnx3OAkjKc4CYALL08bZPjYARMALLEyjwjMcVG8gX/PXXiXfLO8U/c1JkqO+Ki1/2Jb1AXv2GeNvvRj6R1su+LqoP6P46OQRGp8Qf6sZveGlgRlrG8PIbCCDw4KCYQVGDP4Fnx3kBhMJGMY1DVmEgXltXHIeXM4JlVfq+QMhKNPyrsRPRGEUigNQ4DLJ8CiAQDRM13B/TKIIkysB2diUCa9o6IYCcuNIil33HcIEz/f2yYc3ay76L6oPhkWGILDqBtgLeDY3wAClmK3X0bvHxAHcd5Bczz4W+TYcN2V1Y4fzvEoj6rsfkkk3F8k8TQGLBahs1Akag6Alw0Jv2gS8qYXjXvlnkwNMIaXkYiR11Dfb3fk+8Ebja1rQU12CBM86j6Ff3HvFP7xfphUA0MhC44cs4hA96bbAayLRb8q90nfucVlZMLZcgH0VNEYS/8CCsgru3iycLQ5mYtyUpq6cAojhGSbXLYT9eVYP+thh4gCQsgGQet+5e7nAok1slpec+q8FQOJiip5/CepAHJC4BhOV2T5/R5RnhQLSxrgHhL25JQhVdd1o0qjPZ1QOENywTQHIfuhllqeWFLQVVYFyevwsbiPm3CSAxA7bNGwEjUMwEonp0x8iocZ3ItW8SObpbpB+eDRobHUYy1KfFYx6QrIfBIM5Xul4R//DTCO3Zi1wcPeKP9kPswM8EBl9OISoamA7LFsLDKBBAHMIYHLoX+yrsC6vBKM2fnQlKFbuPkXVrekw4WyweIEjCrDYKszMJJp0NGqg7Ruo+Oa+gaFcGHj/OGFKwIsNgWptb5cSprtCtoUAxODKEAfU0SulGH0Z4Dt6Kvf3K/B+4D7Y1YxKjyK2q0sHbD0zoAcKqOmZLE3AVh1bBmzTWnDNLNzf0p/o3g9CbtgWNgBEwAkVOIAsvoBhYebvgBfLiN8QfRKlJjRcI+ue/hGSot70/uwJI/zHxd38TP4/C0wP9Rz4PmaTgUQzeHTFcXx5Eg6oicZWmqFDi8JoTCCAJeoDAa6JYPEAEpbj1hhsNvUASN4XYkHjbltlhFp49y3ThwteFEHov7PzKf6xFGIxGAOHWOJhmjo417fDsitgGkVCbOUY0xjCE5kaH0DTNTlKwbHVVtVsrcP65ejm47TBba01M6cKt2DtWHaIASO+jtJrDm0Fau2LtMgJGwAgkTQBeBVmwarz8XHObCBOb4gVKZQdfRQ7JUyKd21WrFXThWVRi2f+4+E98VuT4QXh5nM/foRF/CtqBAu6c7uhFUZEEDCnmuAggDH+ZS1AgK2e56gwPxhefriyh7GKJl6FMIW9VKAgVkCJRQVT9djm53Ndh4lCGVmhmwVlWtXegLxYBpLsHnotKwagFoTxpnol3PzoXr8nEswy7mKO3p8J4FU0rw5wUm8/8ouPKSkjsMI9DRYyJgKOAagJIFBRtG0bACKxAAnhsKl9ECgYJL5jedW8T/8l/0wsgZ1Gict93xMuCAIJqLP6+R8R/5DMI+dmHRJZwa018YFWwoxzNjuk1USwCCENg+KM1vkDnc21rB3SVCBvRrqPtU1LLo9qE2shaN2ZR7+KyFah/pFADuayduT7I5/zMtU37/DICdONvYxhMN/JEhbQ5PHMGh4eC0qpRJoGk8HGqtztkK+YX40x8R1ubap2sLkxvg6rKSuQuRxJrhZHruIOXg2IXmV10BuWBXbxjvBIv1kpIUQBNr29KFL2zbRgBI2AEYiWQoRm4pg0iGzYjKaR+gOLveyxWinltnAMBlND0X/pXmfuzD4n/yV8R2Yeyv3QTzrz4UYDziy6rFW6x1HkdxzhWXrVQBle58UCMSHB0XE7X7QT3p8ShWtzVAyRpBSTpYxwKovYcKMD9IVQ/imchTB1IZ6teQKDHSP+QrlTtctSYW2RyShf+QlGgrVnf/uXaktbvqyGAaI0CCMOKmF/F7GICE1MTF38Q8l/0ACmvcPQGDLmPfBczASRfgra+ETACK5cAB98ZMm/H/SKVdLdX2sEXkDNDlwlfuQe3xVGS1j/6rMx9+ufF/2sIH0cPFI1XuBuQCNbCi4tXNB4gGFC6eIAkLUZQdNKOfSM41LFswsUDhGKEQ7LavNof3Luzdf++uL9oe5abf3FnUvsvelA0NjRKGcJgNHYWM+f9g8pw02V20M0cVkpra2qRUiRzXSlWU+3wfgM4cwhbmlLmVlkJTMfHHQUQeIBUVejFqCSZmgCSJG3blxEwAsVFIGsCyNa7RKodElyOI5Tk2PPpOXY+EiYyuem3Pin+X35M5KUn8QZjo4FIDhAHo06JLCPZe7Qb4YweXmzVRgb8cTXtugw7KhZzKR9MXi7CST7MeLtI5S0j5HmXyrbnc0DSu24pymlTSNDY7LlZGRqdD4PRrJdrWYbVnD6jF0DWdkSfiDVXG9PweXWVm/ci+U5M6rxr0tDfuNswPIr8aQ5Gz6OaKoeKYA77cl1l5ciCroRsPSNgBIxATgIZewutbRVZtwnVUI6rB4b+a98S76o7c5JI7Isp5Pk4+pz4X/8zkf1I0Jq0YWZDOKPG+vbBD6pelGGmI3D9x3ccv3BAS3GMlS04IJzBLMo4qs/QnVQj1ER2eoUcVF1gqV3+worp+oO5PFySmWLA45Q81bn3RSSATDvMGFIAcQjNc8ZtKxoBBYFVq1ZJK5KhnuzpViUgnUJizWGUkm9RiidLNW1kbBQDdN21tRpeVSsp/IXc6mvrlsK37GdMnDoZhHsUSQn4ZXscboGRMTcBpBSCdkV5ukNgTAAJdw7YUkbACBiBywlkzAOEHfCuvhP5MuAxoZwZ9/c/UXgv/dEz4j/3r4Hnh/RHG1990cFl7CoTU5ZjNonhIGX4zTwN/E23zmr8pidNDV6Wqhvxu1m8SpYyxUCWgzm689P7gGFDMwjTGcHMXTfCc/Y9g0o8u+eTs160wzT9g+JHkQggPAYu5VVXw909yZAMejQViyEsTW28bla7lM9V72nRCpGpi4u2md+fvHX4oS+99LU/v96nd23OZjfUNQRlPTVhEhRABoajEUDo/TGnfN9obmwMKtikl2z0LaurqQtKr9KjQ2NcXptfRbP9LC7L3CjDEN60xrCx2uqaoBSudt0klzcBJEnatq/4CLi43cbXGvct851mDjPGZtkgoHwhSUOnvE23is8ZblG6e548GiQblQq3GNt8++4PnBB54h/F//bnRMaG893cxetXYvDVvEakcZ1IA1yGOWNXB3GjCqJGZf28uMG/qyB6UAhRhiwEY5obsMsdz4v/uf8mcuLQvIfIxa2wf0VOAC/BDuKCBwHEC66RyBu09AZnJufPB46As270dtIac6BU4Lpa8caUmzgVQnMIv2ToTdqCSxIoLyuXpvoGVGE5veT3S314dvYsPEBGhL85I+5qHJz3DfarvE+4r862DtddZnY9lvutrqyS0fExVR+YAFXrYaPaQQYXpoA3PY3wZ6XNCyCFeU/UNNUEEA0tWza9BMYH09s2Tcv4sj4Z8eBOs39bVkkggy+grVfNezBMKpX9qVl4MewR2XybklH+i/uDXeI/9hmRJ78YnfhB98zOzSLrr0eJ383it20Uj5VyKIDQ8yMOL4iNN4tcBSWk+xi8QMIInQU6v4phIM7TjrOATh4gEMTyEkCUQoZL2Ej+l1U8W6CYo7USvIpWQ2BM3Ap0fUXRT4rvGW7+YgS8WpRXzOLVE/mb5WybG5tUAkhQXhVhK6NjY9KERKquNjo+itKuEyoBZDXCNFsjCL1xbXMh12uoq1cLID4FEJTCPQfPWIY8mQm8P0Zwi9HfZCjj1takX9A2AcTO8qIg4PceFG9L8gOzyOFhpkAGuiLfrG0wJgIZ9AAJ8lWs3STSp0+oxoorXtICyDDa+Z2/F3nqS9GIH9V4MO+6B/lMbhdZs1WkdTMGX01w6kjopacV7Es4GxhGAOF5q38B4VrOFgysiiQkg/k/XLwD6eWTRyJYDy/Q4UMZcKQQJhXkjEn7KDDMSTXlEDMOAcSrch8ghmnWZcuk8t5dDCfAZaSL4gMOiusRXlFRXqGqFsK8EvQCyUcA6Rvol9lZ3MsU1oiQHbZ1JRoFkBPdJ1Vd51N2BpMSE5OTGLynO3mnqmN5LDw0POS0NudPeK2k3UwASfsRsvaFI7D3MZE7PhJu2TQvdXZS/DRV20gzq1S0LeHBaVR93nQjKqc8rd6af/SFZGfqWOb2+a+I/+QXRJBRPy8rg8Bx84Pi3fhOCB/b8YSGezBzPSRtFXgxYCLVMMbTK/FTDDt0mcUP05+kl6Gg7NIXhnkx34urLSTEDbv+BLz+UjkgD9uB15fzkadHbcy3wlw6ZkoCid8clO0rnsV5x66sqJAGJNk8rSiXOj0zI0xgSgGDXhlaoxdJ3+CAsKqMxjpaW/GYCfmc0Ww4A8tSAHExHqOxyXETQM7D6x8aUnkdLTCn8FaFMKS0m/5qTHuPrH0rk8BuDOYgHkhpZbb7P4WZwP36gWm2O53h1md00FKy8RZBcIDejh+YDylIwlsCoQv+vm+LT++PkX59WxevsXmbeN/3y6iAs1Oktg0CRELeHovbsPA3PRKSHLfwHVjzIgxXYB+Vdori1TlIQuuQkyIQQPJ4lrA6kMIoGnisWJN5w4nNhL9aowcIEgkna0lehCF7prnoMvrsCUkilYtxYEdPjtN9vaHbRwFjbGJMxjGwrq/VD8yZy2JsAhMBiuO9Cs+3lsbmIBlo6IZGtWAKLquaquog5wpzr2jsLAWQcbyDt2rWKs5lp2amg/PWpXdN9Y2FOfeUjUXmKTMjUAQExvCAeO2b2e4IY9UPfU9k0MGFONs9z27rFS8lqerkBniAuNz9xzCYHDieSFf8nv3if/ezKNkLV1bXl6rSVeK9/WPi/dj/QQLS++D1gfwehRQ/SG4GydlCD3ZdO57HIWIeoukiuQdRANHm1+AglAk58wiBuVASOexhGMWAKqv3kkv7OOQggNATqwFJiJO21DEP1MqQFApwbwjZsmJdjB4ctTW1QTUYTR85qB7lwNrBBoYGEZqhS0TZCA+IlRr+QsQMV2IVEq1RMKG3zpymVL12JxlZfmh4BF5HbqGwrD6UBXN5Bc5Cv6yNK40A3wX+9X/BCwQvvFm1s1Pif+MviudFOKvHQdXujL6EsprJGocBB7wX/JOvqQg5LcwErS8/LLIbgqDry0hNpXgf+g2RB38WFV42QPhIicPjBEJ5QgsgTvTyW4mJQ7UJcvPbY3xrz6DS0aSuGgBGDqj2A+8PZaWfizrBAb1mNp9eE2k+Jy7q3DL/YM4erbFCBkPSzIxAyglUoQx6HUQQjU0iZIaJUM+d03l50eujPxBAdJ4MLc3NsjrJMt4aGAksW4J7dyMq9miNvFkKdwJ5W1a6DY0MQQjSna8LzFqbs+FCYwLIwhGz39kncLpX/Kf+LpsCAm68/lOY7T7Rlf3jsJJ6kFH9IxidbblJf6QCAeRV/XqaNXgtnN6Hcrefmq/ioVl3YdmWZvE+8tsit70fs/n6maCFzcTye6RPUZmkACcYB+JTygpBsYDKc6M4j5CtEAKIUhSvQo6WfCuSaHPLDNDLye1lM09K0a7O03VEmQOE4Vl18LgJ8qZE25wrbo3nR5aNzc96Hy7w16iFF1YqyB/VVVWizTHBgfUwSrdrB9YsyzqO8BfNQLQEJaWbG5pXdCUTMmhx9EKYZuiHsoRuQU7EGHfK87VvaEB13i00h55HLEOcBTMBJAtHydoYjgC9P/79UyJHnsnWyyRfcQFdrwAAO1lJREFUYo4+J/KFPw7XT1sqRQQy/BK95Q49RyZi60IpXOeYlBC7hIeE/+yX3ELB+B7dBPHjHb+ISi9vzbOUaYi2uiwSCCBJDnYBRTMbyMopwwjJyLox/IXeNloPIoof+SbkLEP1BU3eFYZ5uZTrTdsxCs4dpas/Q9KaO9PWE2uPEViSQCm8legBUlYKLy+F0QOEFUY0NogqHFOKhKvcNpO0Mlmrp7n/aBqVgWXZ91pUISlD6WKtkfcwwmAy/Gan7fJlyw+hatEkzlUKIVpry4j3B/tlAoj26Nry6SYw0CP+F35X5BQGaXwZS7uxjd2vif9pDNimMtDetPNMun0OD4ikm5hrfyUsG619SaJLZC9c3LV5FXI14tLPyfPMUZFnvnzpN+H+jSRz3v0/LHLjuwpT4WW5VnKWfwTeFWFn+/XvH5e3gMdYk8+CItdg9+XbydonrP6i9UZAH1mO1ctXAFmNGTDknwltYwjVGcsz0W/oncW4YP8xkVmluId4fWnfGmOjcm2aF1cUF1iu7bt8TgU3rKWt7WHbnf3laqpq1JVCxuHNwWSoYb05OPjkQJTJKDXGJK1acUaz/eWXTcd5WYp8LS5hMEyEyjwgM6jes1Ktf3BQyMHFOtvaXFYryDomgBQEu+00NgKc7TuyFyLI78wnFHUpgRhb4y7Z8AziDPc9Lv7f/opID9zizTJIIB0PeydwzRvhel6jX3UaA8veg/r1wqyBWXv/ha9gMKibKQs2XYbcDde9WeTW94iUw6U+jUaPhGm8WIU+bUIvmLu3FEA0IRmMUx+GSJPlfEqkMT0m/tCp3FxyfcNqJDUtub4N9zmZa6+t0/vDbTvNS53aq28dK8B0XqNfrxjXUOkfuDdkWIDP8uGrQRgMk2xqvCwCQWNkGB4d4QQN5qJgBZhzikSUrP7SWEcBRO/5kOXjsVTbmQOFlXBcbHxiIhBBXNbN+jrnMMk1OIyyy8oKOux3OaqftTTm+exMEKAJIAnCtl0lRGAWmYtfe078z/8eZpK/INJ3VERZQz3WltLrg216+l/E/4f/jvCXw/YiEyvwGDee5RdQDtI27dTDgajIHB2xGGbB/Rf+Xb/pEvRl3VXi3f7udCdTHEKoQ9LCApN5ajxASJ8v6axMkmVjHpNB8NYYz6M6vMDlK4Bwn3VNmj2L3/WKavk0Luyf2q1vFgYqXsfV+vVsDSNQIAJlZWVBGAzDYTQ2NEwBBN5eIWxkbCTI/xFi0QuLUJRhjhKNMHNh5SL7g5VgGuoagnK42q4x98oow2Cy/H6n7fT55Zn/ZAwC0JxD39uaW8A7JcnmQ/Q/Oy0N0RlbxAhcIBB4guwRv/9PUP7yKfF23SuyfpdIyyYMBpDhP2njzQQzkoHwcQIhL3u/C5EGP3BxNMsygQhm6AvWfQogSIT60tO6FrBaUfc+VZGLsDvwD6EtfWfCLv76ckxceeODIptvff2zNP7VfxwCSLgX4Oiaj+NMAQS/QnuezKKNQwiDaVofXTOS3tIUclEwuajGKvFs4KyhxmMm1/brWnN9s/Tnx55f+vMsfXr8RX1rqxEu1LhWv16+a/DWnbrbNy9SsywQqEeOiWrcLzQlascmxzG4HA+SqDJRZy7jwJthGKweo7GG+oyWv43hOqQIxFwodbW10j84oMGIY3p2PvwIEwHcxkqyPrAK66V0KZeOtvb594xLv0jpv00ASemBsWZFRAAuh/K9r4l/8FmU/dwu0nGVSCtetmoxO1eOF69YhnGL2r4gfIwgvru3S+T0IZGTmD1HiSlzX13EKat/Oqjkaeqqt/EW/RiAMcmnMZBn0kYmMIzQ/Bf/Vb81vkiuhffHTcj7kZZStzl6QeFIZjAwT9Lo6QPXVClH0r6pkHHNyPHinzksHvPEZNF4bvKeixlXlTH3R+Ma1So5F65TxkIfRwgMPRU1CWtz7rwAX6BClBxzCONZuxl9xrmZuMUw6oqiD7xeQ1lK2x+q7dlfqLaG3hbVwUA5rKcA838wsWl7Sytux7gn5zAOQEeQNHVWkYeB4S/1SIBaDu8Us3kCZNHc0KQWQLj2EMYODEFaSQLINM67flR/0Yh6C+caOTHnihf3mGphhxH8NgEkAoi2iZQT4HtCP2aV+bMbXhes4V6J3AeBW3jYlw3HPnKAfBb5DCbgjg3lX12RwHG3tlpSBLL9Euoh+aBfhRexCYgaYY2JUIcH4b3Uh3ATKP5RGYWB/S/ot4Zr2bsJ3h+N6/TrJrkGB+WnEO6mmdULBLYIzjFWLIA7sEyFDGuZgrcaxZqsGnM/9YI1wyE1htAXj7lxorBapQAyQg/BI0gIui2KvSe/DSZAHdWLe96WlHttJUlS8zoSwW0hya4V274oYNTBC6QH75Vn4TEQ1vqHBgMPgysJICx9OzaOd0aFMfSFyVmv5Fmi2FxRLMoQJQ7KKYRMK5Oa8hgMjw4Lk8quZqLmFWCDmJhltaKwgt5iJK1NLZnLPWMCyOIjaH8XPwGGxowg7IQ/ZkYgXwIZ9wAJkoV2bBA5fEBHYhIvZ/AQiFIA8bteRfJT5QCKAwbM8Mj174Azl2b0oOtuJEtzgNjfg1l+5aA8ip3TA4QhGb0hBRB6+fScgrcKEjWX0VMuY8YEqN171I32yKh1k3q9pVbwGtbovKvwaPL3Py5eRgUQ/9CTTiEl3uYCeRlFJS4udfCdP9Pew4pEBWG3tV13Zhzdig11DDkpVwkgzLHAijA18B5ZKlcHB5+sFsNQGY2xNC9FkEKb0xkZ07En3+rKqsAzprcfEzYKYzLQMwP98NZpC/K9KFbN5KL0NmL4i7ZUMztL0a2zrUNWZcx7MXcQWiYPoTXaCBgBI5AggawLIKtKkTz0Wj0wJJj0ew/p17vCGv6hJ67wbY6v2P6dd2Fwr5xtz7G5OD/2jyLHw3BIASLqhqymAKJgxPN6BHHTFG2yaPRgOf6KruV0HW+BR1NlvW69HEt7rZtzfHOFj/c8fIUvU/4VKpqprQwzq2uRm8vMgQAVM4fVbJXICDQi50ZlBfIGKewcPAH7B/vhnLa0EM7wA+b/0JQh5QCUAkhleUbzVcR4HlMAaapHaKODDQwNBaEwYUsXO+wiNasMwduFuVJ4fmqNfJkTpyTtk1CXdMwEkEuA2D+NgBEwAiuGAAQEb/31+u6ywgZDDKK0E8oBK/eNZJXergfS7/3B3A6HEd4zirwUKovozRAeIF5Dh2rPMj4gfo/SM0i3h3iW5gtcfxc8lJRiUzWEj07kiGLVnCiMAoh2ZnM/vKDOwusma8Ywz0N6jxvZsiO9JavTfgwiujWkvZtpbl8ZQgsbauoRIqFzpqdnwbkclQlZ/nZ4FM9XhVVBhKmtrs1w+Et8J/NqVCWpr62XKgghWpvFMerp6w1duUe7/bQsz1LL9P4YhvDmYp1IfloOT6isWURP+qx129prBIyAEYiAQBF4gHhrduoHaiyTihcDmZ2JAOL5TTBBsNYq8dDddLN2rcSX909hYHvyIAa3EEIKYeXVIm0Y3GuMYs3JvZo10rEsqxQdfAqhRnOq9ng1TRJcC6q1rrAwPUnqdLPDCFSHUPbsFTaa0q+OPDOf40rZPO/aNyvXiHJxDrriG3i5tVSrmLntJW1rZbnXTY2NUlYGT0SFDSPB5iSfoUsYS7AOowSuxpiMtbYG93izJQnU19XBCwQ5sBysB1XpXPNiOOyuIKsw4WsPJgxcPF2Yd4YeIFnMk2ICSEFON9upETACxUEgbS/QSqp0WazBi0Erch9ojN0eQyWjwZOata68bI9yxp5b27jtfDLjK2+6oN9SJNuP8J7TBfSmYOnv5vWYbVfMVGImUk6dEHqCZMqYt2T/d3RN5gisHtdApOEY2Oiazbp2+HPiv/I13TopWNp/9T+cxFBv19tS0PqsNoE34Yw/f86jz3IvWpCDqpxJphU2h2dCLyYQLh1wnp09i/CXEVVOEea5YD6R6koTQHIdgiAMBslMmRRVawxVOtx1zLk0rHZ/SS/Pkr+ncS4OsmKmg7W3tKQi94xD08UEEBdqto4RMAJGgASy7gHCPpRhcLx2O/9Smc8QiYFjqnVyLsxB66xuxj7YVsuGnJtMzRcMI9mH/B/jDqENUZ5fiNENSoBrwCAHiH8S3itZMfI6g3PyqNKbiHH8G7YipCpiN95Nt+jIsf17nkbyWYhPWTEknA3ObwzeVNYC4bWQCV856k7byBuaWWh3vDS2X3UCvL5w0O3X/5mpv0pLWWmkUViGVmM9fX0oCnjxCcgypAMok6uxCuT9YIiHVX+5MrUgTwXKBLsYE6ieGcDxYgW8IjIm3GXll5M93U69YnWdlsYWVNmJ+Lnp1Br9SiaA6JnZGkbACBiBeQKXvMBkEgurfHTu0Dd9fBBhMMf16y21xpTO5ffCJuo7L/yZyj9m4ea899sYkCP/R4HNq0IiuNYtulb0wQPkGHKzOCRG0+0ooqXRTv+FL+sHtgxX2fKGiBrx+ma8TQ7bZDncwxBBsmL0tnGZPdzxxqz00NppBK5IoLW5WVav1gkggyODMn1JSfRJ/HtIWaGQ+T8a6mqv2D77Eg5+ED9YEneVQ0lbCgUHjh4R5mcpJmM1omMnTzhVfqHnUVtzqzC8KKtmAkhWj5y12wgYgRQQuHgGJwUN0jcBHiBe5zWYeFTOw01AtOg/hcFmBLMiZ5eOh162M0iCmlqjOHbyNfFffgTeH+PuzYzqFKtGjot2eDloDvMkklue2CcyhOOcBZuEG+/L39K1lOd9HdhsuEm3XoilvQ3XI0RLNzAS5jB5DX3IgrgKgc9/8d9FJpUCJpCXXPf2EATjXCSqCyvKNmouzjS2P0oW2dlWc0OzMCGqxuhN0NN/5sIqTEQ5guSn0yxBHtJYdYPhLzVVJoAsh4weMh0oaVuLnBUuNjo+KgeOHc5Zvcdlm4VchwleT/Welu7eHqdm0OujvaVVKMBl1UwAyeqRs3YbASNQeAJZGKQsR4mlZBs7kQtEGUM8A5f3ISTKZEWYfM1hVibYJUNn0mrj/eK/9HXM5r+YjhZWYqaGVU4qlS8sXbtFuhAGk4Vzffc34JWEc1JjjAvfDAGwpkWzVrhla9rAfF24ZReWYmLhA/AYGnF7MV3YTCK/T+LcOLYfyX2V4S+NTQg5ujGRJubcSdb1g6y3P+eByd4XDAWgdwFnxTXWe+Z1AYS5GPpQHldjpRBdOAO/apUN5cJw4zFqxr3HNWHn8VNd0tV9Eo/CbF98bD8rER05jhBXh77wPG9tapYm5L/RnvNhjlNSy9hVkxRp248RMAJFSCDbD8ILB4QzSO0bL/wz9B8jSFw65BY/etE+Vulmzy6sO5zSQSJm8WXv4yLPQQA5e+5Cc/V/RHh+sbxrCwbj7Zt0zejrFp8lfCd0sem6nUSw9PS4+I/9rX5D9IBiKeU4jAOia+7RbZmHnMLivsd06yW9NIQa/5Vvoq0O1+A1dyAhL0LvCmoEHeH1FUlfcL6EHUOzylHR5CQI2+lIIMeykY6WdqFHhsb6hwcvlFidOTsjg+r8H+XO1U007SyWZRn+sra906kkLhnQa2fv4QPSB/EgyzY4PCz7Dh9EJSK8pzgYvT7a4U2TZe8PdtsEEIeDb6sYASNgBAICDup5Gsl59A5geITS/JEz4kcRHlEBAcblaXRij7LFCSzOfBkn94j/nb+HN4LD4DDGJnpNG/SlXjnQ2o+ysqcx059i819F9ZTjh/QtRHUAp1wdYfYE0cnbfm/4Qe3CNhFe5u95AuIZQpDSakyOu+978ABThneVeOLtfDNCg7KZOC81h4NJo2dxrymSZ1BquDo2pKWpSZgQVWMUPQ4dP4Lq6GdleHRENSDlzHtVZRXK3+LZaRaaAL1AWptbnL1AppCods+h/dI/OBB6n2lacBThuGw/S9+62CqEErXA+4MeIFn2/mDfXV45XZjZOkbACBgBI5BWAhV1yA+xTd86CCAyeEq/3qVrsExrVcWlny7/7154n9ALJTWGGeUhuMh+869EjiB5aL4WTFBHOEvNMA+GwVQoB5+nDoscxGBXm+sh3/6HXX8MM3Lf/LR+Qh8vc96uu3HuIQlqHIZBite5XaStQ7f12VmEHR2EoPOSbr2klqa3zYsofXsKgpP29OxYL966a/H2qcyNklTfCrofehCE9CKg8MHww3PK8KOC9q94d86cCM0ICdDa0a4TsvvAXlTi0D1HV69eLY11DRjIr9buckUvz1wgm9ZuQOlWZcjvImosGUtPkP6hwUWfpv/PkbExnGt7goo2rq0lt7Uda/AK4fC+5rrTmNYzASQmsLZZI2AEVgIB7dt/SpmwFG7zWgyMdTNYgsRgMtQXzUs4MoqrDUk6/T1ww0+LIUzE/+qfiLyK2ftzUZwbUWxjERy+LK+B0NW6cdGHIf48O4t8Jkh22Xc0xMLJL+I/gdCXU0f0O8aMrXf7B/XradaAd5W3E14gWuuHkPYyzu1zyAmSNjvyDMr1fhcDcL2HinctvD9qm9GjkAP92PqOayviyyvvpgaDWQUX5olJcx6kvIFkawNr2pVCJ7pHL5DjqMShDasoRe6iFubSMVMTqK2ukU3rNjhVhOHOmDeD4se+DIkgw0iwu3v/Hunpw6SVo/Gc62htdxL6HHcZ62omgMSK1zZuBIxAcRNI2xu0I23mh6jFy1Rju24DDI8YxEv4RAQzIZwp1xoTRj731WgEGO2+L11+BrPi//ybIs8/jNAFzOCn1Lz114m3fpd+/HnyiPi7H0mfF8jRZ0We+rf5cAAt82tuRuiXg+eTZj/0btr1FpHVytctxmcfhgfIiQg8iTTtXW7ZgRPiP/c1ke6jyy15+ffVFeIxJ0q5WyWGyzeYxydpvHWXYlZVMaPv9x+HCDWWBwRbNUoCLAtKzwytnUNuiVlUgQlr8CuTSszA19fF5LkWtiFLLJfGy+rSZjJ0Y33nWmmub7z0q9D/Zj6QPoTBvAbvHVZSmUtxKBpFj5f37g4Sn7okPSUUMqtDuBWFI9cksqHhJrSg8omcUKtsN0bACBiBLBBI8UNPja8GAkjLRvVqQYnUKMJQ1l2v3zeTAHZhYP4KvBMKaQjB8D/9sxA/HhXUMSxkS5bfdxVe+jYjBAGlG1XGfAPf/QeRXoY9gHsaDGVv/W9+Ep4pdB/Xv3qX3PdjCMXQD1hUXUeoh9e2RWQLRCetde2bDzVJyyw/2/ESQl9e/AYEJ33ohbfjjQgHAgsLf1n6TCir0p2Pp3F+RCE+L90a+1RJgKVw2xpjqCZ1STtKUPUln2oml2xuRf6T3gy7tu+UUgfBagEYRZABJK5lCNMxePFoRKyFbcT5m+07xhAreH4MIOHuXB7P7TJ4S161cVPmE58u5m0CyGIa9rcRMAJGQEOgiAQQrwZJrVo2aXofLOsjBwiToeZrJZtvcdvECJKRPfZZEZSdLYj1HhT/kz8q8vIzqfb8uMCGeSm23o5B+dYLH4X+AzNe/sP/F14gw6FXiW1BvMz5DyPXyr7n4AEUfvb0Qnuu3ilyNQbkSVhdm3g3v1vvdTMDMe2Vb6WjIgzvdYefFf/bn4HHF4QQrTG87oa3QnhDye3UmF40i7XpzEWzuiz8Lk4dQwhib3oEyfAtL9ol17QrvSgdSDARZRsSeZrlR6C+tk528TmQh9GjYmxiPBBBXtj9soyMjeaxtehWnUB48Cv79sjug3tlZHzMqdztQmvo/dHZ2ilr2jozn/h0oU/8bQLIYhr2txEwAkZARSBlL9Cqtl+yMD0DmjfoB2lDp5GINH8BRDbcJFKtePlfaD4HZl17MTD7VLJlIVHtxX/hS+L/BbwIEAucqZKUbQj72HQ1QhGUvHm6P/sYPF2+gv4WMMwHx9x/9p9FnkYohstgHJVISt71q8l5IjDHzuYbRJB8T22nu0SeQT/7jqhXjWwFXmPdqGz09T+DBxBC3hzM2/lG8TbA8ygt3h/sU9qM4VI1+MH5GcpYYnvvt9NfojpUZ4pjoXbkSKBAEaeVwtPEJeFqnG3K4rZ5lW1GSMe69jV5N38WiatP9nTLky88I0e6jiMKFnmzCnCPYTu6Tp+Sp198Fu04hhwzek+9S2HUIPHprquvKSrxg32M9yq9lKL92wgYASNQTAQK8ICLDR8HJgyLQJk4lU1MYxYS3hdnkbMgH+P+r77VbQuYgZGnv4rcBJ+PPx8I8470Hhb/8/9d5O//h0h/BOJPrl7HdX7RC+Tmh1ChBF4gIcdai5vof/EPUBXm6cLMPKPqRRDy9I1Pg73bYFyuv1NkIwS3BM1r3iTeDe9yEgD8l5AM9cl/EmG1m6SN5+CZQ+J/6fdEDux223tdrch1yIMCBmbLEKjHPRju+WHNfxHi2ABEsrjuFWEbYssFBJgDpK2pNTYanI1vR64RVjMxi4bAtQiFiSqfyuTUlLy051V5/NmnIECckCnkcmJoTJxiyDlMxkzPTMvpM70QPp6X5159SYYj8kRhqNBNu64XhsAUm9kVVGxH1PpjBIxAggRSOIuYT+/r20SaHGZDmIxvHKEo+dp1b3MakAe7PXNK5JG/E/+1R+KpjECBp++o+N/7Z/H/3y+KPPovmHmF8KK16jr0MQWP3nXwSLgGglM5Zpy1NonZrc/80nyZVrx8JWYzqPqzGyEhX0fej5OH3HaL0pElD/4CBpnlbuu7rsXwhp13i2y4Sr+FWYT7fAdhXs996Xz4UUL3HQ6qkfPF//IforLR9/Tt5hqrkAPl+gfF246+p8X7I+gJ+pYQRhW49i0i9BgKawOoPPU0vKGmRsKuYcvFSIAJStvb8ByN0dpb4xNYYmx2ajddUV4uN+64VlgdJiobHh1B4tFX5dGnn5C9hw7ImcH+IFSGQsU5CiJ57IhiCj1MJlGFi/s5cvyYPPXCs/L0S89hP32RiS1Mdrpj69VF6220Oo9jYKsaASNgBFY2gWKbdatvRyWYdTimr6mOK6sReOOD8CBxEE8W7ankmntlDpnGBSXbnOzYHpGv/Kn4mCn3WHmjBnHSec2U4TVlYhgzrKh8cfxVDEAR+nHoJXi7OA76W5D/4Na3ImcJBiyTDuKJE5QcK9EL5A3vg2D0FCqNIIRHey4PIq74M/9FvA/9DhJ83qbLXZCjSTk/ZttYYvjV/xD5Fjw/Th7OuegVvyhdLd59H0Yp4O0QoRxcX6648eW/9NbsELnxHeKfPqEvITsO8efrfznvhnzrD4hUKT21lm/exUucQ4hT18so6/xnED+evvi7sP8i4s5N6PMDed8bwu5St1w+wxDdnkIv3XkNRMkqePvgvhPS/Ccgxm65WbwbH0qZyBSuA8lfieHa5bIUPTRaGpuRXLMUg9T8ww8ubUN5GcNf4CVkFhkBHrOG2vpgsP/q/r0yMTkR2bbpAXLw2GE5dPyIMJSkER62DajeU11ZFZwjq1evQsjUKrymICwTv9mWxUaxg8lM+UPh5CzuyxRRWNZ2CIlNB4aHYznP6GG0rmMtQoQ2Lm5OUf1tAkhRHU7rjBEwAokS0A4aE22cfmdeLWauGteIz4ewpm8QQHwIIBc/uvX7F+YhufYeuPvDrdvVODj+t/8t/sn94l33Zgx2MaBAgtfQXhf0aKCYMwyPkv6TEAeQ+2DPYxgMQiTATLyzwbXde+BHEXayTeYe/zI2U2ABhB3p3IFQmAfF7+3CgNzhpa+nR/x/+oR4b4dHxY774hmU83gw5Oh5MHsSIU4D/W6HgCfnthvFu+U9GGBGN9Onagz3u+uNENEgKOyG8DSnHICPQHT66l+IN41jdSv60bhWtfvQC4/2IdzlCQgufw6xCeeGq9U0gPc7xLsKIUdmoQh4HdeITy+xge7wHipTCAv78h+LVNSizPD9mRRBQsHJyEIUKZpQYrWnvzfyFjO8Jp/KJZE3qEg2yAF/W3ObbNt0NhAsxl28O6/AgkLGKJKR8uf4qa4ghKmirFwqKyoQXlKG8smlUgqB/tISs+fOzQXeHrMQ0yimTMDrYxrJseMMqaEIw5LO11y1LWjnFbp12VcXBBskKZ/D8y0Qb4K/50Wc4LPz//bxuwTesKUIr6Eg5FJC+rIGKD4wAUQByxY1AkbACFxMQDmAuXjl9P2rvBqDKoggeCgLsoiHNuYAGYVogAdaaKFhqY0jLMG76V1ILvotDMiRa8PVUK1EHv2s+Acw0LzqNvHWY8a/GYPFGrgOV2JwwUoLFHlYPeQs+jk9Np9IcBT9GMZPX5f4SPooJ/diJlbBIVd7qzEwues9Qd9kpCfXUgX53LvzI+IffgnVRp6YP36aVlAk6warL/6ReL3HMNMP75Z2JFiNKtSBYVV7H8P58A0IBt9GaBO8ElytY5MEZW+b6OFUOPMgOsmt3w8vkOPIrQGBTWuj4xBB4AnSCy+SO96NZLa3IMwE53MUNjsNoe8VkRf+A6FeX0By41H3rWIQKDvuFO9WtJH3lbRZWm/dtbhHrUeY1KlDEFwV5zuS0/qf/12Rtw9B+H1b4US+tB3nArRnFUIH2lpaYhFA1nZ0FKBHml2m9cJavg8UltZ10IvVl0PHjiJkBe8FMRmFAYoZ/EmbNdbXy7aNWxC9uFqmpxGyg/c6ep/Me6Kck3MXPFLOe6ZgkmL+uznMEeFviDbMS8J1+DMLr5X5f89v58J32A4TBlcgDLe1uVnWg30VhJCkzASQpEjbfoyAESg+Ahoviaz0vhkvWEzEN6mY+eXAlIn4ZjAznc/sOl1A118n/tab4XaPGfJ8jO9hXfAGwY9fXTmf26SuHV4K9RgwlmOQXjKfMJW5PSZH5nOYcOZ7BK7neIBHZlVVCDV5OwSQD4twcMNElpe4uebeVwIvk2iT97afEb/rNRxDCA5aYxMHzojP0JQTGDzf8IB4V98zH/IQup+X7HQU2zv4JMSP7yEa61FsH8clH6trFO/uD4ig/K+qzGg++8y1bgnCcHbcj/MSlYu++y8Q3hxesmcQQ/7EFyE+7UVy0TeLdy3CvToh8mHbTkbhA9vy93x3nveRPRh8n3XaVLASr631W8V74w9CeNzgvp1Y10zg2nJsv3ftA/B4+g6OgVKAOoVQvS8iXwvFE16H667Dva7UsRXnV2MoFAVN12s5v71ncm2GMtADhIkjo6jCsQAhCH9BeE0xGa/CNF2JPGYM/aBnAsNW6LERp7dFOo+lF1SSkZ5Tr4sZ5wUNCh30Sgl+87Pgc/57XhhxYUXGgwjnOYuKNTu3bld7nbgydHxauu7O1jMCRsAIFA8BFOPMP+wjbTiYA4RCActvagxhCjKFF/Z8BBDur7pJvNuRm+IIvBKQ9yAS43bGMSgQ/iRo8KTxbsZA5P6PQYA5PxDE7GDazKMXwYM/jnCWP9KHZSx0hjlNXnkcA/t9yNXxbYgNyEkA7xtpv1qkFILTcsZzpxvrHnlW5CgG4BRTmNg237fjShyDW9+G4/DOee+f5dqRxPcIyfLu+qD4Z45A6HtCN9O/uH1HIIB0HxF//zMim6+D8HQHQr6uxTWEULLlBqz01hqDsHT0efEPPY/fyHFzch8EGRzHfIyhRi3t4j34k+JtvjWfLa3Ydb1td4vfCk+847gmtAYR03/4M7jVPQfvNwjJ294wL4QwH9Jy5wT3RVGfAmQX7r/HcA0ieaMg7MK7D/cwes+ZLUuAl0BFeYXUI6/EmXzF20V7W8gtsugj+zMGAhRB1nZ0BgLWwWNHZHBkKBjwx7CrVG5yYAi5RfCTpNFLpKevV9Z3rgmumyT2bQJIEpRtH0bACBQngSL0APHOCyDacaePahEyOSpefWd+xxrhKd6WNwQz2/5T/5bftgq5NkIAvBvuFe8tPyXSunnR4IOvxyFNexBCbvayxTDb5d32IYheGEwzQaurMacF494HH0aZXAysm76GwRMGch2bwAACEHLMeBU18zPKKCfsI7GpDJ+G0HEceT4gdgxxXYSFsIRfFNdWOY7BjfCQuPdH4NWU53npyiTXem1bpeSBn5S5wW4MdA+693dqWmQfBJCjr4j/8mMIYUM/O9aLtIE58vl41Rj4MuSLhkoh/hi8fAYhbp4+jFAvhGMNkDt+w9U5EquqEe8dPyfeTniluHqkRNKQ5TaCczWKc2y53bh8j1xI3u0PQYRADhbMuKoNOQLk4AviI3+RvPwIvLE6IErhpxXnRR2ux+qGwDPEQ7UZf3pyXrhmFZmRMzg3cC70dYvPHCQ8L+iiD7d0b8P1CGm6H/exEnVzVuIKzGvQ0tQcqQCypg3H0CwRAkxi29HaHghZB44eCgbnDP0wi48APUBGxsZMAIkPsW3ZCBgBIxAVAbxEF5sxEWkjBk2l8FTQVDvpPYqX5bFoaLAc723vgTcBXuAZxpI1Q1k9uRkD77f/IgYeFD8WDRo48x7aEjy/MLvrvfXnxB+CIPESPDnyMQohI5hB4s9xCD4stcvKFqUV4nNQzJlocoAIIgxBYlJPDtqiHJAiu763CzkoHvzZSwSofDoW4bpksPEmKXn3x2Xuc78JEQjcXQ8315sCR5YGPoXr5QAEj4pq8MYAN8h3c/78m0M4A5kzVG0Knh5n8e8orQzVDN77ceSCeRdEF1wDZs4EvNs+jBCpf8DxhBDhYgvnBM4HvxvnBAZ0wXWIazAIi8E9yWdoC1zXhefFOYQ8nYUIxusRA5GLzkV4BfknX0OC1ftw7bo0ZuWtw2SWjaj2EVU1mAVBJc0kXW9faT2lmBiVVVuu274TlVsa5ODxw3hM4f5pFguBObwTJMnXPEBiOYy2USNgBFYEgSgHbGkBxpfiljXIlQF3Z8RlhrYRDKiG4VLPl+l8Z36xfuAFctf7xUdFl8hCYUJ3Jo8F4fosd71LSt72y/M5Py51O1efM66vlQ59QBlj792/hlnh30D+jRccNrDEKhRDWFYwwtKCS+zl4o+QTV+uv0u87/81nMubLhagLl6ysP9ifoZtd0nJh35L5v7mVxB6EIGAyPOL3hxReXSEJUTx4z/9Pjy33hoIXWFXK9hyCV5WTn1EKGDJu39d5j75C7inOm3h9ZXYV4oa/BF4ejiYP3YG2kd6oJV4eE6l2FhJo7KiEgPnOniBIIwoT2tF6VuKKcVmaRU/FjjzODIx51UbNyFRZ5O8um+P9CccHrLQlmL/zUcXc4skZYumpZLape3HCBgBI5AyApcOUsM2b/HMfth1srAc3POlFl4gGuPTq+fA/AyiZr1cy5Yxeeh7kSvhffPeKLmWS9PnfEF98Iek5D2Y0aer+VLnFWdc0zOOuJge2uu1XyXeB34L7u7IH5BF4zG45U1S8uE/uNz7Jo39oQiy/V4p+am/wjkD8SyLVlcpJT+BcI0b35kN8SMrjHc9IHIv7n9psInhGO9b+mFwFkrBVsATkB4EUVhba2tiySFd26s/inxEeqnvF3msRkWURiS2veuWO+SGHddKZSW8Gs0iJcDXJXrdJGXJ7SmpHtl+jIARMAJaAo6zSV6Runl7G24Qz6FcqN+zH+71cKGOypgQ9U0/Id4tb8cbSIofV3xy11RgEPvHUvIOhAAg9CCnnaMLbUgFhOdX0iIb9ud1XiPeB38HA9p78Ubi8lqbs/fxfkHx460flZKP/mmQTHdJASreFrhtnV5XW26Xkl/5Iqq5tC4tnLltOd61eN6v3yAlP/cZkV1vwblS4Fl5vjwnfb3ESRg8Sx6CF9P2XXHuJdy2h3uwXMj7VrgtXliqFB5brLqhsaBcZspvTWWlZUHoRL6eGxx8MwEqxYK0GyR0VROzIoCwU+wbQ5u2rN8kb77jjbJ9yzYpLyvPxHFRHZQCLcxzged6Uqa74yTVKtuPETACRiBJArzpYhZTbUjqWJRWWQ/XfCS9q0EYjMb6jiPHANzvozSGZTz0X4WVPJCRLMotR7Mt5rfYfp2U/OpXMAiEULOM+dMIFQqbB4R5Mwo0qPTakaTzA59A9YcPQkxAPok0v3yvxvWLhHUlP/PnUvKuX8+/9OcyxzC2r1u3SMkv/pPIrffP52uIbUd5bpjnQgXOzdveCs+PvxZZh3uFcgCbZwuWXh1eY6GvF4plBbq2lm58jk8ra6XkI38MgWwbzusCCkwDJ3HfikcA4cCH4SJhjVU6qiurgwFp2HUKtVxtdY00NSCvVh7WiXtbOcSUtBuP4yrlOcoZf+06aeBAcYslW++//R7ZcdV2CF3M96IX8tLQl7S0wcMzZBVydyVlJoAkRdr2YwSMQLoJbLhG174qvGwjXKBYzbv53Zjd3akbJHCWkMn0orbGteK99zfFe+N75xO0pmEwjpkf6diAihc/LiX/+VMizRtD9dqDV0vogRfLmTJEolCGikDeQx9HLo1fwrmwVQSVbVJlq/AK0wAR8nYMxH/p7xC285ZUNc+pMfVrEL7zhyIP/SzuL+vBPGWiH9uzbrN4P/BLEMh+G8LT5tSIYx7FUiZ/DWM1uA7LQy4bZnuxLQOxCXlsSj76RxBY3wDhKbxQEGmTmNA4Jg8QtrO1qSX0THoHyixnIQSG/apG/ojmxiZZ5ejazxnxNe0dspoib8qNAgiFgXLFc4LLa8SvtCGoQijM9i1b5e5bbpebdl4fHKu6mlrM1ZQnGs6RNi4u7aF3TXWCoUXpv6JcKNo6RsAIGAElAe92ZN0/iKojrKawnGHg5d3xDrxA1y63ZHa/5+D3TR+dL1V6AqEtYZJTLZQ4jaPXNXhBfgiz+xSdnvgySkS+hnAbJFxN2vhy19gh3tW3iHfPR0XWUiRSPEoxmAnKlI5hQHGlGVVWMVmPmfVCD9IqatHPH0EZzOvEf/xz4h94FqVuT0PoQi6TQhmFj1oMYNfBS+XuD2Fg+EBxVR1BRZ6S+z4m/pabRch8/3PzJYJnC3C+Lxxjekw0d4q3HYPwOz8wf25qzvuF7cT5m2F7OCfkJO5XZ2dy74lhXWsQ5lXfnnuZNH1D75qOa6Tkfb+FMtV/I/5Lj6BcbW+4e3JU/ZiJQdhe1La1HZ1y9ORxmWTZ3StYBZJMr+tckwlBgN2gd0MrwlfONDRJ32A/bvnhvWi47rqONYEHSZK5Ea6Af9mvKAg0omLK6T6cn8sYQ4O4bEXaRN5l2r3U1xRy1uJY8WcCCb/7BgeRLLVPxsbHZQbJh1ni9ezsWZkt5HNzqYan5DOGwNFbqrZa6XWcR/tXfQKWx/pXXpWu0HseRRk8PIzMjIARWFkEMPMh22+bf1HOQM+9ti2oVHFGZGIUL894CVvqQVV+fhCw8w7x3vnxwg9OY+bqMRkq3Hc9lik9B2GIv5d6gaMogMox3h3vE+8qDJDiyo3C6jDrkZ9k83XoOV7IOSCcHMJAIPxLpTMyVndZgwSh190LYeiHkZz1IxgQbtC7/tOjow65TQZOQcBB1Y+lBmpVmJm++mYM7rGPxjVoMgZshTR63HB2/Zq70WeIPxQg5mYgFuJaSYL9Qt/pHtvUDvHpVvHufq+UPPDTIhtuwihj9cISxfMb4RleAzyftt6GawvCA13Lz+GdiuVrw4iRUZHgzHMnPD523i3em3He3/ND4tHbKQ0hL5f2kW2qQ66EEdzHp3BfYFnXxbcGXkacYdywHf34MES9G8J7Y126r6T/zWsQHmHephtxT2idDzWcGsE9JOKQw1z94nPg/o/FxoteA3y0DI8Myzkmil7CKisq5KoNm6SzDR4RvB4yYswTQQ+OaVRmmsEg+EqVLniK0uujqqpSOuHpsnXjZqnm8yAjthqiBj1BxlA6+Syez7kEHwoGnW1tsnn9piCPRka6F6qZLFlcX1uHdE4dsqatXRqQPJVeITyOVfDg4nlcXjp/TvA8LuG9ntc3LoDFt6tQOyuChSj0NUMg3LZxi9TW1CTWIw8nZ3y8J0fE//wnRL6D2GgzI2AEVhYBuLTKQz8v3p2YJc+KIT+Dv+8xka49qBaIl0uKuLxFMkkqHliQpzETtxUDwftRJrYhK73Kv52DJ+Ed8wRmVg+IjFEgghhCLoyhZ54KzOLIOgwqtt2THBe8JPsHviuy+1GRY7vF70bbxiEoRPlE40C/FQN/5MOQtdshSkDQ44Cbni75WtfLmNlH+8/0zgsJDB3iAK4MA7RWDHx33Y9zDftM4+AeA6+APbxBfF4rPUcwchmIRwzhiIADgE5cd2sRprYFAhhKx0p9J3jxyxViY5g9PvSkyIHnxD8B5t37cC1CDInLWL2C97oNOyFk3ylBWeqK5Gbn8uoWqlEF52dfN0RbXFfBfRzlFXkPRzlR2foG9AtCQilEzSwa7719h8V/7dHz58NueGX1xCeM4TLz7oO4/f7fxj0/PrHxHCYdDp84Kj3wHhifmAhmy3mJl64ukxrkIepoaUOIQacqxCIth5eix+DwMEri9snE1EQgDHDQy5lvenfMMS8UH6n4uwxiUF2QO6QpCKVISx/CtmMWwge9XXr70Vd4Q9Dz4Rz6z/5ywF+O8JD6mvpAAKmpiuBZGrZhKViO58E0RMspiGH8OTs7EwhFZBb84BqYC4blEEMwucD/gnPDoe0L6zusetEqbHPQpIs+1f2DUsNiuaEEXnglOB/oBVSFfD7tLa1558rRtQj3NBNAtMhseSNgBEIRyKIAstAx3u05IJ1dNNBfjZflNA5GF9qcxG9ymcGga+a8JwhfhhmiEVQrKdBglGLMqdfEP/4Kfh+EELIfg4NjGJAP4RjipVJjrDRTj9CKZoT/NMG7o23jvNcH3OWlEfkY4sjHcQ5eLJzJDXKngCETOZIp3/zTbmiz3/0auIN592EIIRiU9R2Fe/5peObguLh6h5RCWMMsd+CVRS8k5FqRdTvF67ga4lNGBuFxHTtcf8E53vUqmB8Vn6WnwV3gbi2zc+57JfMGiNatm1AFaDsEPwpOOyA84dyPy6PLvbXh16Q3QSDYgg0Fjziu4fCtiXZJDpoHTkAQexni9CH87BH/zBF8Bu+ySXhoRWHVKEd+NTwev+8X5sP9Yr4vcbA3MjoaeBBwQMhBM5Oe1mIGnbPnWQkFyYWeg0CGQfjo54L4EQggGGTS2F/+FIPN4tkWDPIR/kGvHg54V+Edivkx6BVjdjkBnh8UQPib58j8b8ogePdSWiCAYDv5GsWrvAxNYPsXez7xnKcIQk8g/hTCTAApBHXbpxFYCQSyLICshONTbH3kQGdiUHwMCGQIA3AOCIfgXTGKmdFxfE7hhi7xC0avHnivePTmYGLSmtbAfT4QQOraxKtrx7/bimvAtND3qH/zJYui2NAp8Ye74T0Fb5BR5DjhcRg+LT68QYU/DJkJygCfbwA9XjgoRZ4RqaoTj1WVGPJTh4E4w4SQ/FYQBiJV9VG3uDi2h/Avf6BrfsA7fGZeeMK//RFwn4AAOAHmC2FrC6ESGHwEIhuThdYgXKS+A4zhTdME7sxtgx+h+Ic8JBiOFQenldALern0Hxd/CNffMO57gzgfeO2N4u8xXI8UWXku0OBRISUIxWNYH0VsiPsec7zw8wWRiEIs74st8EbbiFAhJrvNQtWc+R7a/42AETACVySAO5+ZETACRsAIGIGME+DLOROl4kcwfpM5eFaw5OzUGISPScyOw6OHny0YZ9kwG+zRLb60ct7rohQv/ZiZMFMSIEt6rbRvQ7jQtvmVKXSQfcAf3iD0pmK+Ex9C1QXjMeAArHz+OJRDjOLAm8ejSGZBL3Q1jj8qG+Cl0YCZ+WtxboPrNHhPDr/OfAbM6VlEgWohpxHzqNALgoNdDHI9lFkNBCgmdF7pHm5xHKOktkkvnYXrj8ebXi8QHD2cE/4M738QSOBuHxjvlfzh8aYIydxKiz8LvsM5QhGEP1zGzAgYASNQRARMACmig2ldMQJGwAgYgfMEOLNZCc8B/sAw1DZLksAqDLA5g4wfY58AeA5az5/vxjsB3mneBcVD5hLij8CbLc1ttbYZASNgBApAwGTdAkC3XRoBI2AEjIARMAJGwAgYASNgBIyAETACyRIwASRZ3rY3I2AEjIARMAJGwAgYASNgBIyAETACRqAABEwAKQB026URMAJGwAgYASNgBIyAETACRsAIGAEjkCwBE0CS5W17MwJGwAgYASNgBIyAETACRsAIGAEjYAQKQMAEkAJAt10aASNgBIyAETACRsAIGAEjYASMgBEwAskSiFcAYeppK5+V7BG1vRmBtBBgJnq7/tNyNKwdRsAIGAEjYASMgBEwAkZgxROIWQDB5itQW97MCBiBlUdgNcpgBmX4Vl7XrcdGwAgYASNgBIyAETACRsAIpI9AvAJIyWqRhs709dpaZASMQPwEymtEqhvj34/twQgYASNgBIyAETACRsAIGAEjEIJAvALIqlLxOq4WKV0Voim2iBEwAkVFoLZFvOaNRdUl64wRMAJGwAgYASNgBIyAETAC2SUQrwBSAuGjZYPIGhsEZfcUsZYbAQcCZQh/6dwED7A1DivbKkbACBgBI2AEjIARMAJGwAgYgegJxCuAsL11bSK3fL9ICTOimhkBI7AiCDSvFe/a+0WYB8TMCBgBI2AEjIARMAJGwAgYASOQAgLxCyDl1eLtuFdk6/Up6K41wQgYgdgJVFSK7LpDZMvtse/KdmAEjIARMAJGwAgYASNgBIyAEQhLIH4BhKUwO7eL96YfEWnrCNsuW84IGIEsEliFW8pVO8R74KetAkwWj5+12QgYASNgBIyAETACRsAIFDGB+AUQwqMb/LUPivd9P4OcIK1FjNO6ZgRWMAGKnVshdv7g71v1pxV8GljXjYARMAJGwAgYASNgBIxAWgl4PiyxxmFX/t5HRL78JyLHDojMzSW2a9uRETACcRGA8MEcP/e8Xbz3/094flTFtSPbrhEwAkbACBgBI2AEjIARMAJGwJlAsgLIQjPHB8V/5h9Fnv6SyJkzIudmIYacw7fJaTELTbHfRsAIaAlA7KC3B6s8lZWLbNsp3oM/L7LhJu2GbHkjYASMgBEwAkbACBgBI2AEjEBiBAojgCx0j6LHqT3i9x0SGYEQMjuz8I39NgJGIK0EShA5V1ErXn2nyPobRKqb5gWRtLbX2mUEjIARMAJGwAgYASNgBIyAEQCBwgogdgiMgBEwAkbACBgBI2AEjIARMAJGwAgYASOQAIFkkqAm0BHbhREwAkbACBgBI2AEjIARMAJGwAgYASNgBHIRMAEkFxn73AgYASNgBIyAETACRsAIGAEjYASMgBEoGgImgBTNobSOGAEjYASMgBEwAkbACBgBI2AEjIARMAK5CJgAkouMfW4EjIARMAJGwAgYASNgBIyAETACRsAIFA0BE0CK5lBaR4yAETACRsAIGAEjYASMgBEwAkbACBiBXARMAMlFxj43AkbACBgBI2AEjIARMAJGwAgYASNgBIqGgAkgRXMorSNGwAgYASNgBIyAETACRsAIGAEjYASMQC4CJoDkImOfGwEjYASMgBEwAkbACBgBI2AEjIARMAJFQ8AEkKI5lNYRI2AEjIARMAJGwAgYASNgBIyAETACRiAXARNAcpGxz42AETACRsAIGAEjYASMgBEwAkbACBiBoiFgAkjRHErriBEwAkbACBgBI2AEjIARMAJGwAgYASOQi4AJILnI2OdGwAgYASNgBIyAETACRsAIGAEjYASMQNEQMAGkaA6ldcQIGAEjYASMgBEwAkbACBgBI2AEjIARyEXABJBcZOxzI2AEjIARMAJGwAgYASNgBIyAETACRqBoCJgAUjSH0jpiBIyAETACRsAIGAEjYASMgBEwAkbACOQiYAJILjL2uREwAkbACBgBI2AEjIARMAJGwAgYASNQNARMACmaQ2kdMQJGwAgYASNgBIyAETACRsAIGAEjYARyETABJBcZ+9wIGAEjYASMgBEwAkbACBgBI2AEjIARKBoCJoAUzaG0jhgBI2AEjIARMAJGwAgYASNgBIyAETACuQiYAJKLjH1uBIyAETACRsAIGAEjYASMgBEwAkbACBQNARNAiuZQWkeMgBEwAkbACBgBI2AEjIARMAJGwAgYgVwETADJRcY+NwJGwAgYASNgBIyAETACRsAIGAEjYASKhoAJIEVzKK0jRsAIGAEjYASMgBEwAkbACBgBI2AEjEAuAiaA5CJjnxsBI2AEjIARMAJGwAgYASNgBIyAETACRUPABJCiOZTWESNgBIyAETACRsAIGAEjYASMgBEwAkYgFwETQHKRsc+NgBEwAkbACBgBI2AEjIARMAJGwAgYgaIhYAJI0RxK64gRMAJGwAgYASNgBIyAETACRsAIGAEjkIuACSC5yNjnRsAIGAEjYASMgBEwAkbACBgBI2AEjEDREDABpGgOpXXECBgBI2AEjIARMAJGwAgYASNgBIyAEchF4P8DRCC0F0Au/CUAAAAASUVORK5CYII=;" vertex="1" parent="1">
          <mxGeometry x="630" y="470" width="128" height="40" as="geometry" />
        </mxCell>
        <mxCell id="CjQMcYgxPabckrPKH6no-6" value="" style="shape=flexArrow;endArrow=classic;html=1;rounded=0;fillColor=#ffe6cc;strokeColor=#d79b00;" edge="1" parent="1">
          <mxGeometry width="50" height="50" relative="1" as="geometry">
            <mxPoint x="510" y="460" as="sourcePoint" />
            <mxPoint x="590" y="460" as="targetPoint" />
          </mxGeometry>
        </mxCell>
        <mxCell id="CjQMcYgxPabckrPKH6no-7" value="&lt;font style=&quot;font-size: 14px;&quot;&gt;Binlog解析&lt;/font&gt;" style="rounded=1;whiteSpace=wrap;html=1;fillColor=#d5e8d4;strokeColor=#82b366;" vertex="1" parent="1">
          <mxGeometry x="370" y="433" width="120" height="60" as="geometry" />
        </mxCell>
        <mxCell id="CjQMcYgxPabckrPKH6no-8" value="&lt;font style=&quot;font-size: 14px;&quot;&gt;Binlog解析&lt;/font&gt;" style="rounded=1;whiteSpace=wrap;html=1;fillColor=#d5e8d4;strokeColor=#82b366;" vertex="1" parent="1">
          <mxGeometry x="380" y="443" width="120" height="60" as="geometry" />
        </mxCell>
      </root>
    </mxGraphModel>
  </diagram>
</mxfile>
